SplineFontDB: 3.0
FontName: EBGaramond_bessst
FullName: EB Garamond Bessst
FamilyName: EB Garamond Bessst
Weight: Book
Copyright: Created by Georg Duffner with FontForge 2.0 (http://fontforge.sf.net). Custom OSP version for bessst project.
Version: 000.010
ItalicAngle: 0
UnderlinePosition: -100
UnderlineWidth: 50
Ascent: 800
Descent: 200
sfntRevision: 0x0000028f
LayerCount: 2
Layer: 0 1 "Back"  1
Layer: 1 1 "Fore"  0
XUID: [1021 619 1067718245 1920756]
FSType: 0
OS2Version: 4
OS2_WeightWidthSlopeOnly: 0
OS2_UseTypoMetrics: 1
CreationTime: 1274079135
ModificationTime: 1355742316
PfmFamily: 17
TTFWeight: 400
TTFWidth: 5
LineGap: 0
VLineGap: 0
Panose: 2 0 5 2 0 0 0 0 0 0
OS2TypoAscent: 1148
OS2TypoAOffset: 0
OS2TypoDescent: -433
OS2TypoDOffset: 0
OS2TypoLinegap: 0
OS2WinAscent: 1148
OS2WinAOffset: 0
OS2WinDescent: 433
OS2WinDOffset: 0
HheadAscent: 1148
HheadAOffset: 0
HheadDescent: -433
HheadDOffset: 0
OS2SubXSize: 650
OS2SubYSize: 699
OS2SubXOff: 0
OS2SubYOff: 140
OS2SupXSize: 650
OS2SupYSize: 699
OS2SupXOff: 0
OS2SupYOff: 479
OS2StrikeYSize: 49
OS2StrikeYPos: 258
OS2Vendor: 'PfEd'
OS2CodePages: 00000197.00000000
OS2UnicodeRanges: e00002ff.500064fb.00000000.00000000
Lookup: 4 0 0 "Ligature Substitution lookup 0"  {"Ligature Substitution lookup 0-1"  } ['    ' ('DFLT' <'dflt' > 'cyrl' <'BGR ' 'SRB ' 'dflt' > 'grek' <'dflt' > 'latn' <'AZE ' 'CAT ' 'CRT ' 'DEU ' 'LAT ' 'PLK ' 'TRK ' 'dflt' > ) ]
Lookup: 1 0 0 "'locl' Localized Forms in Latin lookup 0"  {"'locl' Localized Forms in Latin lookup 0 subtable"  } ['locl' ('latn' <'DEU ' > ) ]
Lookup: 1 0 0 "'locl' Localized Forms in Latin lookup 1"  {"'locl' Localized Forms in Latin lookup 1 subtable"  } ['locl' ('latn' <'PLK ' > ) ]
Lookup: 1 0 0 "'locl' Localized Forms in Latin lookup 2"  {"'locl' Localized Forms in Latin lookup 2 subtable"  } ['locl' ('latn' <'AZE ' 'CRT ' 'TRK ' > ) ]

StartChar: .notdef
Encoding: 256 -1 0
Width: 364
Flags: W
LayerCount: 2
Fore
SplineSet
33 0 m 1,0,-1
 33 666 l 1,1,-1
 298 666 l 1,2,-1
 298 0 l 1,3,-1
 33 0 l 1,0,-1
66 33 m 1,4,-1
 265 33 l 1,5,-1
 265 633 l 1,6,-1
 66 633 l 1,7,-1
 66 33 l 1,4,-1
EndSplineSet
EndChar

StartChar: exclam
Encoding: 260 33 4
Width: 270
GlyphClass: 2
Flags: W
LayerCount: 2
Fore
SplineSet
145 106 m 128,-1,1
 170 106 170 106 187.5 88.5 c 128,-1,2
 205 71 205 71 205 46 c 128,-1,3
 205 21 205 21 187.5 3.5 c 128,-1,4
 170 -14 170 -14 145 -14 c 128,-1,5
 120 -14 120 -14 102.5 3.5 c 128,-1,6
 85 21 85 21 85 46 c 128,-1,7
 85 71 85 71 102.5 88.5 c 128,-1,0
 120 106 120 106 145 106 c 128,-1,1
97.5 494 m 128,-1,9
 93 545 93 545 93 575 c 128,-1,10
 93 605 93 605 106.5 627 c 128,-1,11
 120 649 120 649 145 649 c 128,-1,12
 170 649 170 649 183.5 627 c 128,-1,13
 197 605 197 605 197 574.5 c 128,-1,14
 197 544 197 544 193 499 c 128,-1,15
 189 454 189 454 185 424 c 2,16,17
 185 424 185 424 172 328 c 0,18,19
 164 263 164 263 161 244 c 0,20,21
 156 205 156 205 142.5 205 c 128,-1,22
 129 205 129 205 125.5 238 c 128,-1,23
 122 271 122 271 112 357 c 128,-1,8
 102 443 102 443 97.5 494 c 128,-1,9
EndSplineSet
Substitution2: "'sups' Superscript lookup 20 subtable" exclam.sups
Substitution2: "'sinf' Scientific Inferiors lookup 19 subtable" exclam.sinf
Substitution2: "'ordn' Ordinals lookup 18 subtable" exclam.ordn
Substitution2: "'subs' Subscript lookup 17 subtable" exclam.subs
EndChar

StartChar: quotedbl
Encoding: 261 34 5
Width: 309
GlyphClass: 2
Flags: W
LayerCount: 2
Fore
SplineSet
65 467 m 0,0,1
 66 493 66 493 66 519 c 1,2,-1
 62 621 l 2,3,4
 62 640 62 640 85 658 c 0,5,6
 109 676 109 676 124 676 c 0,7,8
 138 676 138 676 138 648 c 0,9,10
 138 638 138 638 136 624 c 0,11,12
 124 544 124 544 91 469 c 0,13,14
 81 444 81 444 72 444 c 0,15,16
 65 444 65 444 65 467 c 0,0,1
196 467 m 0,17,18
 197 493 197 493 197 519 c 1,19,-1
 193 621 l 2,20,21
 193 640 193 640 216 658 c 0,22,23
 240 676 240 676 255 676 c 0,24,25
 269 676 269 676 269 648 c 0,26,27
 269 638 269 638 267 624 c 0,28,29
 255 544 255 544 222 469 c 0,30,31
 212 444 212 444 203 444 c 0,32,33
 196 444 196 444 196 467 c 0,17,18
EndSplineSet
Substitution2: "'sups' Superscript lookup 20 subtable" quotedbl.sups
Substitution2: "'sinf' Scientific Inferiors lookup 19 subtable" quotedbl.sinf
Substitution2: "'ordn' Ordinals lookup 18 subtable" quotedbl.ordn
Substitution2: "'subs' Subscript lookup 17 subtable" quotedbl.subs
EndChar

StartChar: numbersign
Encoding: 262 35 6
Width: 468
GlyphClass: 2
Flags: W
LayerCount: 2
Fore
SplineSet
134 206 m 1,0,-1
 90 27 l 2,1,2
 87 12 87 12 60 12 c 0,3,4
 55 12 55 12 51.5 17 c 128,-1,5
 48 22 48 22 50 27 c 2,6,-1
 94 204 l 1,7,-1
 31 201 l 2,8,9
 26 201 26 201 21.5 204.5 c 128,-1,10
 17 208 17 208 17 214 c 128,-1,11
 17 220 17 220 18.5 229.5 c 128,-1,12
 20 239 20 239 26 250 c 128,-1,13
 32 261 32 261 41 261 c 2,14,-1
 108 264 l 1,15,-1
 142 402 l 1,16,-1
 78 399 l 2,17,18
 73 399 73 399 68.5 402.5 c 128,-1,19
 64 406 64 406 64 412 c 128,-1,20
 64 418 64 418 65.5 427.5 c 128,-1,21
 67 437 67 437 73 448 c 128,-1,22
 79 459 79 459 88 459 c 2,23,-1
 157 462 l 1,24,-1
 199 633 l 2,25,26
 203 650 203 650 232 650 c 0,27,28
 237 650 237 650 239 644.5 c 128,-1,29
 241 639 241 639 239 633 c 2,30,-1
 198 464 l 1,31,-1
 311 470 l 1,32,-1
 354 644 l 2,33,34
 358 661 358 661 387 661 c 0,35,36
 392 661 392 661 394 655.5 c 128,-1,37
 396 650 396 650 394 644 c 2,38,-1
 352 472 l 1,39,-1
 411 475 l 1,40,41
 416 474 416 474 420 470 c 128,-1,42
 424 466 424 466 424 464 c 2,43,-1
 421 451 l 2,44,45
 419 443 419 443 418 440 c 128,-1,46
 417 437 417 437 414 431 c 1,47,48
 412 424 412 424 410 422 c 0,49,50
 402 414 402 414 393 415 c 1,51,-1
 337 412 l 1,52,-1
 303 274 l 1,53,-1
 364 277 l 2,54,55
 370 277 370 277 374 272.5 c 128,-1,56
 378 268 378 268 377 264.5 c 128,-1,57
 376 261 376 261 374 253 c 128,-1,58
 372 245 372 245 371 242 c 128,-1,59
 370 239 370 239 368 233 c 1,60,61
 364 226 364 226 362 224 c 0,62,63
 354 216 354 216 346 217 c 1,64,-1
 288 214 l 1,65,-1
 245 38 l 2,66,67
 242 23 242 23 215 23 c 0,68,69
 210 23 210 23 206.5 28 c 128,-1,70
 203 33 203 33 205 38 c 2,71,-1
 248 212 l 1,72,-1
 134 206 l 1,0,-1
149 266 m 1,73,-1
 263 272 l 1,74,-1
 296 410 l 1,75,-1
 183 404 l 1,76,-1
 149 266 l 1,73,-1
EndSplineSet
Substitution2: "'sups' Superscript lookup 20 subtable" numbersign.sups
Substitution2: "'sinf' Scientific Inferiors lookup 19 subtable" numbersign.sinf
Substitution2: "'ordn' Ordinals lookup 18 subtable" numbersign.ordn
Substitution2: "'subs' Subscript lookup 17 subtable" numbersign.subs
EndChar

StartChar: dollar
Encoding: 263 36 7
Width: 458
GlyphClass: 2
Flags: W
LayerCount: 2
Fore
SplineSet
264 270 m 2,0,-1
 234 26 l 2,1,2
 233 16 233 16 242 16 c 0,3,4
 300 20 300 20 326 49.5 c 128,-1,5
 352 79 352 79 352 148 c 0,6,7
 352 181 352 181 323 219.5 c 128,-1,8
 294 258 294 258 268 275 c 0,9,10
 266 276 266 276 265.5 275.5 c 128,-1,11
 265 275 265 275 264 270 c 2,0,-1
286.5 370.5 m 128,-1,13
 289 369 289 369 291.5 367 c 128,-1,14
 294 365 294 365 312 352 c 1,15,16
 332 340 332 340 338 335 c 2,17,-1
 362 316 l 2,18,19
 384 299 384 299 402 276 c 0,20,21
 420 254 420 254 426 240 c 0,22,23
 442 204 442 204 442 171 c 0,24,25
 442 100 442 100 390 40.5 c 128,-1,26
 338 -19 338 -19 236 -19 c 0,27,28
 228 -19 228 -19 227 -25 c 2,29,-1
 218 -101 l 2,30,31
 217 -116 217 -116 193 -116 c 0,32,33
 186 -116 186 -116 181 -111.5 c 128,-1,34
 176 -107 176 -107 177 -101 c 2,35,-1
 187 -22 l 2,36,37
 187 -15 187 -15 181 -15 c 1,38,39
 160 -11 160 -11 131.5 -2 c 128,-1,40
 103 7 103 7 98 8 c 128,-1,41
 93 9 93 9 90 10 c 0,42,43
 86 12 86 12 86 13 c 0,44,45
 77 31 77 31 65.5 81 c 128,-1,46
 54 131 54 131 53 158 c 0,47,48
 53 164 53 164 59 169 c 128,-1,49
 65 174 65 174 73 174 c 0,50,51
 75 174 75 174 88.5 145 c 128,-1,52
 102 116 102 116 127.5 79 c 128,-1,53
 153 42 153 42 185 26 c 0,54,55
 187 25 187 25 190 25.5 c 128,-1,56
 193 26 193 26 193 28 c 2,57,-1
 226 297 l 2,58,59
 226 305 226 305 214 314 c 0,60,61
 152 357 152 357 117.5 399.5 c 128,-1,62
 83 442 83 442 83 495.5 c 128,-1,63
 83 549 83 549 130 601.5 c 128,-1,64
 177 654 177 654 261 659 c 1,65,66
 271 661 271 661 271 665 c 2,67,-1
 275 691 l 2,68,69
 278 708 278 708 304 708 c 0,70,71
 310 708 310 708 314 702.5 c 128,-1,72
 318 697 318 697 317 691 c 2,73,-1
 313 665 l 2,74,75
 313 659 313 659 323 658 c 128,-1,76
 333 657 333 657 398 644 c 0,77,78
 412 641 412 641 416 622 c 0,79,80
 430 544 430 544 430 526 c 0,81,82
 430 490 430 490 420 490 c 0,83,84
 415 490 415 490 406 497.5 c 128,-1,85
 397 505 397 505 394 515 c 0,86,87
 373 593 373 593 312 618 c 0,88,89
 310 619 310 619 308.5 617 c 128,-1,90
 307 615 307 615 307 613 c 2,91,-1
 279 386 l 2,92,93
 278 382 278 382 278 380 c 128,-1,94
 278 378 278 378 278.5 376.5 c 128,-1,95
 279 375 279 375 280.5 374 c 128,-1,96
 282 373 282 373 283 372.5 c 128,-1,12
 284 372 284 372 286.5 370.5 c 128,-1,13
259 627 m 0,97,98
 217 623 217 623 188.5 590 c 128,-1,99
 160 557 160 557 160 517 c 0,100,101
 160 465 160 465 231 411 c 0,102,103
 235 409 235 409 237.5 409 c 128,-1,104
 240 409 240 409 240 413 c 2,105,-1
 266 619 l 1,106,107
 266 627 266 627 259 627 c 0,97,98
EndSplineSet
Substitution2: "'sups' Superscript lookup 20 subtable" dollar.sups
Substitution2: "'sinf' Scientific Inferiors lookup 19 subtable" dollar.sinf
Substitution2: "'ordn' Ordinals lookup 18 subtable" dollar.ordn
Substitution2: "'subs' Subscript lookup 17 subtable" dollar.subs
EndChar

StartChar: percent
Encoding: 264 37 8
Width: 735
GlyphClass: 2
Flags: W
LayerCount: 2
Fore
SplineSet
550 321 m 128,-1,1
 522 321 522 321 504 274 c 0,2,3
 486 229 486 229 486 177 c 0,4,5
 486 174 486 174 486 172 c 0,6,7
 487 116 487 116 505 63 c 128,-1,8
 523 10 523 10 554 10 c 128,-1,9
 585 10 585 10 601 59 c 0,10,11
 616 105 616 105 616 157 c 0,12,13
 616 160 616 160 616 164 c 0,14,15
 615 220 615 220 596.5 270.5 c 128,-1,0
 578 321 578 321 550 321 c 128,-1,1
456 292 m 128,-1,17
 496 348 496 348 558 348 c 128,-1,18
 620 348 620 348 653 297 c 128,-1,19
 686 246 686 246 686 173 c 128,-1,20
 686 100 686 100 648 43 c 128,-1,21
 610 -14 610 -14 546 -14 c 128,-1,22
 482 -14 482 -14 449 38.5 c 128,-1,23
 416 91 416 91 416 163.5 c 128,-1,16
 416 236 416 236 456 292 c 128,-1,17
183 603 m 0,24,25
 154 603 154 603 136 556 c 0,26,27
 118 511 118 511 119 459 c 0,28,29
 119 456 119 456 119 454 c 0,30,31
 120 398 120 398 138 345 c 128,-1,32
 156 292 156 292 187 292 c 128,-1,33
 218 292 218 292 234 341 c 0,34,35
 249 387 249 387 249 439 c 0,36,37
 249 442 249 442 249 446 c 0,38,39
 248 502 248 502 229.5 552.5 c 128,-1,40
 211 603 211 603 183 603 c 0,24,25
89 574 m 128,-1,42
 129 630 129 630 191 630 c 128,-1,43
 253 630 253 630 286 579 c 128,-1,44
 319 528 319 528 319 455 c 128,-1,45
 319 382 319 382 281 325 c 128,-1,46
 243 268 243 268 179 268 c 128,-1,47
 115 268 115 268 82 320.5 c 128,-1,48
 49 373 49 373 49 445.5 c 128,-1,41
 49 518 49 518 89 574 c 128,-1,42
136 -11 m 2,49,-1
 548 638 l 2,50,51
 559 655 559 655 587 655 c 0,52,53
 593 655 593 655 598 649 c 0,54,55
 601 645 601 645 601 642 c 0,56,57
 601 640 601 640 600 638 c 2,58,-1
 188 -11 l 2,59,60
 179 -26 179 -26 152 -26 c 0,61,62
 144 -26 144 -26 138 -21 c 0,63,64
 134 -18 134 -18 134 -15 c 0,65,66
 134 -13 134 -13 136 -11 c 2,49,-1
EndSplineSet
Substitution2: "'sups' Superscript lookup 20 subtable" percent.sups
Substitution2: "'sinf' Scientific Inferiors lookup 19 subtable" percent.sinf
Substitution2: "'ordn' Ordinals lookup 18 subtable" percent.ordn
Substitution2: "'subs' Subscript lookup 17 subtable" percent.subs
EndChar

StartChar: ampersand
Encoding: 265 38 9
Width: 788
GlyphClass: 2
Flags: W
LayerCount: 2
Fore
SplineSet
538 404 m 2,0,-1
 635 400 l 2,1,2
 655 400 655 400 691.5 406.5 c 128,-1,3
 728 413 728 413 733 413 c 0,4,5
 744 413 744 413 744 408 c 0,6,7
 744 406 744 406 742 402 c 0,8,9
 736 391 736 391 724 390 c 0,10,11
 662 382 662 382 616 333 c 2,12,-1
 459 165 l 1,13,-1
 476 141 l 2,14,15
 499 108 499 108 507.5 97 c 128,-1,16
 516 86 516 86 535 66.5 c 128,-1,17
 554 47 554 47 574 40.5 c 128,-1,18
 594 34 594 34 615.5 34 c 128,-1,19
 637 34 637 34 658 45.5 c 128,-1,20
 679 57 679 57 688.5 60.5 c 128,-1,21
 698 64 698 64 707 55 c 128,-1,22
 716 46 716 46 708 40 c 2,23,-1
 679 20 l 2,24,25
 659 6 659 6 650 2 c 1,26,27
 623 -14 623 -14 578.5 -14.5 c 128,-1,28
 534 -15 534 -15 504.5 9.5 c 128,-1,29
 475 34 475 34 432 101 c 1,30,-1
 419 122 l 1,31,32
 407 110 407 110 387.5 88 c 128,-1,33
 368 66 368 66 361 60 c 2,34,-1
 337 36 l 2,35,36
 320 20 320 20 310 14 c 2,37,-1
 282 0 l 2,38,39
 254 -15 254 -15 212 -15 c 0,40,41
 142 -14 142 -14 90 22 c 0,42,43
 36 59 36 59 37 124 c 1,44,45
 37 264 37 264 205 342 c 1,46,-1
 225 351 l 1,47,-1
 210 367 l 2,48,49
 194 383 194 383 188 392 c 2,50,-1
 172 414 l 2,51,52
 147 450 147 450 147 494.5 c 128,-1,53
 147 539 147 539 188 569 c 128,-1,54
 229 599 229 599 281 599 c 128,-1,55
 333 599 333 599 370 570.5 c 128,-1,56
 407 542 407 542 407 495.5 c 128,-1,57
 407 449 407 449 381.5 413.5 c 128,-1,58
 356 378 356 378 310 361 c 2,59,-1
 296 356 l 1,60,-1
 305 346 l 2,61,62
 317 332 317 332 364.5 283.5 c 128,-1,63
 412 235 412 235 435 201 c 2,64,-1
 447 183 l 1,65,-1
 463 200 l 2,66,67
 555 297 555 297 569 343 c 0,68,69
 573 357 573 357 565 369.5 c 128,-1,70
 557 382 557 382 541 387 c 0,71,72
 533 390 533 390 533.5 397 c 128,-1,73
 534 404 534 404 538 404 c 2,0,-1
240 334 m 1,74,-1
 219 326 l 2,75,76
 152 300 152 300 132 250 c 0,77,78
 116 210 116 210 116.5 161 c 128,-1,79
 117 112 117 112 151 81 c 128,-1,80
 185 50 185 50 234 50 c 128,-1,81
 283 50 283 50 321 69.5 c 128,-1,82
 359 89 359 89 398 131 c 1,83,-1
 407 140 l 1,84,-1
 395 159 l 2,85,86
 369 199 369 199 318 252 c 2,87,-1
 240 334 l 1,74,-1
279 376 m 1,88,-1
 292 382 l 2,89,90
 347 407 347 407 347 493 c 0,91,92
 347 522 347 522 327 546.5 c 128,-1,93
 307 571 307 571 278 571 c 128,-1,94
 249 571 249 571 228 554.5 c 128,-1,95
 207 538 207 538 207 513 c 0,96,97
 207 464 207 464 264 393 c 1,98,-1
 279 376 l 1,88,-1
EndSplineSet
Substitution2: "'sups' Superscript lookup 20 subtable" ampersand.sups
Substitution2: "'sinf' Scientific Inferiors lookup 19 subtable" ampersand.sinf
Substitution2: "'ordn' Ordinals lookup 18 subtable" ampersand.ordn
Substitution2: "'subs' Subscript lookup 17 subtable" ampersand.subs
EndChar

StartChar: quotesingle
Encoding: 266 39 10
Width: 195
GlyphClass: 2
Flags: W
LayerCount: 2
Fore
SplineSet
65 467 m 0,0,1
 66 493 66 493 66 519 c 1,2,-1
 62 621 l 2,3,4
 62 640 62 640 85 658 c 0,5,6
 109 676 109 676 124 676 c 0,7,8
 138 676 138 676 138 648 c 0,9,10
 138 638 138 638 136 624 c 0,11,12
 124 544 124 544 91 469 c 0,13,14
 81 444 81 444 72 444 c 0,15,16
 65 444 65 444 65 467 c 0,0,1
EndSplineSet
Substitution2: "'sups' Superscript lookup 20 subtable" quotesingle.sups
Substitution2: "'sinf' Scientific Inferiors lookup 19 subtable" quotesingle.sinf
Substitution2: "'ordn' Ordinals lookup 18 subtable" quotesingle.ordn
Substitution2: "'subs' Subscript lookup 17 subtable" quotesingle.subs
EndChar

StartChar: parenleft
Encoding: 267 40 11
Width: 315
GlyphClass: 2
Flags: W
LayerCount: 2
Fore
SplineSet
100.5 1 m 128,-1,1
 40 150 40 150 40 268 c 128,-1,2
 40 386 40 386 96.5 508.5 c 128,-1,3
 153 631 153 631 216 694 c 0,4,5
 227 705 227 705 240 705 c 1,6,7
 252 706 252 706 261 698 c 0,8,9
 266 694 266 694 266 689 c 0,10,11
 266 685 266 685 262 682 c 0,12,13
 200 620 200 620 150 509 c 128,-1,14
 100 398 100 398 100 278.5 c 128,-1,15
 100 159 100 159 152.5 15 c 128,-1,16
 205 -129 205 -129 262 -186 c 0,17,18
 265 -189 265 -189 265 -192 c 0,19,20
 265 -197 265 -197 260 -204 c 0,21,22
 252 -214 252 -214 239.5 -214 c 128,-1,23
 227 -214 227 -214 220 -207 c 0,24,0
 161 -148 161 -148 100.5 1 c 128,-1,1
EndSplineSet
Substitution2: "'sups' Superscript lookup 20 subtable" parenleft.sups
Substitution2: "'sinf' Scientific Inferiors lookup 19 subtable" parenleft.sinf
Substitution2: "'ordn' Ordinals lookup 18 subtable" parenleft.ordn
Substitution2: "'subs' Subscript lookup 17 subtable" parenleft.subs
EndChar

StartChar: parenright
Encoding: 268 41 12
Width: 316
GlyphClass: 2
Flags: W
LayerCount: 2
Fore
SplineSet
210.5 513.5 m 128,-1,1
 266 397 266 397 266 279.5 c 128,-1,2
 266 162 266 162 204 7 c 128,-1,3
 142 -148 142 -148 83 -207 c 0,4,5
 77 -213 77 -213 64 -213 c 0,6,7
 51 -212 51 -212 41 -204 c 0,8,9
 36 -200 36 -200 36 -195.5 c 128,-1,10
 36 -191 36 -191 41 -186 c 0,11,12
 99 -128 99 -128 152.5 9.5 c 128,-1,13
 206 147 206 147 206 266 c 128,-1,14
 206 385 206 385 155.5 503.5 c 128,-1,15
 105 622 105 622 45 682 c 0,16,17
 40 687 40 687 40 691 c 128,-1,18
 40 695 40 695 44 698 c 0,19,20
 53 704 53 704 67 704 c 128,-1,21
 81 704 81 704 91 694 c 0,22,0
 155 630 155 630 210.5 513.5 c 128,-1,1
EndSplineSet
Substitution2: "'sups' Superscript lookup 20 subtable" parenright.sups
Substitution2: "'sinf' Scientific Inferiors lookup 19 subtable" parenright.sinf
Substitution2: "'ordn' Ordinals lookup 18 subtable" parenright.ordn
Substitution2: "'subs' Subscript lookup 17 subtable" parenright.subs
EndChar

StartChar: asterisk
Encoding: 269 42 13
Width: 340
GlyphClass: 2
Flags: W
LayerCount: 2
Fore
SplineSet
266 610 m 1,0,1
 280 622 280 622 293 607 c 1,2,3
 300 597 300 597 286 583 c 1,4,-1
 213 525 l 1,5,6
 260 503 260 503 295 483 c 1,7,8
 308 477 308 477 308 468 c 0,9,10
 308 464 308 464 306 460 c 0,11,12
 300 446 300 446 282 452 c 1,13,14
 240 470 240 470 195 487 c 1,15,16
 200 444 200 444 201 394 c 0,17,18
 201 373 201 373 185 372 c 1,19,-1
 184 372 l 2,20,21
 169 372 169 372 167 390 c 2,22,-1
 154 482 l 1,23,24
 127 463 127 463 75 432 c 1,25,26
 61 420 61 420 48 435 c 1,27,28
 41 445 41 445 55 459 c 1,29,-1
 128 517 l 1,30,31
 81 539 81 539 46 559 c 1,32,33
 33 565 33 565 33 574 c 1,34,35
 32 578 32 578 34 582 c 0,36,37
 40 596 40 596 59 590 c 1,38,39
 101 572 101 572 146 555 c 1,40,41
 141 598 141 598 140 648 c 0,42,43
 140 669 140 669 156 670 c 1,44,-1
 157 670 l 2,45,46
 172 670 172 670 174 652 c 2,47,-1
 187 560 l 1,48,49
 214 579 214 579 266 610 c 1,0,1
EndSplineSet
Substitution2: "'sups' Superscript lookup 20 subtable" asterisk.sups
Substitution2: "'sinf' Scientific Inferiors lookup 19 subtable" asterisk.sinf
Substitution2: "'ordn' Ordinals lookup 18 subtable" asterisk.ordn
Substitution2: "'subs' Subscript lookup 17 subtable" asterisk.subs
EndChar

StartChar: plus
Encoding: 270 43 14
Width: 590
GlyphClass: 2
Flags: W
LayerCount: 2
Fore
SplineSet
330 278 m 2,0,1
 330 273 330 273 330.5 272.5 c 128,-1,2
 331 272 331 272 334 272 c 2,3,-1
 537 272 l 2,4,5
 544 272 544 272 548 268 c 0,6,7
 551 265 551 265 550 261 c 0,8,9
 550 258 550 258 549 254 c 0,10,11
 546 246 546 246 544 240 c 0,12,13
 536 221 536 221 519 222 c 1,14,-1
 334 222 l 2,15,16
 330 222 330 222 330 218 c 2,17,-1
 330 16 l 2,18,19
 330 3 330 3 313 -2.5 c 128,-1,20
 296 -8 296 -8 287 -8 c 128,-1,21
 278 -8 278 -8 274 -3.5 c 128,-1,22
 270 1 270 1 270 6 c 2,23,-1
 270 217 l 2,24,25
 270 222 270 222 266 222 c 2,26,-1
 64 222 l 2,27,28
 59 222 59 222 54.5 226 c 128,-1,29
 50 230 50 230 50 237.5 c 128,-1,30
 50 245 50 245 56 258.5 c 128,-1,31
 62 272 62 272 74 272 c 2,32,-1
 263 272 l 2,33,34
 270 272 270 272 270 280 c 2,35,-1
 270 451 l 2,36,37
 270 465 270 465 288 473.5 c 128,-1,38
 306 482 306 482 313.5 482 c 128,-1,39
 321 482 321 482 325.5 478 c 128,-1,40
 330 474 330 474 330 469 c 2,41,-1
 330 278 l 2,0,1
EndSplineSet
Substitution2: "'sups' Superscript lookup 20 subtable" plus.sups
Substitution2: "'sinf' Scientific Inferiors lookup 19 subtable" plus.sinf
Substitution2: "'ordn' Ordinals lookup 18 subtable" plus.ordn
Substitution2: "'subs' Subscript lookup 17 subtable" plus.subs
EndChar

StartChar: comma
Encoding: 271 44 15
Width: 228
GlyphClass: 2
Flags: W
LayerCount: 2
Fore
SplineSet
116 13 m 128,-1,1
 104 28 104 28 85.5 29.5 c 128,-1,2
 67 31 67 31 54.5 42.5 c 128,-1,3
 42 54 42 54 42 72.5 c 128,-1,4
 42 91 42 91 58.5 104 c 128,-1,5
 75 117 75 117 104 117 c 128,-1,6
 133 117 133 117 156.5 89.5 c 128,-1,7
 180 62 180 62 180 20 c 0,8,9
 180 -49 180 -49 131.5 -97 c 128,-1,10
 83 -145 83 -145 38 -147 c 1,11,-1
 36 -147 l 2,12,13
 26 -147 26 -147 21 -142 c 0,14,15
 18 -139 18 -139 18 -136 c 0,16,17
 18 -134 18 -134 19 -132 c 0,18,19
 22 -126 22 -126 32 -124 c 0,20,21
 71 -116 71 -116 99.5 -89.5 c 128,-1,22
 128 -63 128 -63 128 -15 c 0,23,0
 128 -2 128 -2 116 13 c 128,-1,1
EndSplineSet
Substitution2: "'sups' Superscript lookup 20 subtable" comma.sups
Substitution2: "'sinf' Scientific Inferiors lookup 19 subtable" comma.sinf
Substitution2: "'ordn' Ordinals lookup 18 subtable" comma.ordn
Substitution2: "'subs' Subscript lookup 17 subtable" comma.subs
EndChar

StartChar: hyphen
Encoding: 272 45 16
Width: 274
GlyphClass: 2
Flags: W
LayerCount: 2
Fore
SplineSet
39 170 m 1,0,1
 39 170 39 170 35 170 c 0,2,3
 29 170 29 170 29 176 c 0,4,5
 34 229 34 229 45 230 c 0,6,7
 173 248 173 248 237 255 c 0,8,9
 245 255 245 255 245 249 c 0,10,11
 241 197 241 197 224 195 c 0,12,13
 107 177 107 177 39 170 c 1,0,1
EndSplineSet
Substitution2: "'sups' Superscript lookup 20 subtable" hyphen.sups
Substitution2: "'sinf' Scientific Inferiors lookup 19 subtable" hyphen.sinf
Substitution2: "'ordn' Ordinals lookup 18 subtable" hyphen.ordn
Substitution2: "'subs' Subscript lookup 17 subtable" hyphen.subs
EndChar

StartChar: period
Encoding: 273 46 17
Width: 230
GlyphClass: 2
Flags: W
LayerCount: 2
Fore
SplineSet
115 96 m 128,-1,1
 138 96 138 96 154 80 c 128,-1,2
 170 64 170 64 170 41 c 128,-1,3
 170 18 170 18 154 2 c 128,-1,4
 138 -14 138 -14 115 -14 c 128,-1,5
 92 -14 92 -14 76 2 c 128,-1,6
 60 18 60 18 60 41 c 128,-1,7
 60 64 60 64 76 80 c 128,-1,0
 92 96 92 96 115 96 c 128,-1,1
EndSplineSet
Substitution2: "'sups' Superscript lookup 20 subtable" period.sups
Substitution2: "'sinf' Scientific Inferiors lookup 19 subtable" period.sinf
Substitution2: "'ordn' Ordinals lookup 18 subtable" period.ordn
Substitution2: "'subs' Subscript lookup 17 subtable" period.subs
EndChar

StartChar: slash
Encoding: 274 47 18
Width: 399
GlyphClass: 2
Flags: W
LayerCount: 2
Fore
SplineSet
30 -47 m 2,0,-1
 327 648 l 2,1,2
 335 665 335 665 366 665 c 1,3,4
 372 666 372 666 376 660 c 0,5,6
 379 656 379 656 380 652 c 0,7,8
 380 650 380 650 379 648 c 2,9,-1
 82 -47 l 2,10,11
 76 -62 76 -62 46 -62 c 0,12,13
 40 -62 40 -62 34 -58 c 0,14,15
 30 -55 30 -55 29 -50 c 0,16,17
 29 -49 29 -49 30 -47 c 2,0,-1
EndSplineSet
Substitution2: "'frac' Diagonal Fractions lookup 21 subtable" fraction
Substitution2: "'sups' Superscript lookup 20 subtable" slash.sups
Substitution2: "'sinf' Scientific Inferiors lookup 19 subtable" slash.sinf
Substitution2: "'ordn' Ordinals lookup 18 subtable" slash.ordn
Substitution2: "'subs' Subscript lookup 17 subtable" slash.subs
EndChar

StartChar: zero
Encoding: 275 48 19
Width: 507
GlyphClass: 2
Flags: W
LayerCount: 2
Fore
SplineSet
354 321 m 128,-1,1
 319 372 319 372 258.5 372 c 128,-1,2
 198 372 198 372 158 324.5 c 128,-1,3
 118 277 118 277 118 206 c 128,-1,4
 118 135 118 135 153.5 80.5 c 128,-1,5
 189 26 189 26 250.5 26 c 128,-1,6
 312 26 312 26 350.5 69.5 c 128,-1,7
 389 113 389 113 389 191.5 c 128,-1,0
 389 270 389 270 354 321 c 128,-1,1
102.5 352 m 128,-1,9
 165 413 165 413 253 413 c 128,-1,10
 341 413 341 413 404 351.5 c 128,-1,11
 467 290 467 290 467 201.5 c 128,-1,12
 467 113 467 113 404.5 49 c 128,-1,13
 342 -15 342 -15 253.5 -15 c 128,-1,14
 165 -15 165 -15 102.5 49.5 c 128,-1,15
 40 114 40 114 40 202.5 c 128,-1,8
 40 291 40 291 102.5 352 c 128,-1,9
EndSplineSet
Substitution2: "'tnum' Tabular Numbers lookup 27 subtable" zero.taboldstyle
Substitution2: "'lnum' Lining Figures lookup 25 subtable" zero.lnum
Substitution2: "Single Substitution lookup 24 subtable" zero.ordn
Substitution2: "Single Substitution lookup 23 subtable" zero.subs
Substitution2: "'sups' Superscript lookup 20 subtable" zero.sups
Substitution2: "'sinf' Scientific Inferiors lookup 19 subtable" zero.sinf
Substitution2: "'ordn' Ordinals lookup 18 subtable" zero.ordn
Substitution2: "'subs' Subscript lookup 17 subtable" zero.subs
EndChar

StartChar: one
Encoding: 276 49 20
Width: 289
GlyphClass: 2
Flags: W
LayerCount: 2
Fore
SplineSet
146 2 m 1,0,-1
 36 -3 l 2,1,2
 30 -3 30 -3 27 3 c 0,3,4
 25 7 25 7 25 10 c 0,5,6
 25 14 25 14 26 16 c 0,7,8
 28 22 28 22 39.5 22.5 c 128,-1,9
 51 23 51 23 59.5 24.5 c 128,-1,10
 68 26 68 26 82 30 c 0,11,12
 110 38 110 38 109 68 c 1,13,-1
 109 333 l 2,14,15
 109 359 109 359 96 369 c 0,16,17
 86 377 86 377 78 378 c 2,18,-1
 68 380 l 2,19,20
 50 384 50 384 45.5 384 c 128,-1,21
 41 384 41 384 39.5 389.5 c 128,-1,22
 38 395 38 395 40 400.5 c 128,-1,23
 42 406 42 406 46 406 c 2,24,-1
 146 403 l 1,25,-1
 243 406 l 2,26,27
 252 406 252 406 251.5 396 c 128,-1,28
 251 386 251 386 243 384 c 0,29,30
 240 383 240 383 229.5 381.5 c 128,-1,31
 219 380 219 380 214.5 378.5 c 128,-1,32
 210 377 210 377 202 374 c 1,33,34
 196 370 196 370 192 366 c 0,35,36
 182 354 182 354 182 333 c 0,37,38
 180 269 180 269 180 202.5 c 128,-1,39
 180 136 180 136 182 68 c 0,40,41
 182 49 182 49 193 39.5 c 128,-1,42
 204 30 204 30 213.5 28 c 128,-1,43
 223 26 223 26 242 23.5 c 128,-1,44
 261 21 261 21 264 15 c 0,45,46
 266 12 266 12 266 9 c 128,-1,47
 266 6 266 6 264 3 c 0,48,49
 261 -3 261 -3 253 -3 c 2,50,-1
 146 2 l 1,0,-1
EndSplineSet
Substitution2: "'tnum' Tabular Numbers lookup 27 subtable" one.taboldstyle
Substitution2: "'lnum' Lining Figures lookup 25 subtable" one.lnum
Substitution2: "Single Substitution lookup 24 subtable" one.ordn
Substitution2: "Single Substitution lookup 23 subtable" one.subs
Substitution2: "'sups' Superscript lookup 20 subtable" one.sups
Substitution2: "'sinf' Scientific Inferiors lookup 19 subtable" one.sinf
Substitution2: "'ordn' Ordinals lookup 18 subtable" one.ordn
Substitution2: "'subs' Subscript lookup 17 subtable" one.subs
EndChar

StartChar: two
Encoding: 277 50 21
Width: 430
GlyphClass: 2
Flags: W
LayerCount: 2
Fore
SplineSet
304 65 m 2,0,1
 332 65 332 65 357.5 82 c 128,-1,2
 383 99 383 99 397 128 c 1,3,4
 404 140 404 140 416 138 c 0,5,6
 421 138 421 138 421 133 c 0,7,8
 421 130 421 130 419 126 c 0,9,10
 393 54 393 54 386 12 c 0,11,12
 383 -4 383 -4 373 -4 c 2,13,-1
 371 -4 l 1,14,15
 307 0 307 0 200 0 c 128,-1,16
 93 0 93 0 29 -3 c 0,17,18
 23 -3 23 -3 23 2 c 0,19,20
 23 11 23 11 29 17 c 0,21,22
 69 57 69 57 90 74 c 0,23,24
 226 186 226 186 226 268 c 0,25,26
 226 300 226 300 208 322 c 128,-1,27
 190 344 190 344 161 345 c 1,28,29
 88 345 88 345 45 297 c 0,30,31
 37 289 37 289 31 291 c 128,-1,32
 25 293 25 293 25 300.5 c 128,-1,33
 25 308 25 308 30.5 319 c 128,-1,34
 36 330 36 330 49.5 346 c 128,-1,35
 63 362 63 362 81 377 c 0,36,37
 124 413 124 413 190 413 c 0,38,39
 236 413 236 413 265 376.5 c 128,-1,40
 294 340 294 340 294 290.5 c 128,-1,41
 294 241 294 241 253 191 c 0,42,43
 233 167 233 167 187.5 123.5 c 128,-1,44
 142 80 142 80 133.5 74 c 128,-1,45
 125 68 125 68 137 66 c 0,46,47
 139 65 139 65 141 65 c 2,48,-1
 304 65 l 2,0,1
EndSplineSet
Substitution2: "'tnum' Tabular Numbers lookup 27 subtable" two.taboldstyle
Substitution2: "'lnum' Lining Figures lookup 25 subtable" two.lnum
Substitution2: "Single Substitution lookup 24 subtable" two.ordn
Substitution2: "Single Substitution lookup 23 subtable" two.subs
Substitution2: "'sups' Superscript lookup 20 subtable" two.sups
Substitution2: "'sinf' Scientific Inferiors lookup 19 subtable" two.sinf
Substitution2: "'ordn' Ordinals lookup 18 subtable" two.ordn
Substitution2: "'subs' Subscript lookup 17 subtable" two.subs
EndChar

StartChar: three
Encoding: 278 51 22
Width: 372
GlyphClass: 2
Flags: W
LayerCount: 2
Fore
SplineSet
96.5 381.5 m 128,-1,1
 137 413 137 413 183.5 413 c 128,-1,2
 230 413 230 413 259.5 384.5 c 128,-1,3
 289 356 289 356 289 316 c 0,4,5
 289 221 289 221 195 167 c 0,6,7
 190 163 190 163 196 161 c 1,8,9
 259 160 259 160 289 126.5 c 128,-1,10
 319 93 319 93 319 53 c 0,11,12
 319 -88 319 -88 155 -169 c 0,13,14
 113 -190 113 -190 95 -190 c 128,-1,15
 77 -190 77 -190 68 -185.5 c 128,-1,16
 59 -181 59 -181 59 -174.5 c 128,-1,17
 59 -168 59 -168 68 -157 c 128,-1,18
 77 -146 77 -146 86 -146 c 0,19,20
 134 -146 134 -146 153 -136 c 0,21,22
 198 -112 198 -112 220.5 -80.5 c 128,-1,23
 243 -49 243 -49 243 17 c 0,24,25
 243 38 243 38 237.5 57 c 128,-1,26
 232 76 232 76 211.5 94 c 128,-1,27
 191 112 191 112 160.5 112 c 128,-1,28
 130 112 130 112 95 92 c 0,29,30
 90 89 90 89 83.5 92.5 c 128,-1,31
 77 96 77 96 78 101 c 0,32,33
 85 121 85 121 116 139.5 c 128,-1,34
 147 158 147 158 183 190 c 128,-1,35
 219 222 219 222 219 292 c 0,36,37
 219 321 219 321 201.5 339.5 c 128,-1,38
 184 358 184 358 155 358 c 0,39,40
 123 358 123 358 107 347 c 128,-1,41
 91 336 91 336 87 332 c 2,42,-1
 72 320 l 2,43,44
 61 311 61 311 54.5 305.5 c 128,-1,45
 48 300 48 300 46 301 c 0,46,47
 37 304 37 304 37 310 c 0,48,49
 37 312 37 312 38 315 c 0,50,0
 56 350 56 350 96.5 381.5 c 128,-1,1
EndSplineSet
Substitution2: "'tnum' Tabular Numbers lookup 27 subtable" three.taboldstyle
Substitution2: "'lnum' Lining Figures lookup 25 subtable" three.lnum
Substitution2: "Single Substitution lookup 24 subtable" three.ordn
Substitution2: "Single Substitution lookup 23 subtable" three.subs
Substitution2: "'sups' Superscript lookup 20 subtable" three.sups
Substitution2: "'sinf' Scientific Inferiors lookup 19 subtable" three.sinf
Substitution2: "'ordn' Ordinals lookup 18 subtable" three.ordn
Substitution2: "'subs' Subscript lookup 17 subtable" three.subs
EndChar

StartChar: four
Encoding: 279 52 23
Width: 492
GlyphClass: 2
Flags: W
LayerCount: 2
Fore
SplineSet
266 104 m 2,0,1
 278 104 278 104 278 112 c 2,2,-1
 278 281 l 2,3,4
 278 283 278 283 274 283.5 c 128,-1,5
 270 284 270 284 268 282 c 0,6,7
 214 227 214 227 116 113 c 1,8,9
 110 104 110 104 116 104 c 2,10,-1
 266 104 l 2,0,1
263 50 m 2,11,-1
 34 43 l 2,12,13
 30 43 30 43 26 48 c 0,14,15
 24 51 24 51 24 54 c 0,16,17
 24 55 24 55 25 56 c 0,18,19
 52 88 52 88 228 282 c 1,20,-1
 311 377 l 1,21,22
 338 410 338 410 342.5 415.5 c 128,-1,23
 347 421 347 421 350 421 c 2,24,-1
 351 421 l 2,25,26
 354 421 354 421 354 409 c 2,27,-1
 350 109 l 2,28,29
 350 103 350 103 360 102.5 c 128,-1,30
 370 102 370 102 390 102 c 128,-1,31
 410 102 410 102 434 103 c 256,32,33
 458 104 458 104 462 102 c 0,34,35
 464 100 464 100 465 95 c 0,36,37
 465 92 465 92 464 90 c 0,38,39
 462 80 462 80 455.5 66.5 c 128,-1,40
 449 53 449 53 444 53 c 2,41,-1
 395 54 l 2,42,43
 351 54 351 54 351 46 c 2,44,-1
 351 -133 l 2,45,46
 351 -149 351 -149 326.5 -165 c 128,-1,47
 302 -181 302 -181 293 -181 c 0,48,49
 278 -181 278 -181 278 -168 c 2,50,-1
 278 41 l 2,51,52
 278 45 278 45 271.5 47.5 c 128,-1,53
 265 50 265 50 263 50 c 2,11,-1
EndSplineSet
Substitution2: "'tnum' Tabular Numbers lookup 27 subtable" four.taboldstyle
Substitution2: "'lnum' Lining Figures lookup 25 subtable" four.lnum
Substitution2: "Single Substitution lookup 24 subtable" four.ordn
Substitution2: "Single Substitution lookup 23 subtable" four.subs
Substitution2: "'sups' Superscript lookup 20 subtable" four.sups
Substitution2: "'sinf' Scientific Inferiors lookup 19 subtable" four.sinf
Substitution2: "'ordn' Ordinals lookup 18 subtable" four.ordn
Substitution2: "'subs' Subscript lookup 17 subtable" four.subs
EndChar

StartChar: five
Encoding: 280 53 24
Width: 375
GlyphClass: 2
Flags: W
LayerCount: 2
Fore
SplineSet
102 -189 m 0,0,1
 68 -189 68 -189 68 -177.5 c 128,-1,2
 68 -166 68 -166 101 -160 c 0,3,4
 245 -135 245 -135 245 0 c 0,5,6
 245 98 245 98 108 167 c 0,7,8
 54 194 54 194 58 227 c 1,9,10
 64 295 64 295 89 347 c 0,11,12
 100 370 100 370 125 380 c 0,13,14
 184 403 184 403 271 415 c 1,15,-1
 272 415 l 2,16,17
 283 415 283 415 283 398 c 128,-1,18
 283 381 283 381 267 355 c 128,-1,19
 251 329 251 329 232 325 c 0,20,21
 177 314 177 314 110 312 c 0,22,23
 100 312 100 312 92 282 c 0,24,25
 91 279 91 279 91 276 c 0,26,27
 91 263 91 263 111 252 c 0,28,29
 219 192 219 192 263 150 c 0,30,31
 287 127 287 127 306 90 c 128,-1,32
 325 53 325 53 325 17 c 0,33,34
 325 -74 325 -74 254.5 -131.5 c 128,-1,35
 184 -189 184 -189 102 -189 c 0,0,1
EndSplineSet
Substitution2: "'tnum' Tabular Numbers lookup 27 subtable" five.taboldstyle
Substitution2: "'lnum' Lining Figures lookup 25 subtable" five.lnum
Substitution2: "Single Substitution lookup 24 subtable" five.ordn
Substitution2: "Single Substitution lookup 23 subtable" five.subs
Substitution2: "'sups' Superscript lookup 20 subtable" five.sups
Substitution2: "'sinf' Scientific Inferiors lookup 19 subtable" five.sinf
Substitution2: "'ordn' Ordinals lookup 18 subtable" five.ordn
Substitution2: "'subs' Subscript lookup 17 subtable" five.subs
EndChar

StartChar: six
Encoding: 281 54 25
Width: 466
GlyphClass: 2
Flags: W
LayerCount: 2
Fore
SplineSet
385 45.5 m 128,-1,1
 331 -14 331 -14 234.5 -14 c 128,-1,2
 138 -14 138 -14 90 42 c 0,3,4
 41 99 41 99 41 193 c 0,5,6
 41 343 41 343 156 477 c 0,7,8
 198 525 198 525 270 571 c 128,-1,9
 342 617 342 617 427 639 c 1,10,-1
 432 639 l 2,11,12
 438 639 438 639 440 638 c 0,13,14
 441 638 441 638 441 636 c 0,15,16
 440 634 440 634 438 630 c 0,17,18
 434 623 434 623 415 614 c 0,19,20
 284 557 284 557 213 456 c 0,21,22
 124 328 124 328 124 190 c 0,23,24
 124 121 124 121 158 79 c 0,25,26
 174 59 174 59 203 40.5 c 128,-1,27
 232 22 232 22 266.5 22 c 128,-1,28
 301 22 301 22 327 43 c 0,29,30
 370 76 370 76 370 142 c 0,31,32
 370 189 370 189 342.5 224.5 c 128,-1,33
 315 260 315 260 270 260 c 128,-1,34
 225 260 225 260 196 245 c 0,35,36
 185 240 185 240 185 247 c 0,37,38
 185 257 185 257 216 280 c 0,39,40
 230 291 230 291 259.5 302 c 128,-1,41
 289 313 289 313 314 313 c 0,42,43
 366 313 366 313 402.5 278 c 128,-1,44
 439 243 439 243 439 190 c 0,45,0
 439 105 439 105 385 45.5 c 128,-1,1
EndSplineSet
Substitution2: "'tnum' Tabular Numbers lookup 27 subtable" six.taboldstyle
Substitution2: "'lnum' Lining Figures lookup 25 subtable" six.lnum
Substitution2: "Single Substitution lookup 24 subtable" six.ordn
Substitution2: "Single Substitution lookup 23 subtable" six.subs
Substitution2: "'sups' Superscript lookup 20 subtable" six.sups
Substitution2: "'sinf' Scientific Inferiors lookup 19 subtable" six.sinf
Substitution2: "'ordn' Ordinals lookup 18 subtable" six.ordn
Substitution2: "'subs' Subscript lookup 17 subtable" six.subs
EndChar

StartChar: seven
Encoding: 282 55 26
Width: 460
GlyphClass: 2
Flags: W
LayerCount: 2
Fore
SplineSet
50 406 m 2,0,-1
 113 402 l 2,1,2
 142 401 142 401 270 401 c 128,-1,3
 398 401 398 401 426 407 c 0,4,5
 430 407 430 407 432 401 c 0,6,7
 434 397 434 397 433 394 c 1,8,9
 433 390 433 390 395 323 c 2,10,-1
 115 -166 l 2,11,12
 100 -193 100 -193 96 -193 c 0,13,14
 85 -193 85 -193 76.5 -185.5 c 128,-1,15
 68 -178 68 -178 68 -170.5 c 128,-1,16
 68 -163 68 -163 89 -126 c 2,17,-1
 344 313 l 1,18,19
 350 321 350 321 334 323 c 1,20,21
 217 326 217 326 128 326 c 2,22,-1
 115 326 l 2,23,24
 73 326 73 326 55 303.5 c 128,-1,25
 37 281 37 281 29 281 c 0,26,27
 25 281 25 281 25 289 c 0,28,29
 24 299 24 299 30 321 c 0,30,31
 40 361 40 361 40 395 c 0,32,33
 40 406 40 406 50 406 c 2,0,-1
EndSplineSet
Substitution2: "'tnum' Tabular Numbers lookup 27 subtable" seven.taboldstyle
Substitution2: "'lnum' Lining Figures lookup 25 subtable" seven.lnum
Substitution2: "Single Substitution lookup 24 subtable" seven.ordn
Substitution2: "Single Substitution lookup 23 subtable" seven.subs
Substitution2: "'sups' Superscript lookup 20 subtable" seven.sups
Substitution2: "'sinf' Scientific Inferiors lookup 19 subtable" seven.sinf
Substitution2: "'ordn' Ordinals lookup 18 subtable" seven.ordn
Substitution2: "'subs' Subscript lookup 17 subtable" seven.subs
EndChar

StartChar: eight
Encoding: 283 56 27
Width: 452
GlyphClass: 2
Flags: W
LayerCount: 2
Fore
SplineSet
265 340 m 0,0,1
 319 384 319 384 319 472 c 0,2,3
 319 508 319 508 295 536.5 c 128,-1,4
 271 565 271 565 235.5 565 c 128,-1,5
 200 565 200 565 171 542 c 128,-1,6
 142 519 142 519 142 492 c 128,-1,7
 142 465 142 465 146 449.5 c 128,-1,8
 150 434 150 434 163.5 418 c 128,-1,9
 177 402 177 402 184 394 c 1,10,11
 192 388 192 388 218 368 c 2,12,-1
 253 340 l 2,13,14
 259 336 259 336 265 340 c 0,0,1
286 315 m 0,15,16
 347 275 347 275 375 242 c 128,-1,17
 403 209 403 209 403 157 c 0,18,19
 403 86 403 86 348 36.5 c 128,-1,20
 293 -13 293 -13 225 -13 c 128,-1,21
 157 -13 157 -13 109 28.5 c 128,-1,22
 61 70 61 70 61 132 c 0,23,24
 61 191 61 191 105 229 c 0,25,26
 141 260 141 260 183 282 c 1,27,28
 189 287 189 287 188 288.5 c 128,-1,29
 187 290 187 290 166 307 c 128,-1,30
 145 324 145 324 125.5 344 c 128,-1,31
 106 364 106 364 89 397 c 128,-1,32
 72 430 72 430 72 467 c 0,33,34
 72 521 72 521 124 555 c 128,-1,35
 176 589 176 589 238 589 c 128,-1,36
 300 589 300 589 344.5 554 c 128,-1,37
 389 519 389 519 389 467 c 128,-1,38
 389 415 389 415 341 374 c 0,39,40
 325 360 325 360 302 343 c 128,-1,41
 279 326 279 326 278.5 323 c 128,-1,42
 278 320 278 320 286 315 c 0,15,16
208 267 m 128,-1,44
 204 267 204 267 188 254 c 0,45,46
 172 242 172 242 161 230 c 0,47,48
 131 199 131 199 131 148.5 c 128,-1,49
 131 98 131 98 160.5 61 c 128,-1,50
 190 24 190 24 234 24 c 128,-1,51
 278 24 278 24 305.5 51 c 128,-1,52
 333 78 333 78 333 118 c 0,53,54
 333 184 333 184 223 259 c 0,55,43
 212 267 212 267 208 267 c 128,-1,44
EndSplineSet
Substitution2: "'tnum' Tabular Numbers lookup 27 subtable" eight.taboldstyle
Substitution2: "'lnum' Lining Figures lookup 25 subtable" eight.lnum
Substitution2: "Single Substitution lookup 24 subtable" eight.ordn
Substitution2: "Single Substitution lookup 23 subtable" eight.subs
Substitution2: "'sups' Superscript lookup 20 subtable" eight.sups
Substitution2: "'sinf' Scientific Inferiors lookup 19 subtable" eight.sinf
Substitution2: "'ordn' Ordinals lookup 18 subtable" eight.ordn
Substitution2: "'subs' Subscript lookup 17 subtable" eight.subs
EndChar

StartChar: nine
Encoding: 284 57 28
Width: 466
GlyphClass: 2
Flags: W
LayerCount: 2
Fore
SplineSet
109 351.5 m 128,-1,1
 165 414 165 414 244.5 414 c 128,-1,2
 324 414 324 414 375 356 c 128,-1,3
 426 298 426 298 426 210 c 0,4,5
 426 77 426 77 300 -47 c 0,6,7
 256 -90 256 -90 180 -134.5 c 128,-1,8
 104 -179 104 -179 55 -186 c 1,9,-1
 50 -186 l 2,10,11
 41 -186 41 -186 41 -181 c 0,12,13
 41 -172 41 -172 55 -168 c 0,14,15
 97 -155 97 -155 167 -99 c 128,-1,16
 237 -43 237 -43 270 0 c 0,17,18
 346 101 346 101 346 227 c 0,19,20
 346 290 346 290 309 334 c 128,-1,21
 272 378 272 378 222.5 378 c 128,-1,22
 173 378 173 378 147.5 343.5 c 128,-1,23
 122 309 122 309 122 264.5 c 128,-1,24
 122 220 122 220 151.5 181 c 128,-1,25
 181 142 181 142 220 142 c 0,26,27
 248 142 248 142 260 147.5 c 128,-1,28
 272 153 272 153 283.5 159.5 c 128,-1,29
 295 166 295 166 299.5 167.5 c 128,-1,30
 304 169 304 169 306.5 164.5 c 128,-1,31
 309 160 309 160 307 157 c 0,32,33
 297 139 297 139 274 122 c 0,34,35
 229 89 229 89 179 89 c 128,-1,36
 129 89 129 89 91 125.5 c 128,-1,37
 53 162 53 162 53 215 c 0,38,0
 53 289 53 289 109 351.5 c 128,-1,1
EndSplineSet
Substitution2: "'tnum' Tabular Numbers lookup 27 subtable" nine.taboldstyle
Substitution2: "'lnum' Lining Figures lookup 25 subtable" nine.lnum
Substitution2: "Single Substitution lookup 24 subtable" nine.ordn
Substitution2: "Single Substitution lookup 23 subtable" nine.subs
Substitution2: "'sups' Superscript lookup 20 subtable" nine.sups
Substitution2: "'sinf' Scientific Inferiors lookup 19 subtable" nine.sinf
Substitution2: "'ordn' Ordinals lookup 18 subtable" nine.ordn
Substitution2: "'subs' Subscript lookup 17 subtable" nine.subs
EndChar

StartChar: colon
Encoding: 285 58 29
Width: 248
GlyphClass: 2
Flags: W
LayerCount: 2
Fore
SplineSet
125 96 m 128,-1,1
 148 96 148 96 164 80 c 128,-1,2
 180 64 180 64 180 41 c 128,-1,3
 180 18 180 18 164 2 c 128,-1,4
 148 -14 148 -14 125 -14 c 128,-1,5
 102 -14 102 -14 86 2 c 128,-1,6
 70 18 70 18 70 41 c 128,-1,7
 70 64 70 64 86 80 c 128,-1,0
 102 96 102 96 125 96 c 128,-1,1
125 373 m 128,-1,9
 148 373 148 373 164 356.5 c 128,-1,10
 180 340 180 340 180 318 c 128,-1,11
 180 296 180 296 164 279.5 c 128,-1,12
 148 263 148 263 125 263 c 128,-1,13
 102 263 102 263 86 279.5 c 128,-1,14
 70 296 70 296 70 318 c 128,-1,15
 70 340 70 340 86 356.5 c 128,-1,8
 102 373 102 373 125 373 c 128,-1,9
EndSplineSet
Substitution2: "'sups' Superscript lookup 20 subtable" colon.sups
Substitution2: "'sinf' Scientific Inferiors lookup 19 subtable" colon.sinf
Substitution2: "'ordn' Ordinals lookup 18 subtable" colon.ordn
Substitution2: "'subs' Subscript lookup 17 subtable" colon.subs
EndChar

StartChar: semicolon
Encoding: 286 59 30
Width: 228
GlyphClass: 2
Flags: W
LayerCount: 2
Fore
SplineSet
106 373 m 128,-1,1
 128 373 128 373 144.5 356.5 c 128,-1,2
 161 340 161 340 161 318 c 128,-1,3
 161 296 161 296 144.5 279.5 c 128,-1,4
 128 263 128 263 106 263 c 128,-1,5
 84 263 84 263 67.5 279.5 c 128,-1,6
 51 296 51 296 51 318 c 128,-1,7
 51 340 51 340 67.5 356.5 c 128,-1,0
 84 373 84 373 106 373 c 128,-1,1
116 13 m 128,-1,9
 104 28 104 28 85.5 29.5 c 128,-1,10
 67 31 67 31 54.5 42.5 c 128,-1,11
 42 54 42 54 42 72.5 c 128,-1,12
 42 91 42 91 58.5 104 c 128,-1,13
 75 117 75 117 104 117 c 128,-1,14
 133 117 133 117 156.5 89.5 c 128,-1,15
 180 62 180 62 180 20 c 0,16,17
 180 -49 180 -49 131.5 -97 c 128,-1,18
 83 -145 83 -145 38 -147 c 1,19,-1
 36 -147 l 2,20,21
 26 -147 26 -147 21 -142 c 0,22,23
 18 -139 18 -139 18 -136 c 0,24,25
 18 -134 18 -134 19 -132 c 0,26,27
 22 -126 22 -126 32 -124 c 0,28,29
 71 -116 71 -116 99.5 -89.5 c 128,-1,30
 128 -63 128 -63 128 -15 c 0,31,8
 128 -2 128 -2 116 13 c 128,-1,9
EndSplineSet
Substitution2: "'sups' Superscript lookup 20 subtable" semicolon.sups
Substitution2: "'sinf' Scientific Inferiors lookup 19 subtable" semicolon.sinf
Substitution2: "'ordn' Ordinals lookup 18 subtable" semicolon.ordn
Substitution2: "'subs' Subscript lookup 17 subtable" semicolon.subs
EndChar

StartChar: less
Encoding: 287 60 31
Width: 590
GlyphClass: 2
Flags: W
LayerCount: 2
Fore
SplineSet
523 468 m 1,0,-1
 526 469 l 1,1,2
 530 469 530 469 534 463.5 c 128,-1,3
 538 458 538 458 536 454 c 0,4,5
 525 417 525 417 505 408 c 2,6,-1
 132 234 l 2,7,8
 129 232 129 232 133 229 c 1,9,-1
 513 55 l 2,10,11
 525 49 525 49 531 33.5 c 128,-1,12
 537 18 537 18 537 10 c 0,13,14
 538 2 538 2 534 -2 c 0,15,16
 531 -6 531 -6 528 -6 c 2,17,-1
 527 -6 l 2,18,19
 524 -6 524 -6 523 -5 c 2,20,-1
 94 195 l 2,21,22
 53 214 53 214 53 222.5 c 128,-1,23
 53 231 53 231 63 246.5 c 128,-1,24
 73 262 73 262 86 268 c 2,25,-1
 523 468 l 1,0,-1
EndSplineSet
Substitution2: "'sups' Superscript lookup 20 subtable" less.sups
Substitution2: "'sinf' Scientific Inferiors lookup 19 subtable" less.sinf
Substitution2: "'ordn' Ordinals lookup 18 subtable" less.ordn
Substitution2: "'subs' Subscript lookup 17 subtable" less.subs
EndChar

StartChar: equal
Encoding: 288 61 32
Width: 590
GlyphClass: 2
Flags: W
LayerCount: 2
Fore
SplineSet
74 193 m 2,0,-1
 527 193 l 1,1,2
 534 192 534 192 538 188 c 0,3,4
 541 185 541 185 540 182 c 0,5,6
 540 180 540 180 539 176 c 0,7,8
 536 168 536 168 534 162 c 0,9,10
 526 143 526 143 509 143 c 2,11,-1
 64 143 l 2,12,13
 59 143 59 143 54.5 146.5 c 128,-1,14
 50 150 50 150 50 158 c 128,-1,15
 50 166 50 166 56 179.5 c 128,-1,16
 62 193 62 193 74 193 c 2,0,-1
74 364 m 2,17,-1
 527 364 l 2,18,19
 534 364 534 364 538 360 c 0,20,21
 541 357 541 357 540 353 c 0,22,23
 540 350 540 350 539 346 c 0,24,25
 536 338 536 338 534 332 c 0,26,27
 526 313 526 313 509 314 c 1,28,-1
 64 314 l 2,29,30
 59 314 59 314 54.5 318 c 128,-1,31
 50 322 50 322 50 329.5 c 128,-1,32
 50 337 50 337 56 350.5 c 128,-1,33
 62 364 62 364 74 364 c 2,17,-1
EndSplineSet
Substitution2: "'sups' Superscript lookup 20 subtable" equal.sups
Substitution2: "'sinf' Scientific Inferiors lookup 19 subtable" equal.sinf
Substitution2: "'ordn' Ordinals lookup 18 subtable" equal.ordn
Substitution2: "'subs' Subscript lookup 17 subtable" equal.subs
EndChar

StartChar: greater
Encoding: 289 62 33
Width: 590
GlyphClass: 2
Flags: W
LayerCount: 2
Fore
SplineSet
56 464 m 0,0,1
 59 468 59 468 62 469 c 1,2,3
 62 469 62 469 63 468 c 1,4,5
 66 468 66 468 67 468 c 2,6,-1
 496 268 l 2,7,8
 537 249 537 249 537 240.5 c 128,-1,9
 537 232 537 232 527 216.5 c 128,-1,10
 517 201 517 201 504 195 c 2,11,-1
 67 -5 l 2,12,13
 66 -5 66 -5 64 -5 c 0,14,15
 59 -5 59 -5 56 -1 c 0,16,17
 52 4 52 4 54 9 c 0,18,19
 65 46 65 46 85 55 c 2,20,-1
 458 229 l 2,21,22
 461 231 461 231 457 234 c 1,23,-1
 77 408 l 2,24,25
 65 414 65 414 59 429.5 c 128,-1,26
 53 445 53 445 52.5 452.5 c 128,-1,27
 52 460 52 460 56 464 c 0,0,1
EndSplineSet
Substitution2: "'sups' Superscript lookup 20 subtable" greater.sups
Substitution2: "'sinf' Scientific Inferiors lookup 19 subtable" greater.sinf
Substitution2: "'ordn' Ordinals lookup 18 subtable" greater.ordn
Substitution2: "'subs' Subscript lookup 17 subtable" greater.subs
EndChar

StartChar: question
Encoding: 290 63 34
Width: 355
GlyphClass: 2
Flags: W
LayerCount: 2
Fore
SplineSet
148 106 m 128,-1,1
 173 106 173 106 190.5 88.5 c 128,-1,2
 208 71 208 71 208 46 c 128,-1,3
 208 21 208 21 190.5 3.5 c 128,-1,4
 173 -14 173 -14 148 -14 c 128,-1,5
 123 -14 123 -14 105.5 3.5 c 128,-1,6
 88 21 88 21 88 46 c 128,-1,7
 88 71 88 71 105.5 88.5 c 128,-1,0
 123 106 123 106 148 106 c 128,-1,1
157 573 m 1,8,-1
 110 569 l 1,9,10
 94 569 94 569 81 587 c 128,-1,11
 68 605 68 605 68 622 c 128,-1,12
 68 639 68 639 81.5 650 c 128,-1,13
 95 661 95 661 108 661 c 0,14,15
 166 661 166 661 211.5 615.5 c 128,-1,16
 257 570 257 570 283 514 c 128,-1,17
 309 458 309 458 309 418 c 0,18,19
 309 357 309 357 263.5 332 c 128,-1,20
 218 307 218 307 184.5 285.5 c 128,-1,21
 151 264 151 264 149 204 c 0,22,23
 149 181 149 181 134 181 c 0,24,25
 129 181 129 181 122 189.5 c 128,-1,26
 115 198 115 198 107 229 c 0,27,28
 98 260 98 260 96 289 c 0,29,30
 96 292 96 292 96 294 c 0,31,32
 96 320 96 320 118 338 c 0,33,34
 142 358 142 358 182 379 c 0,35,36
 258 418 258 418 258 458 c 0,37,38
 258 509 258 509 232 540.5 c 128,-1,39
 206 572 206 572 157 573 c 1,8,-1
EndSplineSet
Substitution2: "'sups' Superscript lookup 20 subtable" question.sups
Substitution2: "'sinf' Scientific Inferiors lookup 19 subtable" question.sinf
Substitution2: "'ordn' Ordinals lookup 18 subtable" question.ordn
Substitution2: "'subs' Subscript lookup 17 subtable" question.subs
EndChar

StartChar: at
Encoding: 291 64 35
Width: 916
GlyphClass: 2
Flags: W
LayerCount: 2
Fore
SplineSet
558.5 385.5 m 128,-1,1
 543 395 543 395 521.5 395 c 128,-1,2
 500 395 500 395 462.5 370 c 128,-1,3
 425 345 425 345 389.5 307 c 128,-1,4
 354 269 354 269 329 218.5 c 128,-1,5
 304 168 304 168 304 126 c 128,-1,6
 304 84 304 84 336.5 84 c 128,-1,7
 369 84 369 84 427.5 145.5 c 128,-1,8
 486 207 486 207 530 274.5 c 128,-1,9
 574 342 574 342 574 359 c 128,-1,0
 574 376 574 376 558.5 385.5 c 128,-1,1
582 70 m 1,10,11
 683 70 683 70 751.5 137 c 128,-1,12
 820 204 820 204 820 301 c 0,13,14
 820 423 820 423 723.5 500.5 c 128,-1,15
 627 578 627 578 496 578 c 0,16,17
 386 578 386 578 297.5 514.5 c 128,-1,18
 209 451 209 451 162 350.5 c 128,-1,19
 115 250 115 250 115 138 c 0,20,21
 115 10 115 10 215 -85 c 128,-1,22
 315 -180 315 -180 450 -180 c 0,23,24
 635 -180 635 -180 739 -64 c 0,25,26
 747 -55 747 -55 757 -55 c 0,27,28
 766 -55 766 -55 766 -61 c 0,29,30
 766 -71 766 -71 738 -100 c 0,31,32
 716 -123 716 -123 678 -153 c 128,-1,33
 640 -183 640 -183 578 -204.5 c 128,-1,34
 516 -226 516 -226 448 -226 c 0,35,36
 348 -226 348 -226 257 -179.5 c 128,-1,37
 166 -133 166 -133 108 -47.5 c 128,-1,38
 50 38 50 38 50 150.5 c 128,-1,39
 50 263 50 263 108.5 371.5 c 128,-1,40
 167 480 167 480 270.5 546 c 128,-1,41
 374 612 374 612 498 612 c 0,42,43
 647 612 647 612 756.5 527.5 c 128,-1,44
 866 443 866 443 866 311.5 c 128,-1,45
 866 180 866 180 764 102 c 0,46,47
 664 26 664 26 525 27 c 0,48,49
 521 27 521 27 518 27 c 0,50,51
 502 27 502 27 493 45 c 0,52,53
 487 57 487 57 487 70 c 0,54,55
 487 76 487 76 488 82 c 0,56,57
 502 147 502 147 513 177 c 0,58,59
 520 196 520 196 520 203 c 0,60,61
 520 207 520 207 518 207 c 0,62,63
 515 207 515 207 511 202 c 0,64,65
 379 24 379 24 261 24 c 0,66,67
 226 24 226 24 226 70 c 128,-1,68
 226 116 226 116 262.5 183.5 c 128,-1,69
 299 251 299 251 350 307.5 c 128,-1,70
 401 364 401 364 457.5 404 c 128,-1,71
 514 444 514 444 551 444 c 0,72,73
 568 444 568 444 583.5 430.5 c 128,-1,74
 599 417 599 417 602 426 c 0,75,76
 612 464 612 464 629 464 c 0,77,78
 642 464 642 464 652.5 458 c 128,-1,79
 663 452 663 452 663 445 c 128,-1,80
 663 438 663 438 656 419 c 2,81,-1
 558 114 l 2,82,83
 555 105 555 105 555 97 c 0,84,85
 554 89 554 89 558 83 c 0,86,87
 566 71 566 71 582 70 c 1,10,11
EndSplineSet
Substitution2: "'sups' Superscript lookup 20 subtable" at.sups
Substitution2: "'sinf' Scientific Inferiors lookup 19 subtable" at.sinf
Substitution2: "'ordn' Ordinals lookup 18 subtable" at.ordn
Substitution2: "'subs' Subscript lookup 17 subtable" at.subs
EndChar

StartChar: A
Encoding: 292 65 36
Width: 684
GlyphClass: 2
Flags: W
AnchorPoint: "Anchor-3" 124 8 basechar 0
AnchorPoint: "Anchor-2" 363 700 basechar 0
AnchorPoint: "Anchor-1" 508 18 basechar 0
AnchorPoint: "Anchor-0" 358 -100 basechar 0
LayerCount: 2
Fore
SplineSet
147 1 m 1,0,-1
 27 -5 l 1,1,2
 -2 -5 -2 -5 -2 7.5 c 128,-1,3
 -2 20 -2 20 31 31 c 1,4,5
 91 49 91 49 117 108 c 0,6,7
 213 328 213 328 304 578 c 0,8,9
 305 581 305 581 307 586.5 c 128,-1,10
 309 592 309 592 311 597.5 c 128,-1,11
 313 603 313 603 314 608 c 0,12,13
 316 613 316 613 316 620 c 0,14,15
 317 636 317 636 318 636 c 0,16,17
 354 648 354 648 360 655.5 c 128,-1,18
 366 663 366 663 368 667 c 0,19,20
 372 676 372 676 375 676 c 0,21,22
 380 676 380 676 385 662 c 2,23,-1
 563 128 l 2,24,25
 582 73 582 73 605 53.5 c 128,-1,26
 628 34 628 34 662.5 28 c 128,-1,27
 697 22 697 22 697 5 c 0,28,29
 697 -5 697 -5 668 -5 c 1,30,-1
 529 1 l 1,31,-1
 430 0 l 2,32,33
 401 0 401 0 401 11 c 128,-1,34
 401 22 401 22 436.5 31.5 c 128,-1,35
 472 41 472 41 480 56 c 0,36,37
 484 64 484 64 484 77 c 0,38,39
 484 89 484 89 481 105 c 0,40,41
 464 186 464 186 452 233 c 0,42,43
 449 244 449 244 424 244 c 2,44,-1
 233 244 l 2,45,46
 226 244 226 244 222.5 240.5 c 128,-1,47
 219 237 219 237 216 226 c 2,48,-1
 178 102 l 2,49,50
 175 94 175 94 175 86 c 0,51,52
 175 70 175 70 187 56 c 0,53,54
 204 36 204 36 235.5 28.5 c 128,-1,55
 267 21 267 21 267 10 c 128,-1,56
 267 -1 267 -1 238 -1 c 2,57,-1
 147 1 l 1,0,-1
333 542 m 2,58,-1
 243 302 l 2,59,60
 241 297 241 297 241 294 c 1,61,62
 242 292 242 292 244 290 c 0,63,64
 248 288 248 288 262 287 c 1,65,-1
 417 287 l 1,66,67
 428 288 428 288 430 290 c 0,68,69
 431 291 431 291 431 293 c 0,70,71
 431 296 431 296 429 302 c 2,72,-1
 350 541 l 2,73,74
 344 559 344 559 341.5 559 c 128,-1,75
 339 559 339 559 333 542 c 2,58,-1
EndSplineSet
Substitution2: "'c2sc' Capitals to Small Capitals lookup 30 subtable" A.sc
Substitution2: "'sups' Superscript lookup 20 subtable" A.sups
Substitution2: "'sinf' Scientific Inferiors lookup 19 subtable" A.sinf
Substitution2: "'ordn' Ordinals lookup 18 subtable" A.ordn
Substitution2: "'subs' Subscript lookup 17 subtable" A.subs
EndChar

StartChar: B
Encoding: 293 66 37
Width: 578
GlyphClass: 2
Flags: W
AnchorPoint: "Anchor-2" 267 700 basechar 0
AnchorPoint: "Anchor-0" 282 -100 basechar 0
LayerCount: 2
Fore
SplineSet
208 582 m 2,0,-1
 208 408 l 2,1,2
 208 383 208 383 216 378 c 0,3,4
 225 373 225 373 238 372 c 2,5,6
 238 372 238 372 254 371 c 1,7,8
 317 371 317 371 365 400 c 0,9,10
 381 409 381 409 395.5 433 c 128,-1,11
 410 457 410 457 410 503 c 128,-1,12
 410 549 410 549 380 588 c 128,-1,13
 350 627 350 627 274 627 c 0,14,15
 235 627 235 627 221.5 616.5 c 128,-1,16
 208 606 208 606 208 582 c 2,0,-1
273 -4 m 1,17,-1
 178 0 l 1,18,-1
 48 -5 l 1,19,20
 19 -5 19 -5 19 6.5 c 128,-1,21
 19 18 19 18 55.5 24.5 c 128,-1,22
 92 31 92 31 111 48 c 128,-1,23
 130 65 130 65 130 99 c 2,24,-1
 130 549 l 2,25,26
 130 584 130 584 115.5 599.5 c 128,-1,27
 101 615 101 615 65.5 621.5 c 128,-1,28
 30 628 30 628 30 642 c 0,29,30
 30 653 30 653 59 653 c 2,31,-1
 163 652 l 1,32,-1
 274 657 l 1,33,34
 387 657 387 657 441.5 622.5 c 128,-1,35
 496 588 496 588 496 508 c 0,36,37
 496 446 496 446 462 412 c 1,38,39
 432 384 432 384 395 369 c 0,40,41
 391 367 391 367 391 364 c 128,-1,42
 391 361 391 361 395 359 c 0,43,44
 498 328 498 328 524 265 c 0,45,46
 536 235 536 235 536.5 195 c 128,-1,47
 537 155 537 155 527.5 126 c 128,-1,48
 518 97 518 97 499.5 78 c 128,-1,49
 481 59 481 59 468 50 c 0,50,51
 390 -4 390 -4 273 -4 c 1,17,-1
443 189 m 0,52,53
 443 277 443 277 369 318 c 0,54,55
 324 343 324 343 265 343 c 0,56,57
 236 343 236 343 219 332 c 0,58,59
 210 326 210 326 208 307 c 1,60,61
 207 284 207 284 207 250 c 0,62,63
 207 194 207 194 210 108 c 0,64,65
 212 71 212 71 229 54 c 128,-1,66
 246 37 246 37 287 37 c 0,67,68
 347 37 347 37 395 81.5 c 128,-1,69
 443 126 443 126 443 189 c 0,52,53
EndSplineSet
Substitution2: "'c2sc' Capitals to Small Capitals lookup 30 subtable" B.sc
Substitution2: "'sups' Superscript lookup 20 subtable" B.sups
Substitution2: "'sinf' Scientific Inferiors lookup 19 subtable" B.sinf
Substitution2: "'ordn' Ordinals lookup 18 subtable" B.ordn
Substitution2: "'subs' Subscript lookup 17 subtable" B.subs
EndChar

StartChar: C
Encoding: 294 67 38
Width: 640
GlyphClass: 2
Flags: W
AnchorPoint: "Anchor-3" 426 8 basechar 0
AnchorPoint: "Anchor-2" 381 700 basechar 0
AnchorPoint: "Anchor-0" 404 -100 basechar 0
LayerCount: 2
Fore
SplineSet
586 137 m 0,0,1
 590 144 590 144 600 149.5 c 128,-1,2
 610 155 610 155 611 156 c 128,-1,3
 612 157 612 157 614 157 c 0,4,5
 617 158 617 158 619 148 c 0,6,7
 620 143 620 143 620 138.5 c 128,-1,8
 620 134 620 134 619 130 c 0,9,10
 608 59 608 59 586 26 c 1,11,12
 584 21 584 21 565 15 c 128,-1,13
 546 9 546 9 537 5 c 0,14,15
 494 -15 494 -15 364 -15 c 128,-1,16
 234 -15 234 -15 140 85 c 128,-1,17
 46 185 46 185 46 325.5 c 128,-1,18
 46 466 46 466 154 564.5 c 128,-1,19
 262 663 262 663 410 663 c 0,20,21
 480 663 480 663 516 651 c 128,-1,22
 552 639 552 639 592 633 c 0,23,24
 603 632 603 632 608 590 c 0,25,26
 612 550 612 550 613 518 c 0,27,28
 613 509 613 509 613 501 c 0,29,30
 614 483 614 483 612 478 c 0,31,32
 610 470 610 470 602 471 c 0,33,34
 582 473 582 473 576 508 c 1,35,36
 570 554 570 554 541 581 c 1,37,38
 490 632 490 632 388.5 632 c 128,-1,39
 287 632 287 632 216.5 546.5 c 128,-1,40
 146 461 146 461 146 347 c 0,41,42
 146 264 146 264 176 189 c 128,-1,43
 206 114 206 114 265.5 65 c 128,-1,44
 325 16 325 16 400 16 c 0,45,46
 524 16 524 16 586 137 c 0,0,1
EndSplineSet
Substitution2: "'c2sc' Capitals to Small Capitals lookup 30 subtable" C.sc
Substitution2: "'sups' Superscript lookup 20 subtable" C.sups
Substitution2: "'sinf' Scientific Inferiors lookup 19 subtable" C.sinf
Substitution2: "'ordn' Ordinals lookup 18 subtable" C.ordn
Substitution2: "'subs' Subscript lookup 17 subtable" C.subs
EndChar

StartChar: D
Encoding: 295 68 39
Width: 754
GlyphClass: 2
Flags: W
AnchorPoint: "Anchor-3" 412 8 basechar 0
AnchorPoint: "Anchor-2" 342 700 basechar 0
AnchorPoint: "Anchor-0" 370 -100 basechar 0
LayerCount: 2
Fore
SplineSet
169 651 m 1,0,-1
 340 659 l 1,1,2
 534 659 534 659 619 574.5 c 128,-1,3
 704 490 704 490 704 342 c 128,-1,4
 704 194 704 194 608.5 93.5 c 128,-1,5
 513 -7 513 -7 371 -7 c 0,6,7
 368 -7 368 -7 289 -3.5 c 128,-1,8
 210 0 210 0 163 0 c 1,9,-1
 58 -5 l 1,10,11
 29 -5 29 -5 29 6.5 c 128,-1,12
 29 18 29 18 64.5 24.5 c 128,-1,13
 100 31 100 31 114.5 47 c 128,-1,14
 129 63 129 63 129 99 c 2,15,-1
 129 549 l 2,16,17
 129 584 129 584 114.5 599.5 c 128,-1,18
 100 615 100 615 64.5 621.5 c 128,-1,19
 29 628 29 628 29 642 c 0,20,21
 29 653 29 653 58 653 c 2,22,-1
 162 651 l 1,23,-1
 169 651 l 1,0,-1
317 28 m 1,24,-1
 376 30 l 1,25,26
 449 30 449 30 503.5 78 c 128,-1,27
 558 126 558 126 583.5 196.5 c 128,-1,28
 609 267 609 267 609 346 c 0,29,30
 609 466 609 466 535 547 c 128,-1,31
 461 628 461 628 345 628 c 0,32,33
 251 628 251 628 232 614 c 0,34,35
 210 598 210 598 210 567 c 2,36,-1
 210 121 l 2,37,38
 210 93 210 93 218.5 78.5 c 128,-1,39
 227 64 227 64 250.5 46 c 128,-1,40
 274 28 274 28 317 28 c 1,24,-1
EndSplineSet
Substitution2: "'c2sc' Capitals to Small Capitals lookup 30 subtable" D.sc
Substitution2: "'sups' Superscript lookup 20 subtable" D.sups
Substitution2: "'sinf' Scientific Inferiors lookup 19 subtable" D.sinf
Substitution2: "'ordn' Ordinals lookup 18 subtable" D.ordn
Substitution2: "'subs' Subscript lookup 17 subtable" D.subs
EndChar

StartChar: E
Encoding: 296 69 40
Width: 535
GlyphClass: 2
Flags: W
AnchorPoint: "Anchor-3" 316 8 basechar 0
AnchorPoint: "Anchor-2" 266 700 basechar 0
AnchorPoint: "Anchor-1" 444 18 basechar 0
AnchorPoint: "Anchor-0" 274 -100 basechar 0
LayerCount: 2
Fore
SplineSet
167 1 m 1,0,-1
 52 -5 l 1,1,2
 23 -5 23 -5 23 6.5 c 128,-1,3
 23 18 23 18 59 24.5 c 128,-1,4
 95 31 95 31 112.5 47.5 c 128,-1,5
 130 64 130 64 130 99 c 2,6,-1
 130 549 l 2,7,8
 130 584 130 584 115.5 599.5 c 128,-1,9
 101 615 101 615 65.5 621.5 c 128,-1,10
 30 628 30 628 30 642 c 0,11,12
 30 653 30 653 59 653 c 2,13,-1
 236 650 l 1,14,-1
 453 653 l 1,15,-1
 462 653 l 2,16,17
 479 653 479 653 480 644 c 0,18,19
 491 586 491 586 492 541 c 0,20,21
 492 532 492 532 481 532 c 128,-1,22
 470 532 470 532 467 542 c 0,23,24
 455 578 455 578 444 591 c 0,25,26
 420 618 420 618 377 618 c 2,27,-1
 246 618 l 2,28,29
 237 618 237 618 226 608.5 c 128,-1,30
 215 599 215 599 214 588 c 0,31,32
 210 552 210 552 210 374 c 0,33,34
 210 352 210 352 220 352 c 2,35,-1
 324 352 l 2,36,37
 368 352 368 352 385 391 c 0,38,39
 387 395 387 395 393.5 401.5 c 128,-1,40
 400 408 400 408 403.5 408 c 128,-1,41
 407 408 407 408 412 403 c 128,-1,42
 417 398 417 398 416 392 c 0,43,44
 414 368 414 368 414 337.5 c 128,-1,45
 414 307 414 307 416 269 c 0,46,47
 416 252 416 252 407 252 c 0,48,49
 391 252 391 252 384 275 c 0,50,51
 373 310 373 310 337 314 c 1,52,53
 301 320 301 320 281.5 320 c 128,-1,54
 262 320 262 320 254 320 c 1,55,56
 246 318 246 318 234 316 c 0,57,58
 210 311 210 311 210 294 c 0,59,60
 210 293 210 293 213 113 c 0,61,62
 214 74 214 74 228.5 54.5 c 128,-1,63
 243 35 243 35 276 35 c 2,64,-1
 380 35 l 2,65,66
 388 35 388 35 418 41 c 128,-1,67
 448 47 448 47 456 53 c 0,68,69
 475 68 475 68 498 116 c 0,70,71
 502 126 502 126 510 126 c 0,72,73
 525 125 525 125 525 116 c 0,74,75
 525 81 525 81 508 12 c 0,76,77
 504 -5 504 -5 494 -5 c 2,78,-1
 167 1 l 1,0,-1
EndSplineSet
Substitution2: "'c2sc' Capitals to Small Capitals lookup 30 subtable" E.sc
Substitution2: "'sups' Superscript lookup 20 subtable" E.sups
Substitution2: "'sinf' Scientific Inferiors lookup 19 subtable" E.sinf
Substitution2: "'ordn' Ordinals lookup 18 subtable" E.ordn
Substitution2: "'subs' Subscript lookup 17 subtable" E.subs
EndChar

StartChar: F
Encoding: 297 70 41
Width: 512
GlyphClass: 2
Flags: W
AnchorPoint: "Anchor-2" 288 700 basechar 0
LayerCount: 2
Fore
SplineSet
185 2 m 2,0,-1
 59 -5 l 1,1,2
 30 -5 30 -5 30 6.5 c 128,-1,3
 30 18 30 18 65.5 24.5 c 128,-1,4
 101 31 101 31 115.5 47.5 c 128,-1,5
 130 64 130 64 130 100 c 2,6,-1
 130 522 l 2,7,8
 130 570 130 570 117.5 593 c 128,-1,9
 105 616 105 616 70.5 622 c 128,-1,10
 36 628 36 628 36 642 c 0,11,12
 36 653 36 653 65 653 c 2,13,-1
 237 650 l 1,14,-1
 453 653 l 1,15,-1
 462 653 l 2,16,17
 479 653 479 653 480 644 c 0,18,19
 483 630 483 630 485 544 c 0,20,21
 485 523 485 523 476 523 c 0,22,23
 464 523 464 523 461 535 c 0,24,25
 449 571 449 571 438 584 c 0,26,27
 414 611 414 611 371 611 c 2,28,-1
 244 611 l 2,29,30
 229 611 229 611 221.5 603 c 128,-1,31
 214 595 214 595 212.5 586 c 128,-1,32
 211 577 211 577 210 556.5 c 128,-1,33
 209 536 209 536 209 467 c 128,-1,34
 209 398 209 398 209.5 375 c 128,-1,35
 210 352 210 352 220 352 c 2,36,-1
 336 355 l 1,37,38
 380 355 380 355 397 394 c 0,39,40
 399 398 399 398 405.5 404.5 c 128,-1,41
 412 411 412 411 415.5 411 c 128,-1,42
 419 411 419 411 424 406 c 128,-1,43
 429 401 429 401 428 395 c 0,44,45
 426 371 426 371 426 340.5 c 128,-1,46
 426 310 426 310 428 272 c 0,47,48
 428 255 428 255 419 255 c 0,49,50
 403 255 403 255 396 278 c 0,51,52
 383 317 383 317 349 317 c 2,53,-1
 299 318 l 2,54,55
 276 318 276 318 234 316 c 0,56,57
 210 314 210 314 210 291 c 0,58,59
 210 167 210 167 213 101 c 0,60,61
 215 67 215 67 229 48.5 c 128,-1,62
 243 30 243 30 277.5 24 c 128,-1,63
 312 18 312 18 312 6.5 c 128,-1,64
 312 -5 312 -5 283 -5 c 128,-1,65
 254 -5 254 -5 228 -1.5 c 128,-1,66
 202 2 202 2 185 2 c 2,0,-1
EndSplineSet
Substitution2: "'c2sc' Capitals to Small Capitals lookup 30 subtable" F.sc
Substitution2: "'sups' Superscript lookup 20 subtable" F.sups
Substitution2: "'sinf' Scientific Inferiors lookup 19 subtable" F.sinf
Substitution2: "'ordn' Ordinals lookup 18 subtable" F.ordn
Substitution2: "'subs' Subscript lookup 17 subtable" F.subs
EndChar

StartChar: G
Encoding: 298 71 42
Width: 729
GlyphClass: 2
Flags: W
AnchorPoint: "Anchor-2" 400 700 basechar 0
AnchorPoint: "Anchor-0" 382 -100 basechar 0
LayerCount: 2
Fore
SplineSet
583 286 m 1,0,-1
 672 290 l 2,1,2
 693 290 693 290 693 274 c 0,3,4
 693 268 693 268 685 262 c 1,5,6
 677 258 677 258 664 254 c 0,7,8
 636 246 636 246 630.5 210 c 128,-1,9
 625 174 625 174 625 105 c 0,10,11
 625 94 625 94 634.5 84.5 c 128,-1,12
 644 75 644 75 644 72 c 0,13,14
 644 61 644 61 630 54 c 0,15,16
 498 -14 498 -14 399 -14 c 0,17,18
 254 -14 254 -14 149.5 86 c 128,-1,19
 45 186 45 186 45 328.5 c 128,-1,20
 45 471 45 471 154.5 567 c 128,-1,21
 264 663 264 663 413 663 c 0,22,23
 455 663 455 663 537.5 648.5 c 128,-1,24
 620 634 620 634 621 624 c 0,25,26
 632 548 632 548 632 526 c 0,27,28
 632 492 632 492 617.5 492 c 128,-1,29
 603 492 603 492 593 520.5 c 128,-1,30
 583 549 583 549 566 569.5 c 128,-1,31
 549 590 549 590 507.5 607.5 c 128,-1,32
 466 625 466 625 404 625 c 0,33,34
 293 625 293 625 218.5 545 c 128,-1,35
 144 465 144 465 144 346 c 0,36,37
 144 264 144 264 173.5 191.5 c 128,-1,38
 203 119 203 119 262.5 71 c 128,-1,39
 322 23 322 23 399 23 c 128,-1,40
 476 23 476 23 534 60 c 0,41,42
 558 76 558 76 558 137 c 0,43,44
 558 144 558 144 559 168 c 0,45,46
 560 180 560 180 560 191 c 0,47,48
 560 220 560 220 555 225 c 1,49,50
 544 240 544 240 511 248 c 128,-1,51
 478 256 478 256 465 256 c 128,-1,52
 452 256 452 256 444.5 261 c 128,-1,53
 437 266 437 266 437 273 c 128,-1,54
 437 280 437 280 444.5 285 c 128,-1,55
 452 290 452 290 457 290 c 2,56,-1
 583 286 l 1,0,-1
EndSplineSet
Substitution2: "'c2sc' Capitals to Small Capitals lookup 30 subtable" G.sc
Substitution2: "'sups' Superscript lookup 20 subtable" G.sups
Substitution2: "'sinf' Scientific Inferiors lookup 19 subtable" G.sinf
Substitution2: "'ordn' Ordinals lookup 18 subtable" G.ordn
Substitution2: "'subs' Subscript lookup 17 subtable" G.subs
EndChar

StartChar: H
Encoding: 299 72 43
Width: 810
GlyphClass: 2
Flags: W
AnchorPoint: "Anchor-2" 415 700 basechar 0
AnchorPoint: "Anchor-0" 415 -100 basechar 0
LayerCount: 2
Fore
SplineSet
648 650 m 1,0,-1
 739 653 l 2,1,2
 768 653 768 653 768 642 c 0,3,4
 768 628 768 628 734.5 622 c 128,-1,5
 701 616 701 616 691.5 600.5 c 128,-1,6
 682 585 682 585 682 552 c 2,7,-1
 682 100 l 2,8,9
 682 61 682 61 691.5 45.5 c 128,-1,10
 701 30 701 30 735.5 24 c 128,-1,11
 770 18 770 18 770 6.5 c 128,-1,12
 770 -5 770 -5 741 -5 c 1,13,-1
 637 0 l 1,14,-1
 530 -5 l 1,15,16
 501 -5 501 -5 501 6.5 c 128,-1,17
 501 18 501 18 534 24 c 0,18,19
 602 37 602 37 602 97 c 2,20,-1
 602 287 l 2,21,22
 602 302 602 302 597 302 c 2,23,-1
 215 302 l 2,24,25
 210 302 210 302 210 291 c 2,26,-1
 210 106 l 2,27,28
 210 75 210 75 232 52.5 c 128,-1,29
 254 30 254 30 288 24 c 128,-1,30
 322 18 322 18 322 6.5 c 128,-1,31
 322 -5 322 -5 293 -5 c 1,32,-1
 176 0 l 1,33,-1
 66 -5 l 1,34,35
 37 -5 37 -5 37 6.5 c 128,-1,36
 37 18 37 18 71.5 24.5 c 128,-1,37
 106 31 106 31 118 46.5 c 128,-1,38
 130 62 130 62 130 99 c 2,39,-1
 130 551 l 2,40,41
 130 588 130 588 121 602 c 128,-1,42
 112 616 112 616 78 622 c 128,-1,43
 44 628 44 628 44 642 c 0,44,45
 44 653 44 653 73 653 c 2,46,-1
 176 650 l 1,47,-1
 282 653 l 2,48,49
 311 653 311 653 311 642 c 0,50,51
 311 628 311 628 278 622 c 0,52,53
 210 610 210 610 210 551 c 2,54,-1
 210 359 l 2,55,56
 210 350 210 350 224 350 c 2,57,-1
 595 350 l 2,58,59
 602 350 602 350 602 362 c 2,60,-1
 602 552 l 2,61,62
 602 610 602 610 536 622 c 0,63,64
 503 628 503 628 503 642 c 0,65,66
 503 653 503 653 532 653 c 2,67,-1
 648 650 l 1,0,-1
EndSplineSet
Substitution2: "'c2sc' Capitals to Small Capitals lookup 30 subtable" H.sc
Substitution2: "'sups' Superscript lookup 20 subtable" H.sups
Substitution2: "'sinf' Scientific Inferiors lookup 19 subtable" H.sinf
Substitution2: "'ordn' Ordinals lookup 18 subtable" H.ordn
Substitution2: "'subs' Subscript lookup 17 subtable" H.subs
EndChar

StartChar: I
Encoding: 300 73 44
Width: 340
GlyphClass: 2
Flags: W
AnchorPoint: "Anchor-2" 160 700 basechar 0
AnchorPoint: "Anchor-1" 185 18 basechar 0
AnchorPoint: "Anchor-0" 160 -100 basechar 0
LayerCount: 2
Fore
SplineSet
176 0 m 1,0,-1
 48 -5 l 1,1,2
 19 -5 19 -5 19 6.5 c 128,-1,3
 19 18 19 18 55.5 24.5 c 128,-1,4
 92 31 92 31 111 47.5 c 128,-1,5
 130 64 130 64 130 98 c 2,6,-1
 130 550 l 2,7,8
 130 585 130 585 115.5 600 c 128,-1,9
 101 615 101 615 65.5 621.5 c 128,-1,10
 30 628 30 628 30 642 c 0,11,12
 30 653 30 653 59 653 c 2,13,-1
 176 650 l 1,14,-1
 285 653 l 2,15,16
 314 653 314 653 314 642 c 0,17,18
 314 628 314 628 278 621.5 c 128,-1,19
 242 615 242 615 226 599.5 c 128,-1,20
 210 584 210 584 210 550 c 2,21,-1
 210 98 l 2,22,23
 210 64 210 64 229.5 47.5 c 128,-1,24
 249 31 249 31 285.5 24.5 c 128,-1,25
 322 18 322 18 322 6.5 c 128,-1,26
 322 -5 322 -5 293 -5 c 1,27,-1
 176 0 l 1,0,-1
EndSplineSet
Substitution2: "'c2sc' Capitals to Small Capitals lookup 30 subtable" I.sc
Substitution2: "'sups' Superscript lookup 20 subtable" I.sups
Substitution2: "'sinf' Scientific Inferiors lookup 19 subtable" I.sinf
Substitution2: "'ordn' Ordinals lookup 18 subtable" I.ordn
Substitution2: "'subs' Subscript lookup 17 subtable" I.subs
EndChar

StartChar: J
Encoding: 301 74 45
Width: 300
GlyphClass: 2
Flags: W
AnchorPoint: "Anchor-2" 170 700 basechar 0
LayerCount: 2
Fore
SplineSet
177 650 m 1,0,-1
 271 653 l 2,1,2
 300 653 300 653 300 642 c 0,3,4
 300 628 300 628 265.5 622 c 128,-1,5
 231 616 231 616 221 601.5 c 128,-1,6
 211 587 211 587 210 551 c 1,7,-1
 210 142 l 2,8,9
 210 -10 210 -10 193 -62 c 0,10,11
 183 -92 183 -92 177.5 -102 c 128,-1,12
 172 -112 172 -112 157 -134 c 0,13,14
 111 -200 111 -200 34 -200 c 0,15,16
 -12 -200 -12 -200 -40.5 -187.5 c 128,-1,17
 -69 -175 -69 -175 -69 -156.5 c 128,-1,18
 -69 -138 -69 -138 -57.5 -120.5 c 128,-1,19
 -46 -103 -46 -103 -33 -103 c 0,20,21
 0 -103 0 -103 18 -130.5 c 128,-1,22
 36 -158 36 -158 64 -158 c 0,23,24
 130 -158 130 -158 130 0 c 2,25,-1
 130 551 l 1,26,27
 131 585 131 585 116.5 600 c 128,-1,28
 102 615 102 615 66.5 621.5 c 128,-1,29
 31 628 31 628 31 642 c 0,30,31
 31 653 31 653 60 653 c 2,32,-1
 177 650 l 1,0,-1
EndSplineSet
Substitution2: "'c2sc' Capitals to Small Capitals lookup 30 subtable" J.sc
Substitution2: "'sups' Superscript lookup 20 subtable" J.sups
Substitution2: "'sinf' Scientific Inferiors lookup 19 subtable" J.sinf
Substitution2: "'ordn' Ordinals lookup 18 subtable" J.ordn
Substitution2: "'subs' Subscript lookup 17 subtable" J.subs
EndChar

StartChar: K
Encoding: 302 75 46
Width: 681
GlyphClass: 2
Flags: W
AnchorPoint: "Anchor-2" 343 700 basechar 0
AnchorPoint: "Anchor-0" 326 -100 basechar 0
LayerCount: 2
Fore
SplineSet
172 651 m 1,0,-1
 269 653 l 2,1,2
 298 653 298 653 298 642 c 0,3,4
 298 628 298 628 264 622 c 128,-1,5
 230 616 230 616 220.5 600 c 128,-1,6
 211 584 211 584 211 551 c 2,7,-1
 211 364 l 2,8,9
 211 345 211 345 216 345 c 0,10,11
 227 345 227 345 243 363 c 1,12,-1
 443 567 l 2,13,14
 458 583 458 583 458 597 c 0,15,16
 458 615 458 615 439 620 c 0,17,18
 408 628 408 628 408 639.5 c 128,-1,19
 408 651 408 651 437 651 c 2,20,-1
 491 651 l 2,21,22
 603 651 603 651 646 655 c 1,23,-1
 653 655 l 2,24,25
 675 655 675 655 675 644 c 0,26,27
 675 630 675 630 642 624 c 0,28,29
 548 607 548 607 490 558 c 0,30,31
 394 477 394 477 298 371 c 0,32,33
 292 364 292 364 303 353 c 2,34,-1
 545 95 l 1,35,36
 580 56 580 56 597 44.5 c 128,-1,37
 614 33 614 33 651 25 c 128,-1,38
 688 17 688 17 688 6 c 128,-1,39
 688 -5 688 -5 659 -5 c 1,40,-1
 520 0 l 1,41,-1
 439 -1 l 2,42,43
 410 -1 410 -1 410 10 c 128,-1,44
 410 21 410 21 437 27 c 128,-1,45
 464 33 464 33 464.5 45.5 c 128,-1,46
 465 58 465 58 450 72 c 1,47,-1
 238 306 l 1,48,49
 221 323 221 323 215 323 c 0,50,51
 211 323 211 323 211 283 c 128,-1,52
 211 243 211 243 216 110 c 0,53,54
 219 35 219 35 280 24 c 0,55,56
 313 18 313 18 313 6.5 c 128,-1,57
 313 -5 313 -5 284 -5 c 128,-1,58
 255 -5 255 -5 229 -1.5 c 128,-1,59
 203 2 203 2 186 2 c 2,60,-1
 60 -5 l 1,61,62
 31 -5 31 -5 31 6.5 c 128,-1,63
 31 18 31 18 66.5 24.5 c 128,-1,64
 102 31 102 31 116.5 47.5 c 128,-1,65
 131 64 131 64 131 101 c 2,66,-1
 131 551 l 2,67,68
 131 585 131 585 116.5 600 c 128,-1,69
 102 615 102 615 66.5 621.5 c 128,-1,70
 31 628 31 628 31 642 c 0,71,72
 31 653 31 653 60 653 c 2,73,-1
 172 651 l 1,0,-1
EndSplineSet
Substitution2: "'c2sc' Capitals to Small Capitals lookup 30 subtable" K.sc
Substitution2: "'sups' Superscript lookup 20 subtable" K.sups
Substitution2: "'sinf' Scientific Inferiors lookup 19 subtable" K.sinf
Substitution2: "'ordn' Ordinals lookup 18 subtable" K.ordn
Substitution2: "'subs' Subscript lookup 17 subtable" K.subs
EndChar

StartChar: L
Encoding: 303 76 47
Width: 574
GlyphClass: 2
Flags: W
AnchorPoint: "Anchor-3" 181 8 basechar 0
AnchorPoint: "Anchor-2" 184 700 basechar 0
AnchorPoint: "Anchor-0" 302 -100 basechar 0
LayerCount: 2
Fore
SplineSet
177 650 m 1,0,-1
 303 653 l 2,1,2
 332 653 332 653 332 642 c 0,3,4
 332 628 332 628 303.5 623 c 128,-1,5
 275 618 275 618 263 615 c 0,6,7
 250 612 250 612 236 606 c 0,8,9
 210 595 210 595 210 567 c 2,10,-1
 210 96 l 2,11,12
 210 63 210 63 225 49 c 128,-1,13
 240 35 240 35 287 35 c 2,14,-1
 433 35 l 2,15,16
 439 35 439 35 458 43 c 0,17,18
 510 65 510 65 541 132 c 1,19,20
 552 162 552 162 563 162 c 0,21,22
 570 162 570 162 573 154 c 0,23,24
 575 149 575 149 575 144 c 0,25,26
 575 141 575 141 574 139 c 0,27,28
 551 53 551 53 547 12 c 0,29,30
 545 -5 545 -5 533 -5 c 2,31,-1
 190 0 l 1,32,-1
 55 -5 l 1,33,34
 27 -5 27 -5 27 6.5 c 128,-1,35
 27 18 27 18 49 24 c 1,36,37
 90 32 90 32 110 48 c 128,-1,38
 130 64 130 64 130 96 c 2,39,-1
 130 560 l 2,40,41
 130 595 130 595 119 605 c 128,-1,42
 108 615 108 615 72 621.5 c 128,-1,43
 36 628 36 628 36 642 c 0,44,45
 36 653 36 653 65 653 c 2,46,-1
 177 650 l 1,0,-1
EndSplineSet
Substitution2: "'c2sc' Capitals to Small Capitals lookup 30 subtable" L.sc
Substitution2: "'sups' Superscript lookup 20 subtable" L.sups
Substitution2: "'sinf' Scientific Inferiors lookup 19 subtable" L.sinf
Substitution2: "'ordn' Ordinals lookup 18 subtable" L.ordn
Substitution2: "'subs' Subscript lookup 17 subtable" L.subs
Substitution2: "'locl' Localized Forms in Latin lookup 3 subtable" L.CAT
EndChar

StartChar: M
Encoding: 304 77 48
Width: 901
GlyphClass: 2
Flags: W
AnchorPoint: "Anchor-2" 449 700 basechar 0
AnchorPoint: "Anchor-0" 406 -100 basechar 0
LayerCount: 2
Fore
SplineSet
65 655 m 1,0,-1
 231 647 l 2,1,2
 244 647 244 647 258 588 c 0,3,4
 264 562 264 562 267 554 c 2,5,-1
 425 153 l 2,6,7
 431 138 431 138 436.5 138 c 128,-1,8
 442 138 442 138 448 150 c 2,9,-1
 645 560 l 2,10,11
 651 573 651 573 655 596 c 0,12,13
 664 648 664 648 673 648 c 2,14,-1
 709 648 l 2,15,16
 733 648 733 648 773 652 c 128,-1,17
 813 656 813 656 820 656 c 2,18,-1
 823 656 l 2,19,20
 844 656 844 656 844 646 c 0,21,22
 844 632 844 632 818 624 c 2,23,-1
 780 611 l 2,24,25
 768 607 768 607 751.5 595 c 128,-1,26
 735 583 735 583 735 568 c 0,27,28
 735 433 735 433 745 284.5 c 128,-1,29
 755 136 755 136 756.5 100 c 128,-1,30
 758 64 758 64 776 47.5 c 128,-1,31
 794 31 794 31 829.5 24.5 c 128,-1,32
 865 18 865 18 865 6.5 c 128,-1,33
 865 -5 865 -5 836 -5 c 1,34,-1
 719 0 l 1,35,-1
 614 -5 l 1,36,37
 585 -5 585 -5 585 6 c 0,38,39
 585 20 585 20 616 24 c 128,-1,40
 647 28 647 28 658 44 c 128,-1,41
 669 60 669 60 669 96 c 0,42,43
 669 194 669 194 657 464 c 0,44,45
 657 480 657 480 652 480 c 0,46,47
 649 480 649 480 641 464 c 2,48,-1
 419 14 l 2,49,50
 408 -10 408 -10 402.5 -10 c 128,-1,51
 397 -10 397 -10 388 16 c 0,52,53
 332 184 332 184 209 471 c 0,54,55
 199 494 199 494 196 471 c 0,56,57
 164 236 164 236 164 101 c 0,58,59
 164 78 164 78 179 55 c 0,60,61
 195 30 195 30 228.5 24 c 128,-1,62
 262 18 262 18 262 6.5 c 128,-1,63
 262 -5 262 -5 233 -5 c 1,64,-1
 139 0 l 1,65,-1
 48 -5 l 1,66,67
 19 -5 19 -5 19 6.5 c 128,-1,68
 19 18 19 18 52 24 c 0,69,70
 103 33 103 33 114 102 c 1,71,72
 155 409 155 409 155 538 c 1,73,-1
 154 561 l 2,74,75
 154 575 154 575 143.5 587.5 c 128,-1,76
 133 600 133 600 125.5 605 c 128,-1,77
 118 610 118 610 107.5 613.5 c 128,-1,78
 97 617 97 617 90 619 c 128,-1,79
 83 621 83 621 71 623.5 c 128,-1,80
 59 626 59 626 56 627 c 0,81,82
 42 632 42 632 42 643.5 c 128,-1,83
 42 655 42 655 65 655 c 1,0,-1
EndSplineSet
Substitution2: "'c2sc' Capitals to Small Capitals lookup 30 subtable" M.sc
Substitution2: "'sups' Superscript lookup 20 subtable" M.sups
Substitution2: "'sinf' Scientific Inferiors lookup 19 subtable" M.sinf
Substitution2: "'ordn' Ordinals lookup 18 subtable" M.ordn
Substitution2: "'subs' Subscript lookup 17 subtable" M.subs
EndChar

StartChar: N
Encoding: 305 78 49
Width: 770
GlyphClass: 2
Flags: W
AnchorPoint: "Anchor-2" 380 700 basechar 0
AnchorPoint: "Anchor-0" 380 -100 basechar 0
LayerCount: 2
Fore
SplineSet
25 658 m 2,0,-1
 179 653 l 2,1,2
 190 653 190 653 203 635.5 c 128,-1,3
 216 618 216 618 390 398 c 1,4,-1
 584 156 l 2,5,6
 601 136 601 136 609.5 136 c 128,-1,7
 618 136 618 136 619 162 c 128,-1,8
 620 188 620 188 621 358 c 0,9,10
 621 443 621 443 621.5 494.5 c 128,-1,11
 622 546 622 546 621 564 c 128,-1,12
 620 582 620 582 600.5 599 c 128,-1,13
 581 616 581 616 555.5 620.5 c 128,-1,14
 530 625 530 625 530 639 c 0,15,16
 530 650 530 650 559 650 c 2,17,-1
 616 650 l 1,18,-1
 731 653 l 2,19,20
 760 653 760 653 760 642 c 0,21,22
 760 628 760 628 725 621.5 c 128,-1,23
 690 615 690 615 677.5 604 c 128,-1,24
 665 593 665 593 663.5 556.5 c 128,-1,25
 662 520 662 520 662 8 c 0,26,27
 662 -17 662 -17 641 -17 c 0,28,29
 630 -17 630 -17 606 -0.5 c 128,-1,30
 582 16 582 16 557.5 49.5 c 128,-1,31
 533 83 533 83 204 484 c 0,32,33
 191 500 191 500 182.5 500 c 128,-1,34
 174 500 174 500 174 479 c 0,35,36
 169 232 169 232 169 104 c 0,37,38
 169 36 169 36 233 24 c 0,39,40
 266 18 266 18 266 6.5 c 128,-1,41
 266 -5 266 -5 237 -5 c 1,42,-1
 143 0 l 1,43,-1
 52 -5 l 1,44,45
 23 -5 23 -5 23 6.5 c 128,-1,46
 23 18 23 18 51.5 23.5 c 128,-1,47
 80 29 80 29 96 58.5 c 128,-1,48
 112 88 112 88 114 107 c 0,49,50
 132 254 132 254 132 508 c 0,51,52
 132 556 132 556 108 580 c 128,-1,53
 84 604 84 604 33 620 c 0,54,55
 2 630 2 630 2 644 c 128,-1,56
 2 658 2 658 25 658 c 2,0,-1
EndSplineSet
Substitution2: "'c2sc' Capitals to Small Capitals lookup 30 subtable" N.sc
Substitution2: "'sups' Superscript lookup 20 subtable" N.sups
Substitution2: "'sinf' Scientific Inferiors lookup 19 subtable" N.sinf
Substitution2: "'ordn' Ordinals lookup 18 subtable" N.ordn
Substitution2: "'subs' Subscript lookup 17 subtable" N.subs
EndChar

StartChar: O
Encoding: 306 79 50
Width: 763
GlyphClass: 2
Flags: W
AnchorPoint: "Anchor-3" 412 8 basechar 0
AnchorPoint: "Anchor-2" 342 700 basechar 0
AnchorPoint: "Anchor-0" 370 -100 basechar 0
LayerCount: 2
Fore
SplineSet
557 538 m 128,-1,1
 493 625 493 625 381 625 c 128,-1,2
 269 625 269 625 205.5 543 c 128,-1,3
 142 461 142 461 142 339.5 c 128,-1,4
 142 218 142 218 214.5 121.5 c 128,-1,5
 287 25 287 25 396 25 c 128,-1,6
 505 25 505 25 563 99.5 c 128,-1,7
 621 174 621 174 621 312.5 c 128,-1,0
 621 451 621 451 557 538 c 128,-1,1
45 320 m 0,8,9
 45 413 45 413 83.5 489.5 c 128,-1,10
 122 566 122 566 202 615 c 128,-1,11
 282 664 282 664 390 664 c 0,12,13
 524 664 524 664 621 571.5 c 128,-1,14
 718 479 718 479 718 335 c 0,15,16
 718 194 718 194 632 93 c 0,17,18
 590 44 590 44 525.5 15 c 128,-1,19
 461 -14 461 -14 382 -14 c 0,20,21
 247 -14 247 -14 146 83 c 128,-1,22
 45 180 45 180 45 320 c 0,8,9
EndSplineSet
Substitution2: "'c2sc' Capitals to Small Capitals lookup 30 subtable" O.sc
Substitution2: "'sups' Superscript lookup 20 subtable" O.sups
Substitution2: "'sinf' Scientific Inferiors lookup 19 subtable" O.sinf
Substitution2: "'ordn' Ordinals lookup 18 subtable" O.ordn
Substitution2: "'subs' Subscript lookup 17 subtable" O.subs
EndChar

StartChar: P
Encoding: 307 80 51
Width: 552
GlyphClass: 2
Flags: W
AnchorPoint: "Anchor-2" 281 700 basechar 0
AnchorPoint: "Anchor-0" 165 -100 basechar 0
LayerCount: 2
Fore
SplineSet
163 652 m 1,0,-1
 274 657 l 1,1,2
 390 657 390 657 463.5 607 c 128,-1,3
 537 557 537 557 537 460 c 0,4,5
 537 424 537 424 515.5 376 c 128,-1,6
 494 328 494 328 463 304 c 0,7,8
 399 254 399 254 308 254 c 0,9,10
 291 254 291 254 276 257 c 0,11,12
 252 262 252 262 260 274 c 0,13,14
 264 280 264 280 272 280 c 2,15,-1
 274 280 l 1,16,17
 281 279 281 279 294 279 c 0,18,19
 349 279 349 279 386 307 c 0,20,21
 449 356 449 356 449 474 c 1,22,23
 450 549 450 549 396 589 c 0,24,25
 342 630 342 630 276 630 c 128,-1,26
 210 630 210 630 210 588 c 2,27,-1
 210 111 l 2,28,29
 210 36 210 36 277 24 c 0,30,31
 310 18 310 18 310 6.5 c 128,-1,32
 310 -5 310 -5 281 -5 c 128,-1,33
 252 -5 252 -5 226 -1.5 c 128,-1,34
 200 2 200 2 183 2 c 2,35,-1
 53 -5 l 1,36,37
 24 -5 24 -5 24 6.5 c 128,-1,38
 24 18 24 18 60 24.5 c 128,-1,39
 96 31 96 31 113 47.5 c 128,-1,40
 130 64 130 64 130 100 c 2,41,-1
 130 522 l 2,42,43
 130 570 130 570 117.5 593 c 128,-1,44
 105 616 105 616 70.5 622 c 128,-1,45
 36 628 36 628 36 642 c 0,46,47
 36 653 36 653 65 653 c 2,48,-1
 163 652 l 1,0,-1
EndSplineSet
Substitution2: "'c2sc' Capitals to Small Capitals lookup 30 subtable" P.sc
Substitution2: "'sups' Superscript lookup 20 subtable" P.sups
Substitution2: "'sinf' Scientific Inferiors lookup 19 subtable" P.sinf
Substitution2: "'ordn' Ordinals lookup 18 subtable" P.ordn
Substitution2: "'subs' Subscript lookup 17 subtable" P.subs
EndChar

StartChar: Q
Encoding: 308 81 52
Width: 806
GlyphClass: 2
Flags: W
AnchorPoint: "Anchor-2" 405 700 basechar 0
LayerCount: 2
Fore
SplineSet
584 534.5 m 128,-1,1
 502 626 502 626 389 626 c 128,-1,2
 276 626 276 626 207 544 c 0,3,4
 139 463 139 463 139 355 c 0,5,6
 138 220 138 220 224 116 c 1,7,8
 308 12 308 12 430 12 c 0,9,10
 502 12 502 12 557.5 61.5 c 128,-1,11
 613 111 613 111 639.5 181 c 128,-1,12
 666 251 666 251 666 324 c 0,13,0
 666 443 666 443 584 534.5 c 128,-1,1
373 -54 m 0,14,15
 358 -42 358 -42 314.5 -17.5 c 128,-1,16
 271 7 271 7 250 12.5 c 128,-1,17
 229 18 229 18 193.5 42 c 128,-1,18
 158 66 158 66 124 103 c 128,-1,19
 90 140 90 140 67.5 194 c 128,-1,20
 45 248 45 248 45 307 c 0,21,22
 45 457 45 457 146.5 559.5 c 128,-1,23
 248 662 248 662 402 662 c 0,24,25
 492 662 492 662 572.5 627.5 c 128,-1,26
 653 593 653 593 707 520 c 128,-1,27
 761 447 761 447 761 350 c 0,28,29
 761 282 761 282 742.5 225.5 c 128,-1,30
 724 169 724 169 700 134.5 c 128,-1,31
 676 100 676 100 638.5 70 c 128,-1,32
 601 40 601 40 577 28 c 1,33,34
 554 15 554 15 522 1 c 0,35,36
 500 -9 500 -9 500 -19 c 0,37,38
 500 -24 500 -24 504 -28 c 0,39,40
 545 -72 545 -72 610.5 -119 c 128,-1,41
 676 -166 676 -166 710.5 -179 c 128,-1,42
 745 -192 745 -192 793.5 -192 c 128,-1,43
 842 -192 842 -192 856 -186.5 c 128,-1,44
 870 -181 870 -181 879 -181 c 128,-1,45
 888 -181 888 -181 888 -192.5 c 128,-1,46
 888 -204 888 -204 870 -215 c 0,47,48
 813 -248 813 -248 753 -248 c 0,49,50
 635 -248 635 -248 531 -173 c 0,51,52
 459 -122 459 -122 373 -54 c 0,14,15
EndSplineSet
Substitution2: "Single Substitution lookup 35 subtable" Q.long
Substitution2: "Single Substitution lookup 34 subtable" Q.long
Substitution2: "'c2sc' Capitals to Small Capitals lookup 30 subtable" Q.sc
Substitution2: "'sups' Superscript lookup 20 subtable" Q.sups
Substitution2: "'sinf' Scientific Inferiors lookup 19 subtable" Q.sinf
Substitution2: "'ordn' Ordinals lookup 18 subtable" Q.ordn
Substitution2: "'subs' Subscript lookup 17 subtable" Q.subs
EndChar

StartChar: R
Encoding: 309 82 53
Width: 689
GlyphClass: 2
Flags: W
AnchorPoint: "Anchor-2" 278 700 basechar 0
AnchorPoint: "Anchor-0" 337 -100 basechar 0
LayerCount: 2
Fore
SplineSet
210 362 m 0,0,1
 210 342 210 342 221 336 c 0,2,3
 233 330 233 330 263 329 c 1,4,5
 324 329 324 329 367 368 c 1,6,7
 412 411 412 411 412 489 c 0,8,9
 412 539 412 539 388 579 c 0,10,11
 359 627 359 627 278 627 c 0,12,13
 240 627 240 627 228 613 c 256,14,15
 216 599 216 599 214 562 c 0,16,17
 210 473 210 473 210 362 c 0,0,1
163 652 m 1,18,-1
 278 657 l 1,19,20
 387 657 387 657 444.5 614 c 128,-1,21
 502 571 502 571 502 489 c 0,22,23
 502 459 502 459 487 426 c 128,-1,24
 472 393 472 393 458 379 c 0,25,26
 410 334 410 334 385 321 c 0,27,28
 380 319 380 319 384 313 c 0,29,30
 446 220 446 220 454 210 c 2,31,-1
 474 182 l 2,32,33
 486 164 486 164 494 156 c 2,34,-1
 514 133 l 2,35,36
 526 118 526 118 536 108 c 2,37,-1
 588 58 l 1,38,39
 613 36 613 36 637 30.5 c 128,-1,40
 661 25 661 25 703 25 c 0,41,42
 718 25 718 25 718 14 c 0,43,44
 718 -5 718 -5 691.5 -13 c 128,-1,45
 665 -21 665 -21 637 -21 c 0,46,47
 543 -21 543 -21 499 33 c 2,48,-1
 442 102 l 2,49,50
 414 137 414 137 391 173 c 2,51,-1
 347 241 l 1,52,53
 317 291 317 291 225 302 c 0,54,55
 210 304 210 304 210 282 c 2,56,-1
 210 110 l 2,57,58
 210 36 210 36 277 24 c 0,59,60
 310 18 310 18 310 6.5 c 128,-1,61
 310 -5 310 -5 281 -5 c 128,-1,62
 252 -5 252 -5 226 -1.5 c 128,-1,63
 200 2 200 2 183 2 c 2,64,-1
 53 -5 l 1,65,66
 24 -5 24 -5 24 6.5 c 128,-1,67
 24 18 24 18 60 24.5 c 128,-1,68
 96 31 96 31 113 47.5 c 128,-1,69
 130 64 130 64 130 100 c 2,70,-1
 130 522 l 2,71,72
 130 570 130 570 117.5 593 c 128,-1,73
 105 616 105 616 70.5 622 c 128,-1,74
 36 628 36 628 36 642 c 0,75,76
 36 653 36 653 65 653 c 2,77,-1
 163 652 l 1,18,-1
EndSplineSet
Substitution2: "'c2sc' Capitals to Small Capitals lookup 30 subtable" R.sc
Substitution2: "'sups' Superscript lookup 20 subtable" R.sups
Substitution2: "'sinf' Scientific Inferiors lookup 19 subtable" R.sinf
Substitution2: "'ordn' Ordinals lookup 18 subtable" R.ordn
Substitution2: "'subs' Subscript lookup 17 subtable" R.subs
EndChar

StartChar: S
Encoding: 310 83 54
Width: 465
GlyphClass: 2
Flags: W
AnchorPoint: "Anchor-3" 265 8 basechar 0
AnchorPoint: "Anchor-2" 240 700 basechar 0
AnchorPoint: "Anchor-0" 225 -100 basechar 0
LayerCount: 2
Fore
SplineSet
92 103 m 0,0,1
 120 17 120 17 226 17 c 0,2,3
 276 17 276 17 307 53.5 c 128,-1,4
 338 90 338 90 338 140 c 128,-1,5
 338 190 338 190 301 230 c 128,-1,6
 264 270 264 270 198 314.5 c 128,-1,7
 132 359 132 359 99 400.5 c 128,-1,8
 66 442 66 442 66 503.5 c 128,-1,9
 66 565 66 565 123 614.5 c 128,-1,10
 180 664 180 664 267 664 c 0,11,12
 317 664 317 664 350 654 c 128,-1,13
 383 644 383 644 386 644 c 0,14,15
 398 644 398 644 403 621 c 0,16,17
 413 572 413 572 413 545 c 0,18,19
 413 541 413 541 413 538 c 0,20,21
 411 512 411 512 405 512 c 0,22,23
 376 512 376 512 370 540 c 1,24,25
 363 583 363 583 332 607 c 128,-1,26
 301 631 301 631 255.5 631 c 128,-1,27
 210 631 210 631 176.5 601.5 c 128,-1,28
 143 572 143 572 143 523 c 0,29,30
 143 494 143 494 168 461.5 c 128,-1,31
 193 429 193 429 216.5 411.5 c 128,-1,32
 240 394 240 394 273 373 c 128,-1,33
 306 352 306 352 324 338 c 0,34,35
 343 324 343 324 369 298 c 0,36,37
 422 246 422 246 422 173 c 0,38,39
 422 108 422 108 374 49 c 0,40,41
 350 20 350 20 308.5 2 c 128,-1,42
 267 -16 267 -16 199 -16 c 128,-1,43
 131 -16 131 -16 80 8 c 0,44,45
 63 16 63 16 59 25 c 0,46,47
 41 62 41 62 41 141 c 0,48,49
 41 148 41 148 47 158 c 0,50,51
 54 170 54 170 62.5 169.5 c 128,-1,52
 71 169 71 169 92 103 c 0,0,1
EndSplineSet
Substitution2: "'c2sc' Capitals to Small Capitals lookup 30 subtable" S.sc
Substitution2: "'sups' Superscript lookup 20 subtable" S.sups
Substitution2: "'sinf' Scientific Inferiors lookup 19 subtable" S.sinf
Substitution2: "'ordn' Ordinals lookup 18 subtable" S.ordn
Substitution2: "'subs' Subscript lookup 17 subtable" S.subs
EndChar

StartChar: T
Encoding: 311 84 55
Width: 670
GlyphClass: 2
Flags: W
AnchorPoint: "Anchor-3" 356 18 basechar 0
AnchorPoint: "Anchor-2" 341 700 basechar 0
AnchorPoint: "Anchor-0" 334 -100 basechar 0
LayerCount: 2
Fore
SplineSet
342 0 m 1,0,-1
 214 -5 l 1,1,2
 185 -5 185 -5 185 6.5 c 128,-1,3
 185 18 185 18 221 24 c 0,4,5
 296 38 296 38 296 102 c 2,6,-1
 296 557 l 2,7,8
 296 597 296 597 278 600 c 0,9,10
 259 604 259 604 204 604 c 2,11,-1
 157 604 l 2,12,13
 131 604 131 604 108 594 c 128,-1,14
 85 584 85 584 77 568.5 c 128,-1,15
 69 553 69 553 56.5 540 c 128,-1,16
 44 527 44 527 34 527 c 0,17,18
 27 527 27 527 27 538.5 c 128,-1,19
 27 550 27 550 32 560 c 0,20,21
 54 606 54 606 63 671 c 0,22,23
 66 694 66 694 80 694 c 0,24,25
 88 694 88 694 105 662 c 0,26,27
 116 642 116 642 175 642 c 2,28,-1
 556 642 l 2,29,30
 594 642 594 642 614 656 c 0,31,32
 622 661 622 661 632 671 c 0,33,34
 654 692 654 692 664 692 c 0,35,36
 668 692 668 692 670 680 c 0,37,38
 671 674 671 674 671 669 c 128,-1,39
 671 664 671 664 670 660 c 0,40,41
 653 591 653 591 653 567 c 1,42,-1
 654 553 l 2,43,44
 654 540 654 540 650 530 c 0,45,46
 646 518 646 518 638 517 c 1,47,48
 627 517 627 517 619 558 c 0,49,50
 611 604 611 604 519.5 604 c 128,-1,51
 428 604 428 604 392 600 c 0,52,53
 376 598 376 598 376 557 c 2,54,-1
 376 102 l 2,55,56
 376 38 376 38 455 24 c 0,57,58
 488 18 488 18 488 6.5 c 128,-1,59
 488 -5 488 -5 459 -5 c 1,60,-1
 342 0 l 1,0,-1
EndSplineSet
Substitution2: "'c2sc' Capitals to Small Capitals lookup 30 subtable" T.sc
Substitution2: "'sups' Superscript lookup 20 subtable" T.sups
Substitution2: "'sinf' Scientific Inferiors lookup 19 subtable" T.sinf
Substitution2: "'ordn' Ordinals lookup 18 subtable" T.ordn
Substitution2: "'subs' Subscript lookup 17 subtable" T.subs
EndChar

StartChar: U
Encoding: 312 85 56
Width: 738
GlyphClass: 2
Flags: W
AnchorPoint: "Anchor-2" 383 700 basechar 0
AnchorPoint: "Anchor-1" 463 18 basechar 0
AnchorPoint: "Anchor-0" 380 -100 basechar 0
LayerCount: 2
Fore
SplineSet
618 650 m 1,0,-1
 699 653 l 1,1,2
 728 653 728 653 728 642 c 0,3,4
 728 629 728 629 695 622 c 0,5,6
 648 613 648 613 645 547 c 0,7,8
 644 531 644 531 635 254 c 0,9,10
 631 137 631 137 559.5 61.5 c 128,-1,11
 488 -14 488 -14 380 -14 c 0,12,13
 242 -14 242 -14 172.5 77.5 c 128,-1,14
 103 169 103 169 103 322 c 2,15,-1
 103 547 l 2,16,17
 103 607 103 607 57 620 c 0,18,19
 24 629 24 629 24 642 c 0,20,21
 24 653 24 653 53 653 c 2,22,-1
 149 650 l 1,23,-1
 229 652 l 2,24,25
 258 652 258 652 258 641 c 0,26,27
 258 632 258 632 225 621 c 0,28,29
 211 617 211 617 197 596.5 c 128,-1,30
 183 576 183 576 183 549 c 2,31,-1
 183 294 l 2,32,33
 183 191 183 191 245 113.5 c 128,-1,34
 307 36 307 36 401.5 36 c 128,-1,35
 496 36 496 36 544 107.5 c 128,-1,36
 592 179 592 179 592 300 c 0,37,38
 592 357 592 357 588 511 c 0,39,40
 586 609 586 609 547 620 c 0,41,42
 514 629 514 629 514 640 c 128,-1,43
 514 651 514 651 543 651 c 2,44,-1
 618 650 l 1,0,-1
EndSplineSet
Substitution2: "'c2sc' Capitals to Small Capitals lookup 30 subtable" U.sc
Substitution2: "'sups' Superscript lookup 20 subtable" U.sups
Substitution2: "'sinf' Scientific Inferiors lookup 19 subtable" U.sinf
Substitution2: "'ordn' Ordinals lookup 18 subtable" U.ordn
Substitution2: "'subs' Subscript lookup 17 subtable" U.subs
Substitution2: "'locl' Localized Forms in Latin lookup 5 subtable" U.LAT
EndChar

StartChar: V
Encoding: 313 86 57
Width: 672
GlyphClass: 2
Flags: W
AnchorPoint: "Anchor-2" 323 700 basechar 0
AnchorPoint: "Anchor-0" 297 -100 basechar 0
LayerCount: 2
Fore
SplineSet
436 651 m 2,0,-1
 535 650 l 1,1,-1
 649 653 l 2,2,3
 678 653 678 653 678 642 c 0,4,5
 678 629 678 629 645 621.5 c 128,-1,6
 612 614 612 614 583 583 c 128,-1,7
 554 552 554 552 541 520 c 2,8,-1
 351 60 l 2,9,10
 321 -15 321 -15 316 -15 c 0,11,12
 314 -15 314 -15 286 56 c 1,13,-1
 112 522 l 2,14,15
 81 606 81 606 33 620 c 0,16,17
 0 630 0 630 0 641.5 c 128,-1,18
 0 653 0 653 29 653 c 2,19,-1
 151 650 l 1,20,-1
 253 652 l 2,21,22
 282 652 282 652 282 641 c 128,-1,23
 282 630 282 630 250.5 622 c 128,-1,24
 219 614 219 614 205 582 c 0,25,26
 198 567 198 567 198 548 c 0,27,28
 198 528 198 528 206 504 c 2,29,-1
 322 197 l 2,30,31
 332 169 332 169 340 169 c 0,32,33
 346 169 346 169 358 197 c 2,34,-1
 489 521 l 2,35,36
 493 531 493 531 493 542 c 0,37,38
 494 560 494 560 482 581 c 0,39,40
 464 613 464 613 440 620 c 0,41,42
 407 629 407 629 407 640 c 128,-1,43
 407 651 407 651 436 651 c 2,0,-1
EndSplineSet
Substitution2: "'c2sc' Capitals to Small Capitals lookup 30 subtable" V.sc
Substitution2: "'sups' Superscript lookup 20 subtable" V.sups
Substitution2: "'sinf' Scientific Inferiors lookup 19 subtable" V.sinf
Substitution2: "'ordn' Ordinals lookup 18 subtable" V.ordn
Substitution2: "'subs' Subscript lookup 17 subtable" V.subs
EndChar

StartChar: W
Encoding: 314 87 58
Width: 916
GlyphClass: 2
Flags: W
AnchorPoint: "Anchor-2" 481 700 basechar 0
AnchorPoint: "Anchor-0" 454 -100 basechar 0
LayerCount: 2
Fore
SplineSet
118 650 m 1,0,-1
 211 652 l 2,1,2
 240 652 240 652 240 641 c 128,-1,3
 240 630 240 630 207 621 c 0,4,5
 191 617 191 617 188 598 c 0,6,7
 187 591 187 591 187 584 c 0,8,9
 187 573 187 573 190 562 c 2,10,-1
 195 545 l 1,11,12
 272 348 272 348 359 152 c 0,13,14
 368 133 368 133 374 151 c 1,15,-1
 452 344 l 1,16,17
 458 362 458 362 457.5 369.5 c 128,-1,18
 457 377 457 377 450 396 c 2,19,-1
 393 538 l 2,20,21
 381 568 381 568 354 590 c 128,-1,22
 327 612 327 612 296 621 c 128,-1,23
 265 630 265 630 265 641.5 c 128,-1,24
 265 653 265 653 294 653 c 2,25,-1
 388 650 l 1,26,-1
 465 652 l 2,27,28
 494 652 494 652 494 641 c 0,29,30
 494 634 494 634 482 627.5 c 128,-1,31
 470 621 470 621 460 612.5 c 128,-1,32
 450 604 450 604 455 591 c 0,33,34
 475 530 475 530 490.5 497.5 c 128,-1,35
 506 465 506 465 509 465 c 128,-1,36
 512 465 512 465 525 494 c 128,-1,37
 538 523 538 523 558 591 c 0,38,39
 559 595 559 595 559 599 c 0,40,41
 559 612 559 612 543 620 c 1,42,43
 522 629 522 629 522 640.5 c 128,-1,44
 522 652 522 652 551 652 c 1,45,-1
 603 650 l 1,46,-1
 662 653 l 1,47,48
 691 653 691 653 691 642 c 0,49,50
 691 629 691 629 659.5 622 c 128,-1,51
 628 615 628 615 616 606 c 128,-1,52
 604 597 604 597 587 568 c 128,-1,53
 570 539 570 539 537 451 c 0,54,55
 530 432 530 432 530 421 c 0,56,57
 530 417 530 417 531 413 c 2,58,-1
 634 148 l 2,59,60
 638 138 638 138 645 154 c 0,61,62
 683 255 683 255 767 541 c 0,63,64
 773 561 773 561 773 576 c 0,65,66
 773 611 773 611 743 620 c 0,67,68
 710 629 710 629 710 640 c 128,-1,69
 710 651 710 651 739 651 c 2,70,-1
 811 650 l 1,71,-1
 901 653 l 2,72,73
 930 653 930 653 930 642 c 0,74,75
 930 629 930 629 897 622 c 0,76,77
 844 610 844 610 815 534 c 1,78,-1
 654 58 l 1,79,80
 629 -12 629 -12 622 -12 c 0,81,82
 613 -12 613 -12 605 7 c 0,83,84
 574 77 574 77 533 184 c 2,85,-1
 482 316 l 1,86,87
 477 326 477 326 471 310 c 0,88,89
 415 179 415 179 357 15 c 0,90,91
 346 -16 346 -16 335 -16 c 0,92,93
 332 -16 332 -16 321 12 c 2,94,-1
 105 554 l 1,95,96
 81 606 81 606 33 620 c 0,97,98
 0 630 0 630 0 641.5 c 128,-1,99
 0 653 0 653 29 653 c 2,100,-1
 118 650 l 1,0,-1
EndSplineSet
Substitution2: "'c2sc' Capitals to Small Capitals lookup 30 subtable" W.sc
Substitution2: "'sups' Superscript lookup 20 subtable" W.sups
Substitution2: "'sinf' Scientific Inferiors lookup 19 subtable" W.sinf
Substitution2: "'ordn' Ordinals lookup 18 subtable" W.ordn
Substitution2: "'subs' Subscript lookup 17 subtable" W.subs
EndChar

StartChar: X
Encoding: 315 88 59
Width: 707
GlyphClass: 2
Flags: W
AnchorPoint: "Anchor-2" 343 700 basechar 0
AnchorPoint: "Anchor-0" 326 -100 basechar 0
LayerCount: 2
Fore
SplineSet
472 651 m 2,0,-1
 553 650 l 1,1,-1
 667 656 l 1,2,3
 696 656 696 656 696 645 c 128,-1,4
 696 634 696 634 663 625 c 0,5,6
 621 614 621 614 533 510 c 2,7,-1
 418 374 l 2,8,9
 401 355 401 355 401 343 c 0,10,11
 401 338 401 338 404 334 c 2,12,-1
 559 111 l 2,13,14
 606 42 606 42 666 26 c 0,15,16
 699 17 699 17 699 6 c 128,-1,17
 699 -5 699 -5 670 -5 c 1,18,-1
 527 1 l 1,19,-1
 424 0 l 2,20,21
 395 0 395 0 395 11 c 128,-1,22
 395 22 395 22 419.5 29 c 128,-1,23
 444 36 444 36 456 46 c 0,24,25
 468 55 468 55 472 72 c 0,26,27
 473 76 473 76 472 80 c 1,28,29
 472 94 472 94 460 111 c 2,30,-1
 356 262 l 2,31,32
 344 279 344 279 334 267 c 2,33,-1
 199 93 l 2,34,35
 190 80 190 80 190 69 c 0,36,37
 190 61 190 61 195 54 c 0,38,39
 206 37 206 37 237 29 c 128,-1,40
 268 21 268 21 268 10 c 128,-1,41
 268 -1 268 -1 239 -1 c 2,42,-1
 150 1 l 1,43,-1
 24 -5 l 1,44,45
 -5 -5 -5 -5 -5 6.5 c 128,-1,46
 -5 18 -5 18 27 27.5 c 128,-1,47
 59 37 59 37 101 63 c 128,-1,48
 143 89 143 89 171 124 c 2,49,-1
 296 280 l 1,50,51
 314 306 314 306 314 318 c 0,52,53
 314 322 314 322 312 325 c 2,54,-1
 167 529 l 2,55,56
 142 563 142 563 109.5 588.5 c 128,-1,57
 77 614 77 614 47.5 623 c 128,-1,58
 18 632 18 632 18 643.5 c 128,-1,59
 18 655 18 655 47 655 c 1,60,-1
 190 650 l 1,61,-1
 289 652 l 2,62,63
 318 652 318 652 318 641.5 c 128,-1,64
 318 631 318 631 286 621.5 c 128,-1,65
 254 612 254 612 244 602 c 128,-1,66
 234 592 234 592 239.5 576 c 128,-1,67
 245 560 245 560 267 528 c 2,68,-1
 358 400 l 2,69,70
 368 385 368 385 373.5 385 c 128,-1,71
 379 385 379 385 388 397 c 2,72,-1
 495 538 l 1,73,74
 521 568 521 568 521 588 c 0,75,76
 521 611 521 611 481 619 c 0,77,78
 443 627 443 627 443 640 c 0,79,80
 443 651 443 651 472 651 c 2,0,-1
EndSplineSet
Substitution2: "'c2sc' Capitals to Small Capitals lookup 30 subtable" X.sc
Substitution2: "'sups' Superscript lookup 20 subtable" X.sups
Substitution2: "'sinf' Scientific Inferiors lookup 19 subtable" X.sinf
Substitution2: "'ordn' Ordinals lookup 18 subtable" X.ordn
Substitution2: "'subs' Subscript lookup 17 subtable" X.subs
EndChar

StartChar: Y
Encoding: 316 89 60
Width: 578
GlyphClass: 2
Flags: W
AnchorPoint: "Anchor-2" 315 700 basechar 0
AnchorPoint: "Anchor-0" 302 -100 basechar 0
LayerCount: 2
Fore
SplineSet
310 0 m 1,0,-1
 182 -5 l 1,1,2
 153 -5 153 -5 153 6.5 c 128,-1,3
 153 18 153 18 186 24 c 0,4,5
 264 38 264 38 264 108 c 2,6,-1
 264 256 l 2,7,8
 264 292 264 292 243 323 c 0,9,10
 239 329 239 329 239 330 c 2,11,-1
 122 522 l 1,12,13
 67 610 67 610 33.5 620 c 128,-1,14
 0 630 0 630 0 641.5 c 128,-1,15
 0 653 0 653 29 653 c 2,16,-1
 146 650 l 1,17,18
 146 650 146 650 226 652 c 0,19,20
 255 652 255 652 255 641 c 0,21,22
 255 632 255 632 233.5 625 c 128,-1,23
 212 618 212 618 205 612 c 128,-1,24
 198 606 198 606 194 592 c 0,25,26
 193 589 193 589 193 586 c 0,27,28
 193 575 193 575 203 560 c 1,29,-1
 295 395 l 2,30,31
 317 357 317 357 323 357 c 0,32,33
 330 357 330 357 335.5 366 c 128,-1,34
 341 375 341 375 346.5 382 c 128,-1,35
 352 389 352 389 356 395 c 0,36,37
 414 476 414 476 440 534 c 0,38,39
 448 550 448 550 448 567 c 0,40,41
 448 577 448 577 445 587 c 0,42,43
 438 614 438 614 417 620 c 0,44,45
 384 629 384 629 384 640 c 128,-1,46
 384 651 384 651 413 651 c 2,47,-1
 488 650 l 1,48,-1
 584 653 l 2,49,50
 613 653 613 653 613 642 c 0,51,52
 613 629 613 629 576.5 621.5 c 128,-1,53
 540 614 540 614 480 526 c 1,54,55
 427 445 427 445 389 380 c 128,-1,56
 351 315 351 315 347.5 301 c 128,-1,57
 344 287 344 287 344 256 c 2,58,-1
 344 108 l 2,59,60
 344 74 344 74 364.5 52.5 c 128,-1,61
 385 31 385 31 420.5 24.5 c 128,-1,62
 456 18 456 18 456 6.5 c 128,-1,63
 456 -5 456 -5 427 -5 c 1,64,-1
 310 0 l 1,0,-1
EndSplineSet
Substitution2: "'c2sc' Capitals to Small Capitals lookup 30 subtable" Y.sc
Substitution2: "'sups' Superscript lookup 20 subtable" Y.sups
Substitution2: "'sinf' Scientific Inferiors lookup 19 subtable" Y.sinf
Substitution2: "'ordn' Ordinals lookup 18 subtable" Y.ordn
Substitution2: "'subs' Subscript lookup 17 subtable" Y.subs
EndChar

StartChar: Z
Encoding: 317 90 61
Width: 603
GlyphClass: 2
Flags: W
AnchorPoint: "Anchor-2" 335 700 basechar 0
AnchorPoint: "Anchor-0" 306 -100 basechar 0
LayerCount: 2
Fore
SplineSet
533 -5 m 2,0,-1
 231 -2 l 1,1,-1
 112 -3 l 1,2,-1
 35 -3 l 2,3,4
 30 -3 30 -3 28 11 c 1,5,6
 28 26 28 26 86 104 c 0,7,8
 321 425 321 425 428 588 c 0,9,10
 439 603 439 603 413 604 c 0,11,12
 341 606 341 606 265.5 606 c 128,-1,13
 190 606 190 606 163.5 604 c 128,-1,14
 137 602 137 602 111 585.5 c 128,-1,15
 85 569 85 569 72.5 536 c 128,-1,16
 60 503 60 503 44 503 c 0,17,18
 36 503 36 503 36 513 c 0,19,20
 36 522 36 522 43 541 c 0,21,22
 66 610 66 610 70 652 c 0,23,24
 71 669 71 669 85 669 c 0,25,26
 92 669 92 669 110 655 c 0,27,28
 121 647 121 647 178 646.5 c 128,-1,29
 235 646 235 646 341.5 646 c 128,-1,30
 448 646 448 646 559 649 c 0,31,32
 564 649 564 649 568.5 642 c 128,-1,33
 573 635 573 635 570 631 c 2,34,-1
 509 550 l 1,35,36
 293 259 293 259 171 70 c 0,37,38
 166 63 166 63 168.5 52.5 c 128,-1,39
 171 42 171 42 179 41 c 0,40,41
 227 36 227 36 291 36 c 128,-1,42
 355 36 355 36 436 42 c 128,-1,43
 517 48 517 48 557 142 c 0,44,45
 565 163 565 163 579 163 c 0,46,47
 588 163 588 163 588 152 c 128,-1,48
 588 141 588 141 573.5 85 c 128,-1,49
 559 29 559 29 550.5 12 c 128,-1,50
 542 -5 542 -5 533 -5 c 2,0,-1
EndSplineSet
Substitution2: "'c2sc' Capitals to Small Capitals lookup 30 subtable" Z.sc
Substitution2: "'sups' Superscript lookup 20 subtable" Z.sups
Substitution2: "'sinf' Scientific Inferiors lookup 19 subtable" Z.sinf
Substitution2: "'ordn' Ordinals lookup 18 subtable" Z.ordn
Substitution2: "'subs' Subscript lookup 17 subtable" Z.subs
EndChar

StartChar: bracketleft
Encoding: 318 91 62
Width: 373
GlyphClass: 2
Flags: W
LayerCount: 2
Fore
SplineSet
259 672 m 1,0,-1
 191 673 l 2,1,2
 180 673 180 673 173.5 664.5 c 128,-1,3
 167 656 167 656 167 644 c 0,4,5
 161 495 161 495 161 207 c 128,-1,6
 161 -81 161 -81 162 -116 c 128,-1,7
 163 -151 163 -151 168.5 -159 c 128,-1,8
 174 -167 174 -167 191 -167 c 0,9,10
 250 -167 250 -167 307 -172 c 0,11,12
 333 -174 333 -174 333 -190 c 0,13,14
 333 -203 333 -203 307 -203 c 2,15,-1
 143 -200 l 2,16,17
 124 -200 124 -200 118 -194.5 c 128,-1,18
 112 -189 112 -189 113 -170 c 2,19,-1
 117 542 l 1,20,21
 116 560 116 560 114 590 c 0,22,23
 112 612 112 612 113 628 c 0,24,25
 113 635 113 635 113 640 c 2,26,-1
 112 672 l 2,27,28
 112 702 112 702 137 702 c 2,29,-1
 150 702 l 1,30,-1
 315 701 l 2,31,32
 322 701 322 701 328 696.5 c 128,-1,33
 334 692 334 692 332 684 c 0,34,35
 328 672 328 672 259 672 c 1,0,-1
EndSplineSet
Substitution2: "'sups' Superscript lookup 20 subtable" bracketleft.sups
Substitution2: "'sinf' Scientific Inferiors lookup 19 subtable" bracketleft.sinf
Substitution2: "'ordn' Ordinals lookup 18 subtable" bracketleft.ordn
Substitution2: "'subs' Subscript lookup 17 subtable" bracketleft.subs
EndChar

StartChar: backslash
Encoding: 319 92 63
Width: 399
GlyphClass: 2
Flags: W
LayerCount: 2
Fore
SplineSet
378 -47 m 2,0,1
 379 -49 379 -49 379 -50 c 0,2,3
 378 -54 378 -54 374 -58 c 1,4,5
 368 -62 368 -62 362 -62 c 0,6,7
 332 -62 332 -62 326 -47 c 2,8,-1
 29 648 l 2,9,10
 28 650 28 650 28 652 c 0,11,12
 28 656 28 656 32 660 c 1,13,14
 36 666 36 666 42 665 c 1,15,16
 73 665 73 665 81 648 c 2,17,-1
 378 -47 l 2,0,1
EndSplineSet
Substitution2: "'sups' Superscript lookup 20 subtable" backslash.sups
Substitution2: "'sinf' Scientific Inferiors lookup 19 subtable" backslash.sinf
Substitution2: "'ordn' Ordinals lookup 18 subtable" backslash.ordn
Substitution2: "'subs' Subscript lookup 17 subtable" backslash.subs
EndChar

StartChar: bracketright
Encoding: 320 93 64
Width: 370
GlyphClass: 2
Flags: W
LayerCount: 2
Fore
SplineSet
182 673 m 2,0,-1
 113 672 l 2,1,2
 84 672 84 672 64 674 c 0,3,4
 42 676 42 676 40 684 c 0,5,6
 39 686 39 686 40 688 c 1,7,8
 40 692 40 692 44 696 c 1,9,10
 50 700 50 700 58 701 c 2,11,-1
 223 702 l 1,12,-1
 236 702 l 2,13,14
 254 702 254 702 258 686 c 0,15,16
 261 674 261 674 261 663 c 2,17,-1
 260 640 l 1,18,-1
 256 542 l 1,19,-1
 260 -170 l 2,20,21
 260 -189 260 -189 254.5 -194.5 c 128,-1,22
 249 -200 249 -200 230 -200 c 2,23,-1
 66 -203 l 2,24,25
 40 -203 40 -203 40 -190 c 0,26,27
 40 -174 40 -174 66 -172 c 0,28,29
 124 -167 124 -167 182 -167 c 0,30,31
 199 -167 199 -167 204.5 -159 c 128,-1,32
 210 -151 210 -151 211 -110 c 128,-1,33
 212 -69 212 -69 212 198 c 128,-1,34
 212 465 212 465 206 644 c 1,35,36
 204 673 204 673 182 673 c 2,0,-1
EndSplineSet
Substitution2: "'sups' Superscript lookup 20 subtable" bracketright.sups
Substitution2: "'sinf' Scientific Inferiors lookup 19 subtable" bracketright.sinf
Substitution2: "'ordn' Ordinals lookup 18 subtable" bracketright.ordn
Substitution2: "'subs' Subscript lookup 17 subtable" bracketright.subs
EndChar

StartChar: asciicircum
Encoding: 321 94 65
Width: 500
GlyphClass: 2
Flags: W
LayerCount: 2
Fore
SplineSet
250 603 m 1,0,1
 397 394 397 394 449 305 c 0,2,3
 452 300 452 300 452 296 c 0,4,5
 452 294 452 294 451 291 c 0,6,7
 449 284 449 284 443 284 c 2,8,-1
 441 284 l 1,9,10
 414 291 414 291 403 303.5 c 128,-1,11
 392 316 392 316 369 347 c 2,12,-1
 328 404 l 1,13,-1
 254 514 l 1,14,15
 248 521 248 521 244 514 c 0,16,17
 110 318 110 318 97 304 c 128,-1,18
 84 290 84 290 59 284 c 1,19,-1
 57 284 l 2,20,21
 51 284 51 284 49 291 c 0,22,23
 48 293 48 293 48 296 c 0,24,25
 48 301 48 301 51 305 c 0,26,27
 76 348 76 348 149 456 c 2,28,-1
 250 603 l 1,0,1
EndSplineSet
Substitution2: "'sups' Superscript lookup 20 subtable" asciicircum.sups
Substitution2: "'sinf' Scientific Inferiors lookup 19 subtable" asciicircum.sinf
Substitution2: "'ordn' Ordinals lookup 18 subtable" asciicircum.ordn
Substitution2: "'subs' Subscript lookup 17 subtable" asciicircum.subs
EndChar

StartChar: underscore
Encoding: 322 95 66
Width: 500
GlyphClass: 2
Flags: W
LayerCount: 2
Fore
SplineSet
24 -132 m 2,0,-1
 487 -132 l 2,1,2
 494 -132 494 -132 498 -136 c 0,3,4
 501 -139 501 -139 500 -143 c 0,5,6
 500 -146 500 -146 499 -150 c 0,7,8
 496 -158 496 -158 494 -164 c 0,9,10
 486 -182 486 -182 469 -182 c 2,11,-1
 14 -182 l 2,12,13
 9 -182 9 -182 4.5 -178 c 128,-1,14
 0 -174 0 -174 0 -166.5 c 128,-1,15
 0 -159 0 -159 6 -145.5 c 128,-1,16
 12 -132 12 -132 24 -132 c 2,0,-1
EndSplineSet
Substitution2: "'sups' Superscript lookup 20 subtable" underscore.sups
Substitution2: "'sinf' Scientific Inferiors lookup 19 subtable" underscore.sinf
Substitution2: "'ordn' Ordinals lookup 18 subtable" underscore.ordn
Substitution2: "'subs' Subscript lookup 17 subtable" underscore.subs
EndChar

StartChar: grave
Encoding: 323 96 67
Width: 279
GlyphClass: 2
Flags: W
LayerCount: 2
Fore
SplineSet
56 612 m 0,0,1
 40 628 40 628 40 637.5 c 128,-1,2
 40 647 40 647 51 655.5 c 128,-1,3
 62 664 62 664 75 664 c 0,4,5
 108 664 108 664 125 637 c 0,6,7
 147 601 147 601 182.5 536.5 c 128,-1,8
 218 472 218 472 218 460.5 c 128,-1,9
 218 449 218 449 206 449 c 128,-1,10
 194 449 194 449 178 471 c 0,11,12
 128 540 128 540 56 612 c 0,0,1
EndSplineSet
Substitution2: "'sups' Superscript lookup 20 subtable" grave.sups
Substitution2: "'sinf' Scientific Inferiors lookup 19 subtable" grave.sinf
Substitution2: "'ordn' Ordinals lookup 18 subtable" grave.ordn
Substitution2: "'subs' Subscript lookup 17 subtable" grave.subs
Substitution2: "'case' Case-Sensitive Forms lookup 8 subtable" grave.cap
EndChar

StartChar: a
Encoding: 324 97 68
Width: 399
GlyphClass: 2
Flags: W
AnchorPoint: "Anchor-2" 190 550 basechar 0
AnchorPoint: "Anchor-1" 341 18 basechar 0
AnchorPoint: "Anchor-0" 178 -100 basechar 0
LayerCount: 2
Fore
SplineSet
139 129 m 128,-1,1
 115 107 115 107 115 84 c 128,-1,2
 115 61 115 61 131 46.5 c 128,-1,3
 147 32 147 32 170 32 c 128,-1,4
 193 32 193 32 224 59 c 0,5,6
 236 69 236 69 236 99 c 1,7,-1
 238 148 l 2,8,9
 239 168 239 168 227 168 c 0,10,11
 225 168 225 168 215 166 c 0,12,0
 163 151 163 151 139 129 c 128,-1,1
368 6 m 256,13,14
 342 -14 342 -14 317.5 -14 c 128,-1,15
 293 -14 293 -14 276.5 -1 c 128,-1,16
 260 12 260 12 253 25 c 128,-1,17
 246 38 246 38 244 38 c 0,18,19
 240 38 240 38 226 25 c 128,-1,20
 212 12 212 12 184.5 -1 c 128,-1,21
 157 -14 157 -14 123.5 -14 c 128,-1,22
 90 -14 90 -14 62.5 11 c 128,-1,23
 35 36 35 36 35 65 c 0,24,25
 35 125 35 125 108 155 c 2,26,-1
 210 197 l 2,27,28
 229 205 229 205 233 211 c 128,-1,29
 237 217 237 217 238 237 c 2,30,-1
 240 299 l 2,31,32
 241 326 241 326 224.5 345.5 c 128,-1,33
 208 365 208 365 186 365 c 128,-1,34
 164 365 164 365 145 354.5 c 128,-1,35
 126 344 126 344 120 334 c 0,36,37
 116 327 116 327 116 312 c 1,38,-1
 117 300 l 1,39,40
 117 283 117 283 48 264 c 0,41,42
 44 263 44 263 42 266 c 0,43,44
 36 273 36 273 41 285 c 0,45,46
 53 320 53 320 81 344.5 c 128,-1,47
 109 369 109 369 151 391.5 c 128,-1,48
 193 414 193 414 228.5 414 c 128,-1,49
 264 414 264 414 288 387.5 c 128,-1,50
 312 361 312 361 311 325 c 2,51,-1
 306 109 l 2,52,53
 306 105 306 105 306 101 c 0,54,55
 306 32 306 32 342 32 c 0,56,57
 367 32 367 32 377 42 c 1,58,59
 387 50 387 50 393 46 c 0,60,61
 397 43 397 43 397 38 c 1,62,63
 396 36 396 36 396 34 c 0,64,65
 394 26 394 26 368 6 c 256,13,14
EndSplineSet
Substitution2: "'smcp' Lowercase to Small Capitals lookup 29 subtable" a.sc
Substitution2: "'sups' Superscript lookup 20 subtable" a.sups
Substitution2: "'sinf' Scientific Inferiors lookup 19 subtable" a.sinf
Substitution2: "'ordn' Ordinals lookup 18 subtable" a.ordn
Substitution2: "'subs' Subscript lookup 17 subtable" a.subs
EndChar

StartChar: b
Encoding: 325 98 69
Width: 515
GlyphClass: 2
Flags: W
AnchorPoint: "Anchor-0" 252 -100 basechar 0
LayerCount: 2
Fore
SplineSet
148 698 m 2,0,-1
 145 593 l 1,1,-1
 145 388 l 2,2,3
 145 356 145 356 154 355 c 1,4,5
 207 414 207 414 292 414 c 128,-1,6
 377 414 377 414 428.5 356.5 c 128,-1,7
 480 299 480 299 480 210.5 c 128,-1,8
 480 122 480 122 422 54 c 128,-1,9
 364 -14 364 -14 257 -14 c 0,10,11
 220 -14 220 -14 170.5 -0.5 c 128,-1,12
 121 13 121 13 114.5 13 c 128,-1,13
 108 13 108 13 92 0 c 0,14,15
 86 -4 86 -4 76.5 0 c 128,-1,16
 67 4 67 4 68 10 c 0,17,18
 75 61 75 61 75 105 c 2,19,-1
 75 566 l 2,20,21
 75 629 75 629 28 639 c 0,22,23
 20 640 20 640 20 653 c 0,24,25
 20 663 20 663 27 664 c 0,26,27
 62 672 62 672 97 686 c 2,28,-1
 141 704 l 1,29,-1
 142 705 l 1,30,31
 148 705 148 705 148 698 c 2,0,-1
186 49 m 128,-1,33
 227 17 227 17 282.5 17 c 128,-1,34
 338 17 338 17 371 66 c 0,35,36
 405 117 405 117 405 190 c 1,37,38
 404 260 404 260 368 316 c 0,39,40
 330 374 330 374 265 373 c 0,41,42
 241 373 241 373 211 364 c 128,-1,43
 181 355 181 355 166 338 c 0,44,45
 145 316 145 316 145 253 c 2,46,-1
 145 132 l 2,47,32
 145 81 145 81 186 49 c 128,-1,33
EndSplineSet
Substitution2: "'smcp' Lowercase to Small Capitals lookup 29 subtable" b.sc
Substitution2: "'sups' Superscript lookup 20 subtable" b.sups
Substitution2: "'sinf' Scientific Inferiors lookup 19 subtable" b.sinf
Substitution2: "'ordn' Ordinals lookup 18 subtable" b.ordn
Substitution2: "'subs' Subscript lookup 17 subtable" b.subs
EndChar

StartChar: c
Encoding: 326 99 70
Width: 377
GlyphClass: 2
Flags: W
AnchorPoint: "Anchor-3" 240 8 basechar 0
AnchorPoint: "Anchor-2" 208 550 basechar 0
AnchorPoint: "Anchor-0" 199 -100 basechar 0
LayerCount: 2
Fore
SplineSet
83.5 43.5 m 128,-1,1
 35 101 35 101 35 188 c 128,-1,2
 35 275 35 275 95.5 344 c 128,-1,3
 156 413 156 413 241.5 413 c 128,-1,4
 327 413 327 413 366 365 c 0,5,6
 370 359 370 359 370 353 c 0,7,8
 370 339 370 339 346 323 c 0,9,10
 341 319 341 319 329.5 319 c 128,-1,11
 318 319 318 319 308 329 c 0,12,13
 281 358 281 358 265 367 c 128,-1,14
 249 376 249 376 214 376 c 0,15,16
 162 376 162 376 133 331 c 128,-1,17
 104 286 104 286 104 218.5 c 128,-1,18
 104 151 104 151 148.5 94.5 c 128,-1,19
 193 38 193 38 263 38 c 0,20,21
 293 38 293 38 311.5 49.5 c 128,-1,22
 330 61 330 61 351 88 c 0,23,24
 356 93 356 93 360.5 93 c 128,-1,25
 365 93 365 93 369 88 c 0,26,27
 372 84 372 84 372 79 c 0,28,29
 372 52 372 52 316 16 c 0,30,31
 269 -14 269 -14 200.5 -14 c 128,-1,0
 132 -14 132 -14 83.5 43.5 c 128,-1,1
EndSplineSet
Substitution2: "'smcp' Lowercase to Small Capitals lookup 29 subtable" c.sc
Substitution2: "'sups' Superscript lookup 20 subtable" c.sups
Substitution2: "'sinf' Scientific Inferiors lookup 19 subtable" c.sinf
Substitution2: "'ordn' Ordinals lookup 18 subtable" c.ordn
Substitution2: "'subs' Subscript lookup 17 subtable" c.subs
EndChar

StartChar: d
Encoding: 327 100 71
Width: 506
GlyphClass: 2
Flags: W
AnchorPoint: "Anchor-0" 241 -100 basechar 0
LayerCount: 2
Fore
SplineSet
306.5 406.5 m 128,-1,1
 333 399 333 399 340.5 390.5 c 128,-1,2
 348 382 348 382 350 386 c 128,-1,3
 352 390 352 390 352 408 c 2,4,-1
 352 566 l 2,5,6
 352 604 352 604 340.5 618.5 c 128,-1,7
 329 633 329 633 301 639 c 0,8,9
 293 641 293 641 293 651.5 c 128,-1,10
 293 662 293 662 300 664 c 0,11,12
 331 672 331 672 359 682 c 2,13,-1
 402 698 l 2,14,15
 417 704 417 704 422.5 704 c 128,-1,16
 428 704 428 704 428 700 c 1,17,18
 430 696 430 696 428 680 c 0,19,20
 422 623 422 623 422 562 c 2,21,-1
 422 110 l 2,22,23
 422 45 422 45 443 45 c 0,24,25
 474 45 474 45 489 48 c 128,-1,26
 504 51 504 51 504 36 c 128,-1,27
 504 21 504 21 490 21 c 1,28,29
 438 14 438 14 399.5 -2.5 c 128,-1,30
 361 -19 361 -19 353.5 -19 c 128,-1,31
 346 -19 346 -19 346 -18 c 0,32,33
 346 -14 346 -14 349 18 c 0,34,35
 351 42 351 42 351 52 c 0,36,37
 351 55 351 55 351 57 c 1,38,39
 333 29 333 29 299 7.5 c 128,-1,40
 265 -14 265 -14 220 -14 c 0,41,42
 138 -14 138 -14 86.5 48 c 128,-1,43
 35 110 35 110 35 195.5 c 128,-1,44
 35 281 35 281 97 347.5 c 128,-1,45
 159 414 159 414 260 414 c 0,46,0
 280 414 280 414 306.5 406.5 c 128,-1,1
229 379 m 0,47,48
 193 379 193 379 155 347 c 0,49,50
 135 330 135 330 122 295 c 128,-1,51
 109 260 109 260 109 210 c 128,-1,52
 109 160 109 160 125.5 121.5 c 128,-1,53
 142 83 142 83 167 65 c 0,54,55
 214 31 214 31 256 31 c 128,-1,56
 298 31 298 31 325 57 c 128,-1,57
 352 83 352 83 352 120 c 2,58,-1
 352 255 l 2,59,60
 352 301 352 301 318 340 c 128,-1,61
 284 379 284 379 229 379 c 0,47,48
EndSplineSet
Substitution2: "'smcp' Lowercase to Small Capitals lookup 29 subtable" d.sc
Substitution2: "'sups' Superscript lookup 20 subtable" d.sups
Substitution2: "'sinf' Scientific Inferiors lookup 19 subtable" d.sinf
Substitution2: "'ordn' Ordinals lookup 18 subtable" d.ordn
Substitution2: "'subs' Subscript lookup 17 subtable" d.subs
EndChar

StartChar: e
Encoding: 328 101 72
Width: 388
GlyphClass: 2
Flags: W
AnchorPoint: "Anchor-3" 253 8 basechar 0
AnchorPoint: "Anchor-2" 218 550 basechar 0
AnchorPoint: "Anchor-1" 305 18 basechar 0
AnchorPoint: "Anchor-0" 194 -100 basechar 0
LayerCount: 2
Fore
SplineSet
86 344 m 132,-1,1
 139 414 139 414 215 414 c 132,-1,2
 291 414 291 414 324.5 388.5 c 132,-1,3
 358 363 358 363 358 320.5 c 132,-1,4
 358 278 358 278 336.5 267.5 c 132,-1,5
 315 257 315 257 281 257 c 6,6,-1
 117 257 l 6,7,8
 103 257 103 257 97.5 250.5 c 132,-1,9
 92 244 92 244 92 220 c 4,10,11
 92 147 92 147 134.5 97.5 c 132,-1,12
 177 48 177 48 239.5 48 c 132,-1,13
 302 48 302 48 333 88 c 4,14,15
 338 93 338 93 342.5 93 c 132,-1,16
 347 93 347 93 351 88 c 132,-1,17
 355 83 355 83 354 77 c 4,18,19
 345 45 345 45 302.5 15.5 c 132,-1,20
 260 -14 260 -14 195.5 -14 c 132,-1,21
 131 -14 131 -14 82 46 c 132,-1,22
 33 106 33 106 33 190 c 132,-1,0
 33 274 33 274 86 344 c 132,-1,1
115 318 m 5,23,24
 110 311 110 311 110 305 c 4,25,26
 110 302 110 302 112 298 c 4,27,28
 116 288 116 288 130 288 c 6,29,-1
 212 288 l 6,30,31
 259 288 259 288 285 293 c 4,32,33
 293 294 293 294 293 333 c 5,34,35
 288 383 288 383 213 383 c 4,36,37
 150 383 150 383 115 318 c 5,23,24
EndSplineSet
Substitution2: "'smcp' Lowercase to Small Capitals lookup 29 subtable" e.sc
Substitution2: "'sups' Superscript lookup 20 subtable" e.sups
Substitution2: "'sinf' Scientific Inferiors lookup 19 subtable" e.sinf
Substitution2: "'ordn' Ordinals lookup 18 subtable" e.ordn
Substitution2: "'subs' Subscript lookup 17 subtable" e.subs
EndChar

StartChar: f
Encoding: 329 102 73
Width: 307
GlyphClass: 2
Flags: W
AnchorPoint: "Anchor-2" 281 768 basechar 0
AnchorPoint: "Anchor-0" 134 -100 basechar 0
LayerCount: 2
Fore
SplineSet
127 2 m 1,0,-1
 47 -3 l 1,1,-1
 44 -3 l 2,2,3
 24 -3 24 -3 24 6.5 c 128,-1,4
 24 16 24 16 47 24 c 1,5,6
 90 37 90 37 90 68 c 2,7,-1
 90 350 l 1,8,9
 59 350 59 350 38 352 c 0,10,11
 36 352 36 352 32 358 c 0,12,13
 24 372 24 372 31 376 c 1,14,15
 46 380 46 380 90 402 c 1,16,17
 90 484 90 484 112 546 c 256,18,19
 134 608 134 608 168 641 c 0,20,21
 236 706 236 706 310 706 c 0,22,23
 345 706 345 706 364 702 c 0,24,25
 382 698 382 698 405 680 c 0,26,27
 421 668 421 668 421 648 c 0,28,29
 421 639 421 639 417 628 c 0,30,31
 410 606 410 606 386 606 c 0,32,33
 372 606 372 606 346 636 c 0,34,35
 336 648 336 648 315 656.5 c 128,-1,36
 294 665 294 665 268 665 c 0,37,38
 219 665 219 665 190.5 618.5 c 128,-1,39
 162 572 162 572 162 475 c 2,40,-1
 162 422 l 2,41,42
 162 400 162 400 187 400 c 2,43,-1
 305 400 l 1,44,45
 309 398 309 398 309 387.5 c 128,-1,46
 309 377 309 377 305 364.5 c 128,-1,47
 301 352 301 352 296 352 c 2,48,-1
 202 352 l 2,49,50
 181 352 181 352 175.5 350 c 128,-1,51
 170 348 170 348 167 347 c 128,-1,52
 164 346 164 346 163 342.5 c 128,-1,53
 162 339 162 339 162 338 c 2,54,-1
 162 68 l 1,55,56
 163 37 163 37 205 24 c 0,57,58
 228 16 228 16 228 6.5 c 128,-1,59
 228 -3 228 -3 208 -3 c 2,60,-1
 205 -3 l 1,61,-1
 127 2 l 1,0,-1
EndSplineSet
Substitution2: "Single Substitution lookup 38 subtable" f.short
Substitution2: "Single Substitution lookup 37 subtable" f.short
Substitution2: "'smcp' Lowercase to Small Capitals lookup 29 subtable" f.sc
Substitution2: "'sups' Superscript lookup 20 subtable" f.sups
Substitution2: "'sinf' Scientific Inferiors lookup 19 subtable" f.sinf
Substitution2: "'ordn' Ordinals lookup 18 subtable" f.ordn
Substitution2: "'subs' Subscript lookup 17 subtable" f.subs
Substitution2: "'locl' Localized Forms in Latin lookup 0 subtable" f.DEU
EndChar

StartChar: g
Encoding: 330 103 74
Width: 435
GlyphClass: 2
Flags: W
AnchorPoint: "Anchor-2" 221 550 basechar 0
LayerCount: 2
Fore
SplineSet
82 -134 m 0,0,1
 82 -185 82 -185 116.5 -217.5 c 128,-1,2
 151 -250 151 -250 210 -250 c 128,-1,3
 269 -250 269 -250 313 -210 c 128,-1,4
 357 -170 357 -170 357 -109 c 0,5,6
 357 -84 357 -84 332.5 -67 c 128,-1,7
 308 -50 308 -50 274 -43.5 c 128,-1,8
 240 -37 240 -37 179 -34 c 1,9,-1
 156 -34 l 1,10,11
 144 -42 144 -42 106 -80 c 1,12,13
 82 -108 82 -108 82 -134 c 0,0,1
268 349 m 128,-1,15
 241 386 241 386 201 386 c 128,-1,16
 161 386 161 386 137 348.5 c 128,-1,17
 113 311 113 311 113 266 c 128,-1,18
 113 221 113 221 139.5 181 c 128,-1,19
 166 141 166 141 205 141 c 128,-1,20
 244 141 244 141 269.5 178 c 128,-1,21
 295 215 295 215 295 263.5 c 128,-1,14
 295 312 295 312 268 349 c 128,-1,15
373 385 m 1,22,-1
 405 386 l 2,23,24
 417 386 417 386 426 385 c 0,25,26
 436 384 436 384 436 365 c 0,27,28
 436 349 436 349 426 349 c 0,29,30
 389 349 389 349 384 347 c 128,-1,31
 379 345 379 345 376 343.5 c 128,-1,32
 373 342 373 342 369 341 c 1,33,34
 365 330 365 330 365 295 c 0,35,36
 365 220 365 220 317 163 c 128,-1,37
 269 106 269 106 197 106 c 0,38,39
 165 106 165 106 143 118 c 1,40,41
 99 84 99 84 99 69 c 0,42,43
 99 37 99 37 195 28 c 0,44,45
 325 16 325 16 347.5 6 c 128,-1,46
 370 -4 370 -4 388 -15 c 0,47,48
 418 -34 418 -34 418 -77 c 0,49,50
 418 -157 418 -157 345.5 -223.5 c 128,-1,51
 273 -290 273 -290 196.5 -290 c 128,-1,52
 120 -290 120 -290 65.5 -263 c 128,-1,53
 11 -236 11 -236 11 -176 c 0,54,55
 11 -145 11 -145 26.5 -122.5 c 128,-1,56
 42 -100 42 -100 78.5 -77 c 128,-1,57
 115 -54 115 -54 130 -31 c 1,58,59
 96 -24 96 -24 68 -5.5 c 128,-1,60
 40 13 40 13 40 44 c 0,61,62
 40 63 40 63 63 81 c 0,63,64
 68 85 68 85 82 93 c 0,65,66
 109 109 109 109 122 127 c 1,67,68
 108 130 108 130 84 153 c 0,69,70
 35 199 35 199 35 264 c 128,-1,71
 35 329 35 329 89 372.5 c 128,-1,72
 143 416 143 416 213 416 c 0,73,74
 238 416 238 416 272 405 c 0,75,76
 334 385 334 385 373 385 c 1,22,-1
EndSplineSet
Substitution2: "'smcp' Lowercase to Small Capitals lookup 29 subtable" g.sc
Substitution2: "'sups' Superscript lookup 20 subtable" g.sups
Substitution2: "'sinf' Scientific Inferiors lookup 19 subtable" g.sinf
Substitution2: "'ordn' Ordinals lookup 18 subtable" g.ordn
Substitution2: "'subs' Subscript lookup 17 subtable" g.subs
EndChar

StartChar: h
Encoding: 331 104 75
Width: 515
GlyphClass: 2
Flags: W
AnchorPoint: "Anchor-2" 242 757 basechar 0
AnchorPoint: "Anchor-0" 231 -100 basechar 0
LayerCount: 2
Fore
SplineSet
120 2 m 1,0,-1
 42 -3 l 1,1,-1
 39 -3 l 2,2,3
 19 -3 19 -3 19 6.5 c 128,-1,4
 19 16 19 16 37 22 c 0,5,6
 54 28 54 28 62 32 c 0,7,8
 84 42 84 42 85 65 c 1,9,-1
 85 566 l 2,10,11
 85 630 85 630 40 639 c 0,12,13
 33 640 33 640 32.5 651.5 c 128,-1,14
 32 663 32 663 39 664 c 0,15,16
 64 670 64 670 155 704 c 1,17,-1
 157 705 l 2,18,19
 159 705 159 705 164 698 c 1,20,21
 164 696 164 696 162 684 c 0,22,23
 155 640 155 640 155 562 c 2,24,-1
 155 388 l 2,25,26
 155 361 155 361 163 351 c 1,27,28
 248 414 248 414 314 414 c 0,29,30
 365 414 365 414 397.5 382.5 c 128,-1,31
 430 351 430 351 430 294 c 2,32,-1
 430 68 l 2,33,34
 430 36 430 36 471 24 c 1,35,36
 494 16 494 16 494 6.5 c 128,-1,37
 494 -3 494 -3 474 -3 c 2,38,-1
 471 -3 l 1,39,-1
 394 2 l 1,40,-1
 319 -3 l 1,41,-1
 316 -3 l 2,42,43
 296 -3 296 -3 296 6.5 c 128,-1,44
 296 16 296 16 319 24 c 0,45,46
 358 36 358 36 358 68 c 2,47,-1
 358 272 l 2,48,49
 358 308 358 308 328.5 335 c 128,-1,50
 299 362 299 362 265 362 c 0,51,52
 210 362 210 362 182 340 c 0,53,54
 166 327 166 327 160.5 312.5 c 128,-1,55
 155 298 155 298 155 268 c 2,56,-1
 155 65 l 1,57,58
 156 35 156 35 193 24 c 1,59,60
 216 16 216 16 216 6.5 c 128,-1,61
 216 -3 216 -3 196 -3 c 2,62,-1
 193 -3 l 1,63,-1
 120 2 l 1,0,-1
EndSplineSet
Substitution2: "'smcp' Lowercase to Small Capitals lookup 29 subtable" h.sc
Substitution2: "'sups' Superscript lookup 20 subtable" h.sups
Substitution2: "'sinf' Scientific Inferiors lookup 19 subtable" h.sinf
Substitution2: "'ordn' Ordinals lookup 18 subtable" h.ordn
Substitution2: "'subs' Subscript lookup 17 subtable" h.subs
EndChar

StartChar: k
Encoding: 334 107 78
Width: 469
GlyphClass: 2
Flags: W
AnchorPoint: "Anchor-2" 280 708 basechar 0
AnchorPoint: "Anchor-0" 229 -100 basechar 0
LayerCount: 2
Fore
SplineSet
456 -5 m 1,0,-1
 335 0 l 1,1,-1
 277 0 l 2,2,3
 254 0 254 0 254 9 c 0,4,5
 254 21 254 21 277 27 c 0,6,7
 298 33 298 33 298 45 c 0,8,9
 298 52 298 52 291 60 c 2,10,-1
 165 205 l 2,11,12
 163 208 163 208 159 206.5 c 128,-1,13
 155 205 155 205 154.5 192.5 c 128,-1,14
 154 180 154 180 154 134 c 128,-1,15
 154 88 154 88 155 65 c 1,16,17
 155 34 155 34 190 24 c 1,18,19
 213 16 213 16 213 6.5 c 128,-1,20
 213 -3 213 -3 190 -3 c 1,21,-1
 120 2 l 1,22,-1
 42 -3 l 1,23,24
 19 -3 19 -3 19 6.5 c 128,-1,25
 19 16 19 16 37 22 c 0,26,27
 54 28 54 28 62 32 c 0,28,29
 84 42 84 42 85 65 c 1,30,-1
 85 566 l 2,31,32
 85 601 85 601 74.5 617.5 c 128,-1,33
 64 634 64 634 39 639 c 0,34,35
 32 640 32 640 31.5 651.5 c 128,-1,36
 31 663 31 663 38 664 c 0,37,38
 68 671 68 671 156 704 c 1,39,-1
 158 705 l 1,40,41
 162 705 162 705 163 699.5 c 128,-1,42
 164 694 164 694 162 679 c 0,43,44
 155 627 155 627 155 562 c 2,45,-1
 155 231 l 2,46,47
 155 222 155 222 161 224 c 0,48,49
 175 227 175 227 196 245 c 0,50,51
 286 324 286 324 310 358 c 0,52,53
 314 363 314 363 306 369.5 c 128,-1,54
 298 376 298 376 285 378 c 1,55,56
 273 382 273 382 273 386 c 0,57,58
 273 400 273 400 295 400 c 2,59,-1
 344 400 l 2,60,61
 365 400 365 400 401 406 c 128,-1,62
 437 412 437 412 440 412 c 0,63,64
 448 412 448 412 448 405.5 c 128,-1,65
 448 399 448 399 441.5 392.5 c 128,-1,66
 435 386 435 386 428 384 c 0,67,68
 399 378 399 378 367 358.5 c 128,-1,69
 335 339 335 339 230 247 c 0,70,71
 219 238 219 238 227 230 c 0,72,73
 263 187 263 187 309.5 136.5 c 128,-1,74
 356 86 356 86 374 70 c 0,75,76
 410 36 410 36 456 22 c 0,77,78
 479 14 479 14 479 4.5 c 128,-1,79
 479 -5 479 -5 459 -5 c 2,80,-1
 456 -5 l 1,0,-1
EndSplineSet
Substitution2: "'smcp' Lowercase to Small Capitals lookup 29 subtable" k.sc
Substitution2: "'sups' Superscript lookup 20 subtable" k.sups
Substitution2: "'sinf' Scientific Inferiors lookup 19 subtable" k.sinf
Substitution2: "'ordn' Ordinals lookup 18 subtable" k.ordn
Substitution2: "'subs' Subscript lookup 17 subtable" k.subs
EndChar

StartChar: l
Encoding: 335 108 79
Width: 241
GlyphClass: 2
Flags: W
AnchorPoint: "Anchor-2" 107 782 basechar 0
AnchorPoint: "Anchor-0" 100 -100 basechar 0
LayerCount: 2
Fore
SplineSet
156 562 m 2,0,-1
 155 62 l 2,1,2
 155 42 155 42 167 36 c 0,3,4
 180 30 180 30 200.5 23 c 128,-1,5
 221 16 221 16 221 6.5 c 128,-1,6
 221 -3 221 -3 201 -3 c 2,7,-1
 198 -3 l 1,8,-1
 120 2 l 1,9,-1
 42 -3 l 1,10,-1
 39 -3 l 2,11,12
 19 -3 19 -3 19 6.5 c 128,-1,13
 19 16 19 16 47 25 c 128,-1,14
 75 34 75 34 80 43.5 c 128,-1,15
 85 53 85 53 85 62 c 2,16,-1
 85 566 l 2,17,18
 85 629 85 629 39 639 c 0,19,20
 32 640 32 640 31.5 651.5 c 128,-1,21
 31 663 31 663 38 664 c 0,22,23
 63 670 63 670 154 704 c 1,24,-1
 156 705 l 1,25,26
 162 705 162 705 162 698 c 0,27,28
 162 696 162 696 160 680 c 0,29,30
 156 634 156 634 156 562 c 2,0,-1
EndSplineSet
Substitution2: "'smcp' Lowercase to Small Capitals lookup 29 subtable" l.sc
Substitution2: "'sups' Superscript lookup 20 subtable" l.sups
Substitution2: "'sinf' Scientific Inferiors lookup 19 subtable" l.sinf
Substitution2: "'ordn' Ordinals lookup 18 subtable" l.ordn
Substitution2: "'subs' Subscript lookup 17 subtable" l.subs
Substitution2: "'locl' Localized Forms in Latin lookup 3 subtable" l.CAT
EndChar

StartChar: m
Encoding: 336 109 80
Width: 778
GlyphClass: 2
Flags: W
AnchorPoint: "Anchor-2" 373 550 basechar 0
AnchorPoint: "Anchor-0" 358 -100 basechar 0
LayerCount: 2
Fore
SplineSet
125 2 m 1,0,-1
 47 -3 l 1,1,-1
 44 -3 l 2,2,3
 24 -3 24 -3 24 6.5 c 128,-1,4
 24 16 24 16 40.5 21.5 c 128,-1,5
 57 27 57 27 59.5 27.5 c 128,-1,6
 62 28 62 28 70 32 c 128,-1,7
 78 36 78 36 80 39 c 0,8,9
 90 50 90 50 90 62 c 2,10,-1
 90 277 l 2,11,12
 90 308 90 308 82 326 c 128,-1,13
 74 344 74 344 51 349 c 0,14,15
 44 350 44 350 43.5 361.5 c 128,-1,16
 43 373 43 373 51 374.5 c 128,-1,17
 59 376 59 376 68 379 c 2,18,-1
 84 384 l 2,19,20
 90 386 90 386 98 390 c 2,21,-1
 111 397 l 2,22,23
 121 402 121 402 129 408 c 2,24,-1
 147 421 l 2,25,26
 157 428 157 428 160 429 c 1,27,28
 160 429 160 429 161 429 c 0,29,30
 164 429 164 429 168 423 c 1,31,32
 168 419 168 419 166 399 c 0,33,34
 164 376 164 376 164 362 c 0,35,36
 164 352 164 352 165 347 c 1,37,38
 237 414 237 414 323 414 c 0,39,40
 393 414 393 414 416 354 c 0,41,42
 421 343 421 343 426.5 343 c 128,-1,43
 432 343 432 343 448 361.5 c 128,-1,44
 464 380 464 380 504 397 c 128,-1,45
 544 414 544 414 591 414 c 128,-1,46
 638 414 638 414 665.5 383.5 c 128,-1,47
 693 353 693 353 693 295 c 2,48,-1
 693 62 l 2,49,50
 693 42 693 42 705 36 c 0,51,52
 718 30 718 30 738.5 23 c 128,-1,53
 759 16 759 16 759 6.5 c 128,-1,54
 759 -3 759 -3 739 -3 c 2,55,-1
 736 -3 l 1,56,-1
 656 2 l 1,57,-1
 576 -3 l 1,58,-1
 573 -3 l 2,59,60
 553 -3 553 -3 553 6.5 c 128,-1,61
 553 16 553 16 581 25 c 128,-1,62
 609 34 609 34 614 43.5 c 128,-1,63
 619 53 619 53 619 62 c 2,64,-1
 619 272 l 2,65,66
 619 309 619 309 595 338 c 128,-1,67
 571 367 571 367 539 367 c 0,68,69
 486 367 486 367 455 343 c 128,-1,70
 424 319 424 319 424 268 c 2,71,-1
 424 62 l 2,72,73
 424 51 424 51 427 47.5 c 128,-1,74
 430 44 430 44 431 41.5 c 128,-1,75
 432 39 432 39 436 37 c 128,-1,76
 440 35 440 35 441.5 33.5 c 128,-1,77
 443 32 443 32 448 30 c 0,78,79
 454 28 454 28 455 28 c 0,80,81
 464 24 464 24 469 24 c 1,82,83
 492 16 492 16 492 6.5 c 128,-1,84
 492 -3 492 -3 472 -3 c 2,85,-1
 469 -3 l 1,86,-1
 390 2 l 1,87,-1
 310 -3 l 1,88,-1
 307 -3 l 2,89,90
 287 -3 287 -3 287 6.5 c 128,-1,91
 287 16 287 16 315 25 c 128,-1,92
 343 34 343 34 348.5 43 c 128,-1,93
 354 52 354 52 354 62 c 2,94,-1
 354 272 l 2,95,96
 354 309 354 309 330 338 c 128,-1,97
 306 367 306 367 274 367 c 0,98,99
 221 367 221 367 190.5 343.5 c 128,-1,100
 160 320 160 320 160 268 c 2,101,-1
 160 62 l 2,102,103
 160 43 160 43 171.5 36.5 c 128,-1,104
 183 30 183 30 187 29 c 0,105,106
 226 19 226 19 226 6 c 0,107,108
 226 -3 226 -3 206 -3 c 2,109,-1
 203 -3 l 1,110,-1
 125 2 l 1,0,-1
EndSplineSet
Substitution2: "'smcp' Lowercase to Small Capitals lookup 29 subtable" m.sc
Substitution2: "'sups' Superscript lookup 20 subtable" m.sups
Substitution2: "'sinf' Scientific Inferiors lookup 19 subtable" m.sinf
Substitution2: "'ordn' Ordinals lookup 18 subtable" m.ordn
Substitution2: "'subs' Subscript lookup 17 subtable" m.subs
EndChar

StartChar: n
Encoding: 337 110 81
Width: 527
GlyphClass: 2
Flags: W
AnchorPoint: "Anchor-2" 258 550 basechar 0
AnchorPoint: "Anchor-0" 242 -100 basechar 0
LayerCount: 2
Fore
SplineSet
405 2 m 1,0,-1
 326 -3 l 1,1,-1
 323 -3 l 2,2,3
 303 -3 303 -3 303 6.5 c 128,-1,4
 303 16 303 16 331 25 c 128,-1,5
 359 34 359 34 364 43.5 c 128,-1,6
 369 53 369 53 369 62 c 2,7,-1
 369 272 l 2,8,9
 369 315 369 315 344 340 c 128,-1,10
 319 365 319 365 270.5 365 c 128,-1,11
 222 365 222 365 191 344 c 128,-1,12
 160 323 160 323 160 268 c 2,13,-1
 160 62 l 2,14,15
 160 43 160 43 171.5 36.5 c 128,-1,16
 183 30 183 30 187 29 c 0,17,18
 226 19 226 19 226 6 c 0,19,20
 226 -3 226 -3 206 -3 c 2,21,-1
 203 -3 l 1,22,-1
 125 2 l 1,23,-1
 47 -3 l 1,24,-1
 44 -3 l 2,25,26
 24 -3 24 -3 24 6.5 c 128,-1,27
 24 16 24 16 40.5 21.5 c 128,-1,28
 57 27 57 27 59.5 27.5 c 128,-1,29
 62 28 62 28 70 32 c 128,-1,30
 78 36 78 36 80 39 c 0,31,32
 90 50 90 50 90 62 c 2,33,-1
 90 277 l 2,34,35
 90 341 90 341 49 349 c 0,36,37
 41 351 41 351 41 361.5 c 128,-1,38
 41 372 41 372 48 374 c 0,39,40
 100 386 100 386 158 429 c 0,41,42
 159 430 159 430 161.5 430 c 128,-1,43
 164 430 164 430 167 421 c 1,44,45
 166 417 166 417 164 398 c 2,46,-1
 160 367 l 2,47,48
 158 355 158 355 161 348 c 1,49,50
 189 371 189 371 236.5 392.5 c 128,-1,51
 284 414 284 414 330.5 414 c 128,-1,52
 377 414 377 414 409.5 383 c 128,-1,53
 442 352 442 352 442 295 c 2,54,-1
 442 62 l 2,55,56
 442 42 442 42 454 36 c 0,57,58
 467 30 467 30 487.5 23 c 128,-1,59
 508 16 508 16 508 6.5 c 128,-1,60
 508 -3 508 -3 488 -3 c 2,61,-1
 485 -3 l 1,62,-1
 405 2 l 1,0,-1
EndSplineSet
Substitution2: "'smcp' Lowercase to Small Capitals lookup 29 subtable" n.sc
Substitution2: "'sups' Superscript lookup 20 subtable" n.sups
Substitution2: "'sinf' Scientific Inferiors lookup 19 subtable" n.sinf
Substitution2: "'ordn' Ordinals lookup 18 subtable" n.ordn
Substitution2: "'subs' Subscript lookup 17 subtable" n.subs
EndChar

StartChar: o
Encoding: 338 111 82
Width: 495
GlyphClass: 2
Flags: W
AnchorPoint: "Anchor-2" 226 550 basechar 0
AnchorPoint: "Anchor-1" 337 18 basechar 0
AnchorPoint: "Anchor-0" 234 -100 basechar 0
LayerCount: 2
Fore
SplineSet
237 383 m 0,0,1
 117 383 117 383 117 210 c 0,2,3
 117 133 117 133 157 74.5 c 128,-1,4
 197 16 197 16 255 16 c 0,5,6
 330 16 330 16 358 71 c 0,7,8
 378 110 378 110 378 187 c 128,-1,9
 378 264 378 264 338 323.5 c 128,-1,10
 298 383 298 383 237 383 c 0,0,1
99.5 343.5 m 128,-1,12
 164 414 164 414 252 414 c 128,-1,13
 340 414 340 414 400 354.5 c 128,-1,14
 460 295 460 295 460 207 c 128,-1,15
 460 119 460 119 400.5 52.5 c 128,-1,16
 341 -14 341 -14 234 -14 c 0,17,18
 149 -14 149 -14 92 43 c 128,-1,19
 35 100 35 100 35 186.5 c 128,-1,11
 35 273 35 273 99.5 343.5 c 128,-1,12
EndSplineSet
Substitution2: "'smcp' Lowercase to Small Capitals lookup 29 subtable" o.sc
Substitution2: "'sups' Superscript lookup 20 subtable" o.sups
Substitution2: "'sinf' Scientific Inferiors lookup 19 subtable" o.sinf
Substitution2: "'ordn' Ordinals lookup 18 subtable" o.ordn
Substitution2: "'subs' Subscript lookup 17 subtable" o.subs
EndChar

StartChar: p
Encoding: 339 112 83
Width: 519
GlyphClass: 2
Flags: W
AnchorPoint: "Anchor-2" 261 550 basechar 0
LayerCount: 2
Fore
SplineSet
120 -280 m 1,0,-1
 40 -285 l 1,1,2
 19 -285 19 -285 19 -275.5 c 128,-1,3
 19 -266 19 -266 47 -257 c 128,-1,4
 75 -248 75 -248 80 -238.5 c 128,-1,5
 85 -229 85 -229 85 -220 c 2,6,-1
 85 287 l 2,7,8
 85 304 85 304 73 329.5 c 128,-1,9
 61 355 61 355 39 360 c 0,10,11
 32 361 32 361 31.5 372.5 c 128,-1,12
 31 384 31 384 38 385 c 0,13,14
 80 395 80 395 154 425 c 1,15,-1
 156 426 l 1,16,17
 160 426 160 426 161 420 c 128,-1,18
 162 414 162 414 160 396 c 0,19,20
 157 370 157 370 157 358 c 0,21,22
 157 351 157 351 158 348 c 1,23,24
 177 367 177 367 227.5 390.5 c 128,-1,25
 278 414 278 414 320 414 c 0,26,27
 394 414 394 414 440 356 c 0,28,29
 485 300 485 300 484 219 c 1,30,31
 484 133 484 133 416 59 c 0,32,33
 350 -14 350 -14 259 -14 c 0,34,35
 237 -14 237 -14 205 -4.5 c 128,-1,36
 173 5 173 5 159 18 c 1,37,38
 155 18 155 18 155 -33 c 2,39,-1
 155 -220 l 2,40,41
 155 -235 155 -235 166.5 -241.5 c 128,-1,42
 178 -248 178 -248 183.5 -250 c 128,-1,43
 189 -252 189 -252 200 -254 c 0,44,45
 236 -262 236 -262 236 -276 c 0,46,47
 236 -285 236 -285 214 -285 c 1,48,-1
 120 -280 l 1,0,-1
274 17 m 0,49,50
 312 17 312 17 354 54 c 0,51,52
 376 73 376 73 390 109.5 c 128,-1,53
 404 146 404 146 404 196.5 c 128,-1,54
 404 247 404 247 390 285 c 0,55,56
 376 324 376 324 352 340 c 0,57,58
 310 370 310 370 265 369.5 c 128,-1,59
 220 369 220 369 182 340 c 0,60,61
 159 323 159 323 156 269 c 1,62,63
 155 231 155 231 155 199 c 0,64,65
 155 151 155 151 157 118 c 0,66,67
 160 62 160 62 184 39.5 c 128,-1,68
 208 17 208 17 274 17 c 0,49,50
EndSplineSet
Substitution2: "'smcp' Lowercase to Small Capitals lookup 29 subtable" p.sc
Substitution2: "'sups' Superscript lookup 20 subtable" p.sups
Substitution2: "'sinf' Scientific Inferiors lookup 19 subtable" p.sinf
Substitution2: "'ordn' Ordinals lookup 18 subtable" p.ordn
Substitution2: "'subs' Subscript lookup 17 subtable" p.subs
EndChar

StartChar: q
Encoding: 340 113 84
Width: 522
GlyphClass: 2
Flags: W
AnchorPoint: "Anchor-2" 272 550 basechar 0
LayerCount: 2
Fore
SplineSet
412 -280 m 1,0,-1
 334 -285 l 1,1,-1
 331 -285 l 2,2,3
 311 -285 311 -285 311 -275.5 c 128,-1,4
 311 -266 311 -266 339 -257 c 128,-1,5
 367 -248 367 -248 372 -238.5 c 128,-1,6
 377 -229 377 -229 377 -220 c 2,7,-1
 377 -5 l 2,8,9
 377 25 377 25 372 25 c 128,-1,10
 367 25 367 25 362 20 c 0,11,12
 323 -14 323 -14 237.5 -14 c 128,-1,13
 152 -14 152 -14 93.5 37.5 c 128,-1,14
 35 89 35 89 35 186.5 c 128,-1,15
 35 284 35 284 103.5 349 c 128,-1,16
 172 414 172 414 282 414 c 0,17,18
 346 414 346 414 367 407 c 128,-1,19
 388 400 388 400 395 397 c 0,20,21
 407 392 407 392 411.5 392 c 128,-1,22
 416 392 416 392 420.5 395 c 128,-1,23
 425 398 425 398 431 408 c 2,24,-1
 439 420 l 2,25,26
 440 421 440 421 444 421 c 128,-1,27
 448 421 448 421 454 417.5 c 128,-1,28
 460 414 460 414 459 410 c 0,29,30
 447 359 447 359 447 295 c 2,31,-1
 447 -220 l 2,32,33
 447 -239 447 -239 466 -247 c 1,34,-1
 476 -252 l 1,35,36
 491 -258 491 -258 499 -258 c 1,37,38
 522 -266 522 -266 522 -275.5 c 128,-1,39
 522 -285 522 -285 502 -285 c 2,40,-1
 499 -285 l 1,41,-1
 412 -280 l 1,0,-1
340.5 351 m 128,-1,43
 306 382 306 382 252.5 382 c 128,-1,44
 199 382 199 382 158 334.5 c 128,-1,45
 117 287 117 287 117 201 c 128,-1,46
 117 115 117 115 166.5 69.5 c 128,-1,47
 216 24 216 24 272 24 c 128,-1,48
 328 24 328 24 358 47 c 0,49,50
 378 62 378 62 378 171 c 0,51,52
 378 226 378 226 376.5 273 c 128,-1,42
 375 320 375 320 340.5 351 c 128,-1,43
EndSplineSet
Substitution2: "'smcp' Lowercase to Small Capitals lookup 29 subtable" q.sc
Substitution2: "'sups' Superscript lookup 20 subtable" q.sups
Substitution2: "'sinf' Scientific Inferiors lookup 19 subtable" q.sinf
Substitution2: "'ordn' Ordinals lookup 18 subtable" q.ordn
Substitution2: "'subs' Subscript lookup 17 subtable" q.subs
EndChar

StartChar: r
Encoding: 341 114 85
Width: 334
GlyphClass: 2
Flags: W
AnchorPoint: "Anchor-2" 190 550 basechar 0
AnchorPoint: "Anchor-0" 118 -100 basechar 0
LayerCount: 2
Fore
SplineSet
130 2 m 1,0,-1
 52 -3 l 1,1,-1
 49 -3 l 2,2,3
 29 -3 29 -3 29 6.5 c 128,-1,4
 29 16 29 16 47 22 c 128,-1,5
 65 28 65 28 71 30.5 c 128,-1,6
 77 33 77 33 83.5 41 c 128,-1,7
 90 49 90 49 90 62 c 2,8,-1
 90 277 l 2,9,10
 90 340 90 340 49 349 c 0,11,12
 42 350 42 350 41.5 361.5 c 128,-1,13
 41 373 41 373 48 374 c 0,14,15
 86 382 86 382 104 394 c 2,16,-1
 159 429 l 2,17,18
 160 429 160 429 160 429.5 c 128,-1,19
 160 430 160 430 162.5 430 c 128,-1,20
 165 430 165 430 167 423 c 1,21,22
 167 396 167 396 165.5 371 c 128,-1,23
 164 346 164 346 165.5 346 c 128,-1,24
 167 346 167 346 171 351 c 2,25,-1
 180 362 l 2,26,27
 186 368 186 368 189 371 c 0,28,29
 237 414 237 414 281 414 c 0,30,31
 302 414 302 414 315.5 405 c 128,-1,32
 329 396 329 396 329 381 c 128,-1,33
 329 366 329 366 316.5 348 c 128,-1,34
 304 330 304 330 293 330 c 128,-1,35
 282 330 282 330 261 339 c 128,-1,36
 240 348 240 348 230 348 c 0,37,38
 201 348 201 348 180.5 329 c 128,-1,39
 160 310 160 310 160 264 c 2,40,-1
 160 67 l 1,41,42
 161 40 161 40 214 24 c 1,43,44
 237 16 237 16 237 6.5 c 128,-1,45
 237 -3 237 -3 217 -3 c 2,46,-1
 214 -3 l 1,47,-1
 130 2 l 1,0,-1
EndSplineSet
Substitution2: "'smcp' Lowercase to Small Capitals lookup 29 subtable" r.sc
Substitution2: "'sups' Superscript lookup 20 subtable" r.sups
Substitution2: "'sinf' Scientific Inferiors lookup 19 subtable" r.sinf
Substitution2: "'ordn' Ordinals lookup 18 subtable" r.ordn
Substitution2: "'subs' Subscript lookup 17 subtable" r.subs
EndChar

StartChar: s
Encoding: 342 115 86
Width: 323
GlyphClass: 2
Flags: W
AnchorPoint: "Anchor-3" 208 8 basechar 0
AnchorPoint: "Anchor-2" 182 550 basechar 0
AnchorPoint: "Anchor-0" 167 -100 basechar 0
LayerCount: 2
Fore
SplineSet
224.5 368.5 m 128,-1,1
 205 388 205 388 175 388 c 128,-1,2
 145 388 145 388 129 367 c 128,-1,3
 113 346 113 346 113 320 c 0,4,5
 113 284 113 284 198 231 c 0,6,7
 223 215 223 215 238 204 c 128,-1,8
 253 193 253 193 273 164.5 c 128,-1,9
 293 136 293 136 293 106 c 0,10,11
 293 -14 293 -14 149 -14 c 0,12,13
 112 -14 112 -14 80 -1.5 c 128,-1,14
 48 11 48 11 43 22 c 0,15,16
 32 45 32 45 30 83 c 0,17,18
 30 92 30 92 45.5 92 c 128,-1,19
 61 92 61 92 62 85 c 0,20,21
 67 59 67 59 94 36 c 128,-1,22
 121 13 121 13 147 13 c 0,23,24
 221 13 221 13 221 84 c 0,25,26
 221 109 221 109 204 128 c 128,-1,27
 187 147 187 147 149 174 c 0,28,29
 52 243 52 243 52 300 c 0,30,31
 52 345 52 345 87 379.5 c 128,-1,32
 122 414 122 414 184 414 c 128,-1,33
 246 414 246 414 269 391 c 1,34,35
 286 370 286 370 286 313 c 0,36,37
 286 309 286 309 279 309 c 128,-1,38
 272 309 272 309 259.5 316.5 c 128,-1,39
 247 324 247 324 246 330 c 0,40,0
 244 349 244 349 224.5 368.5 c 128,-1,1
EndSplineSet
Substitution2: "'smcp' Lowercase to Small Capitals lookup 29 subtable" s.sc
Substitution2: "'sups' Superscript lookup 20 subtable" s.sups
Substitution2: "'sinf' Scientific Inferiors lookup 19 subtable" s.sinf
Substitution2: "'ordn' Ordinals lookup 18 subtable" s.ordn
Substitution2: "'subs' Subscript lookup 17 subtable" s.subs
Substitution2: "Single Substitution lookup 12 subtable" longs
EndChar

StartChar: t
Encoding: 343 116 87
Width: 314
GlyphClass: 2
Flags: W
AnchorPoint: "Anchor-3" 205 8 basechar 0
AnchorPoint: "Anchor-0" 157 -100 basechar 0
LayerCount: 2
Fore
SplineSet
178 352 m 1,0,-1
 160 350 l 2,1,2
 158 350 158 350 156 346 c 2,3,-1
 155 342 l 1,4,-1
 155 135 l 2,5,6
 155 84 155 84 174 62.5 c 128,-1,7
 193 41 193 41 221 41 c 0,8,9
 271 41 271 41 296 60 c 0,10,11
 306 67 306 67 306 47 c 0,12,13
 306 43 306 43 304 40 c 0,14,15
 295 25 295 25 259 5.5 c 128,-1,16
 223 -14 223 -14 181.5 -14 c 128,-1,17
 140 -14 140 -14 112.5 15.5 c 128,-1,18
 85 45 85 45 85 105 c 2,19,-1
 85 337 l 2,20,21
 85 348 85 348 79 349.5 c 128,-1,22
 73 351 73 351 69.5 351.5 c 128,-1,23
 66 352 66 352 59 352 c 2,24,-1
 47 352 l 2,25,26
 44 352 44 352 40 358 c 0,27,28
 36 365 36 365 36 370 c 0,29,30
 36 374 36 374 40 376 c 0,31,32
 77 386 77 386 112 421 c 0,33,34
 116 425 116 425 122 437 c 0,35,36
 139 468 139 468 144 468 c 0,37,38
 158 468 158 468 158 458 c 2,39,-1
 158 414 l 2,40,41
 158 400 158 400 180 400 c 2,42,-1
 294 400 l 2,43,44
 302 400 302 400 302 376 c 128,-1,45
 302 352 302 352 294 352 c 0,46,47
 236 352 236 352 178 352 c 1,0,-1
EndSplineSet
Substitution2: "'smcp' Lowercase to Small Capitals lookup 29 subtable" t.sc
Substitution2: "'sups' Superscript lookup 20 subtable" t.sups
Substitution2: "'sinf' Scientific Inferiors lookup 19 subtable" t.sinf
Substitution2: "'ordn' Ordinals lookup 18 subtable" t.ordn
Substitution2: "'subs' Subscript lookup 17 subtable" t.subs
EndChar

StartChar: u
Encoding: 344 117 88
Width: 527
GlyphClass: 2
Flags: W
AnchorPoint: "Anchor-2" 236 550 basechar 0
AnchorPoint: "Anchor-1" 433 18 basechar 0
AnchorPoint: "Anchor-0" 236 -100 basechar 0
LayerCount: 2
Fore
SplineSet
432 415 m 1,0,1
 432 415 432 415 434 415 c 0,2,3
 441 415 441 415 445.5 409 c 128,-1,4
 450 403 450 403 444 393 c 128,-1,5
 438 383 438 383 438 326 c 2,6,-1
 438 114 l 2,7,8
 438 45 438 45 456 45 c 0,9,10
 487 45 487 45 502 48 c 128,-1,11
 517 51 517 51 517 36 c 128,-1,12
 517 21 517 21 503 21 c 1,13,14
 451 14 451 14 412.5 -2.5 c 128,-1,15
 374 -19 374 -19 366.5 -19 c 128,-1,16
 359 -19 359 -19 359 -18 c 0,17,18
 359 -14 359 -14 362 18 c 0,19,20
 364 42 364 42 364 52 c 0,21,22
 364 55 364 55 364 57 c 1,23,24
 292 -14 292 -14 199 -14 c 0,25,26
 148 -14 148 -14 116.5 17 c 128,-1,27
 85 48 85 48 85 105 c 2,28,-1
 85 308 l 2,29,30
 85 348 85 348 42 365 c 1,31,32
 29 369 29 369 29 381.5 c 128,-1,33
 29 394 29 394 44 397 c 1,34,35
 79 398 79 398 147 414 c 0,36,37
 154 415 154 415 158 411.5 c 128,-1,38
 162 408 162 408 161 400 c 0,39,40
 155 354 155 354 155 323 c 2,41,-1
 155 128 l 2,42,43
 155 92 155 92 181 64.5 c 128,-1,44
 207 37 207 37 239 37 c 0,45,46
 297 37 297 37 323 57 c 0,47,48
 368 90 368 90 368 132 c 2,49,-1
 368 315 l 2,50,51
 368 342 368 342 347 353 c 128,-1,52
 326 364 326 364 303 364.5 c 128,-1,53
 280 365 280 365 280 382 c 0,54,55
 280 390 280 390 288.5 393.5 c 128,-1,56
 297 397 297 397 315 397.5 c 128,-1,57
 333 398 333 398 351 399.5 c 128,-1,58
 369 401 369 401 382 403 c 128,-1,59
 395 405 395 405 399.5 405.5 c 128,-1,60
 404 406 404 406 415 410 c 2,61,-1
 432 415 l 1,0,1
EndSplineSet
Substitution2: "'smcp' Lowercase to Small Capitals lookup 29 subtable" u.sc
Substitution2: "'sups' Superscript lookup 20 subtable" u.sups
Substitution2: "'sinf' Scientific Inferiors lookup 19 subtable" u.sinf
Substitution2: "'ordn' Ordinals lookup 18 subtable" u.ordn
Substitution2: "'subs' Subscript lookup 17 subtable" u.subs
Substitution2: "Single Substitution lookup 15 subtable" u.LAT
Substitution2: "'locl' Localized Forms in Latin lookup 5 subtable" u.LAT
EndChar

StartChar: v
Encoding: 345 118 89
Width: 438
GlyphClass: 2
Flags: W
AnchorPoint: "Anchor-2" 218 550 basechar 0
AnchorPoint: "Anchor-0" 205 -100 basechar 0
LayerCount: 2
Fore
SplineSet
98 400 m 1,0,-1
 170 405 l 1,1,-1
 173 405 l 2,2,3
 193 405 193 405 193 395.5 c 128,-1,4
 193 386 193 386 174.5 380 c 128,-1,5
 156 374 156 374 152 352 c 0,6,7
 150 343 150 343 150 334 c 0,8,9
 150 321 150 321 154 310 c 2,10,-1
 228 111 l 2,11,12
 232 100 232 100 234 100 c 128,-1,13
 236 100 236 100 240 110 c 2,14,-1
 312 295 l 2,15,16
 319 315 319 315 319 332 c 1,17,18
 318 342 318 342 316 350 c 0,19,20
 310 373 310 373 290.5 379.5 c 128,-1,21
 271 386 271 386 271 395.5 c 128,-1,22
 271 405 271 405 291 405 c 2,23,-1
 294 405 l 1,24,-1
 364 400 l 1,25,26
 384 400 384 400 398 402.5 c 128,-1,27
 412 405 412 405 420 405 c 2,28,-1
 423 405 l 2,29,30
 443 405 443 405 443 395.5 c 128,-1,31
 443 386 443 386 423.5 379.5 c 128,-1,32
 404 373 404 373 386 354 c 128,-1,33
 368 335 368 335 358 311 c 2,34,-1
 280 123 l 1,35,-1
 243 23 l 1,36,37
 221 -22 221 -22 216 -22 c 0,38,39
 209 -22 209 -22 196 17 c 1,40,-1
 74 329 l 1,41,42
 57 369 57 369 28 378 c 0,43,44
 5 386 5 386 5 395.5 c 128,-1,45
 5 405 5 405 25 405 c 2,46,-1
 28 405 l 1,47,-1
 98 400 l 1,0,-1
EndSplineSet
Substitution2: "'smcp' Lowercase to Small Capitals lookup 29 subtable" v.sc
Substitution2: "'sups' Superscript lookup 20 subtable" v.sups
Substitution2: "'sinf' Scientific Inferiors lookup 19 subtable" v.sinf
Substitution2: "'ordn' Ordinals lookup 18 subtable" v.ordn
Substitution2: "'subs' Subscript lookup 17 subtable" v.subs
Substitution2: "Single Substitution lookup 16 subtable" v.LATmedi
Substitution2: "'locl' Localized Forms in Latin lookup 5 subtable" v.LAT
EndChar

StartChar: w
Encoding: 346 119 90
Width: 685
GlyphClass: 2
Flags: W
AnchorPoint: "Anchor-2" 342 550 basechar 0
AnchorPoint: "Anchor-0" 338 -100 basechar 0
LayerCount: 2
Fore
SplineSet
540 405 m 1,0,-1
 612 400 l 1,1,2
 632 400 632 400 646 402.5 c 128,-1,3
 660 405 660 405 667 405 c 2,4,-1
 670 405 l 2,5,6
 690 405 690 405 690 395.5 c 128,-1,7
 690 386 690 386 667 378 c 1,8,9
 639 370 639 370 614 312 c 2,10,-1
 477 -16 l 2,11,12
 474 -23 474 -23 469 -23 c 128,-1,13
 464 -23 464 -23 460 -16 c 1,14,-1
 356 242 l 2,15,16
 350 257 350 257 343 241 c 2,17,-1
 234 -16 l 2,18,19
 230 -23 230 -23 225.5 -23 c 128,-1,20
 221 -23 221 -23 219 -16 c 2,21,-1
 80 329 l 2,22,23
 65 367 65 367 28 378 c 1,24,25
 5 386 5 386 5 395.5 c 128,-1,26
 5 405 5 405 25 405 c 2,27,-1
 28 405 l 1,28,-1
 98 400 l 1,29,-1
 178 405 l 1,30,-1
 181 405 l 2,31,32
 201 405 201 405 201 395.5 c 128,-1,33
 201 386 201 386 178 378 c 1,34,35
 162 374 162 374 158 352 c 0,36,37
 156 344 156 344 157 337 c 1,38,39
 157 324 157 324 162 312 c 2,40,-1
 238 116 l 2,41,42
 245 97 245 97 253 117 c 2,43,-1
 319 278 l 2,44,45
 326 295 326 295 326 310 c 0,46,47
 326 327 326 327 317 342 c 0,48,49
 300 370 300 370 276 377 c 128,-1,50
 252 384 252 384 252 396 c 0,51,52
 252 405 252 405 272 405 c 2,53,-1
 275 405 l 1,54,-1
 347 400 l 1,55,-1
 428 405 l 1,56,-1
 431 405 l 2,57,58
 451 405 451 405 451 395.5 c 128,-1,59
 451 386 451 386 434.5 380.5 c 128,-1,60
 418 375 418 375 412.5 372 c 128,-1,61
 407 369 407 369 400 361 c 128,-1,62
 393 353 393 353 394.5 342 c 128,-1,63
 396 331 396 331 401 312 c 1,64,-1
 476 119 l 2,65,66
 484 100 484 100 492 118 c 2,67,-1
 568 295 l 1,68,69
 574 314 574 314 574 328 c 128,-1,70
 574 342 574 342 569 352 c 0,71,72
 559 372 559 372 538 379 c 128,-1,73
 517 386 517 386 517 395.5 c 128,-1,74
 517 405 517 405 537 405 c 2,75,-1
 540 405 l 1,0,-1
EndSplineSet
Substitution2: "'smcp' Lowercase to Small Capitals lookup 29 subtable" w.sc
Substitution2: "'sups' Superscript lookup 20 subtable" w.sups
Substitution2: "'sinf' Scientific Inferiors lookup 19 subtable" w.sinf
Substitution2: "'ordn' Ordinals lookup 18 subtable" w.ordn
Substitution2: "'subs' Subscript lookup 17 subtable" w.subs
EndChar

StartChar: x
Encoding: 347 120 91
Width: 430
GlyphClass: 2
Flags: W
AnchorPoint: "Anchor-2" 195 550 basechar 0
LayerCount: 2
Fore
SplineSet
97 1 m 1,0,-1
 33 -4 l 1,1,-1
 30 -4 l 2,2,3
 10 -4 10 -4 10 5 c 0,4,5
 10 17 10 17 34.5 24 c 128,-1,6
 59 31 59 31 100 80 c 1,7,-1
 185 186 l 2,8,9
 194 197 194 197 187 209 c 2,10,-1
 106 335 l 1,11,12
 85 370 85 370 61 376.5 c 128,-1,13
 37 383 37 383 37 395 c 0,14,15
 37 404 37 404 60 404 c 1,16,-1
 139 400 l 1,17,-1
 190 402 l 2,18,19
 213 402 213 402 213 393 c 0,20,21
 213 381 213 381 192 375 c 0,22,23
 172 369 172 369 175 356.5 c 128,-1,24
 178 344 178 344 187 330 c 2,25,-1
 227 268 l 2,26,27
 232 259 232 259 235 263 c 2,28,-1
 284 338 l 2,29,30
 293 351 293 351 293 360 c 0,31,32
 293 371 293 371 279 376 c 0,33,34
 256 384 256 384 256 393.5 c 128,-1,35
 256 403 256 403 279 403 c 1,36,-1
 329 400 l 1,37,38
 349 400 349 400 367 402.5 c 128,-1,39
 385 405 385 405 389 405 c 2,40,-1
 392 405 l 2,41,42
 412 405 412 405 412 395.5 c 128,-1,43
 412 386 412 386 389 378 c 1,44,45
 341 364 341 364 318 331 c 2,46,-1
 253 239 l 2,47,48
 249 233 249 233 254 226 c 2,49,-1
 351 65 l 2,50,51
 372 30 372 30 396 23.5 c 128,-1,52
 420 17 420 17 420 5 c 0,53,54
 420 -4 420 -4 400 -4 c 2,55,-1
 397 -4 l 1,56,-1
 316 0 l 1,57,-1
 243 -1 l 2,58,59
 220 -1 220 -1 220 8.5 c 128,-1,60
 220 18 220 18 243 26 c 1,61,62
 275 35 275 35 275 54 c 0,63,64
 275 61 275 61 270 70 c 2,65,-1
 216 162 l 2,66,67
 211 170 211 170 208 165 c 2,68,-1
 141 67 l 1,69,70
 136 63 136 63 136.5 46.5 c 128,-1,71
 137 30 137 30 150 26 c 0,72,73
 173 18 173 18 173 8.5 c 128,-1,74
 173 -1 173 -1 150 -1 c 2,75,-1
 97 1 l 1,0,-1
EndSplineSet
Substitution2: "'smcp' Lowercase to Small Capitals lookup 29 subtable" x.sc
Substitution2: "'sups' Superscript lookup 20 subtable" x.sups
Substitution2: "'sinf' Scientific Inferiors lookup 19 subtable" x.sinf
Substitution2: "'ordn' Ordinals lookup 18 subtable" x.ordn
Substitution2: "'subs' Subscript lookup 17 subtable" x.subs
EndChar

StartChar: y
Encoding: 348 121 92
Width: 438
GlyphClass: 2
Flags: W
AnchorPoint: "Anchor-2" 223 550 basechar 0
LayerCount: 2
Fore
SplineSet
296 405 m 1,0,-1
 364 400 l 1,1,2
 384 400 384 400 398 402.5 c 128,-1,3
 412 405 412 405 420 405 c 2,4,-1
 423 405 l 2,5,6
 443 405 443 405 443 395.5 c 128,-1,7
 443 386 443 386 424 379.5 c 128,-1,8
 405 373 405 373 388 354 c 128,-1,9
 371 335 371 335 361 311 c 2,10,-1
 225 -13 l 2,11,12
 224 -16 224 -16 208 -53 c 2,13,-1
 129 -244 l 2,14,15
 111 -285 111 -285 64 -285 c 0,16,17
 45 -285 45 -285 29 -275 c 128,-1,18
 13 -265 13 -265 13 -249 c 0,19,20
 13 -219 13 -219 40 -219 c 1,21,-1
 80 -225 l 1,22,23
 92 -225 92 -225 99 -214 c 0,24,25
 145 -135 145 -135 190 -16 c 0,26,27
 194 -5 194 -5 194 8 c 0,28,29
 194 22 194 22 189 36 c 2,30,-1
 73 329 l 2,31,32
 56 370 56 370 28 378 c 1,33,34
 5 386 5 386 5 395.5 c 128,-1,35
 5 405 5 405 25 405 c 2,36,-1
 28 405 l 1,37,-1
 98 400 l 1,38,-1
 171 405 l 1,39,-1
 174 405 l 2,40,41
 194 405 194 405 194 395.5 c 128,-1,42
 194 386 194 386 171 378 c 1,43,44
 156 374 156 374 150 352 c 0,45,46
 148 343 148 343 148 335 c 0,47,48
 148 323 148 323 153 312 c 2,49,-1
 232 116 l 2,50,51
 240 97 240 97 247 117 c 2,52,-1
 314 295 l 2,53,54
 319 309 319 309 319 324 c 0,55,56
 319 334 319 334 317 346 c 0,57,58
 311 374 311 374 296 378 c 1,59,60
 273 386 273 386 273 395.5 c 128,-1,61
 273 405 273 405 293 405 c 2,62,-1
 296 405 l 1,0,-1
EndSplineSet
Substitution2: "'smcp' Lowercase to Small Capitals lookup 29 subtable" y.sc
Substitution2: "'sups' Superscript lookup 20 subtable" y.sups
Substitution2: "'sinf' Scientific Inferiors lookup 19 subtable" y.sinf
Substitution2: "'ordn' Ordinals lookup 18 subtable" y.ordn
Substitution2: "'subs' Subscript lookup 17 subtable" y.subs
EndChar

StartChar: z
Encoding: 349 122 93
Width: 377
GlyphClass: 2
Flags: W
AnchorPoint: "Anchor-2" 207 550 basechar 0
AnchorPoint: "Anchor-0" 202 -100 basechar 0
LayerCount: 2
Fore
SplineSet
127 401 m 2,0,-1
 165 402 l 1,1,2
 260 402 260 402 351 405 c 0,3,4
 355 405 355 405 357.5 400.5 c 128,-1,5
 360 396 360 396 358 393 c 0,6,7
 338 369 338 369 320 343 c 2,8,-1
 127 50 l 2,9,10
 124 45 124 45 129 40 c 128,-1,11
 134 35 134 35 139 35 c 2,12,-1
 256 35 l 2,13,14
 276 35 276 35 295.5 54 c 128,-1,15
 315 73 315 73 342 112 c 1,16,17
 355 136 355 136 363.5 136 c 128,-1,18
 372 136 372 136 372 117.5 c 128,-1,19
 372 99 372 99 357.5 52 c 128,-1,20
 343 5 343 5 338.5 0 c 128,-1,21
 334 -5 334 -5 330 -5 c 128,-1,22
 326 -5 326 -5 255 -2.5 c 128,-1,23
 184 0 184 0 119 0 c 1,24,-1
 39 -5 l 2,25,26
 35 -5 35 -5 30 1.5 c 128,-1,27
 25 8 25 8 25 14 c 128,-1,28
 25 20 25 20 62 70 c 1,29,30
 136 176 136 176 248 354 c 1,31,32
 256 364 256 364 239 364 c 2,33,-1
 122 364 l 2,34,35
 108 364 108 364 92 342 c 2,36,-1
 81 326 l 1,37,-1
 65 304 l 2,38,39
 52 286 52 286 44.5 286 c 128,-1,40
 37 286 37 286 35.5 294 c 128,-1,41
 34 302 34 302 37 308 c 0,42,43
 54 348 54 348 54 398 c 0,44,45
 54 405 54 405 59.5 410.5 c 128,-1,46
 65 416 65 416 69 416 c 128,-1,47
 73 416 73 416 82 408.5 c 128,-1,48
 91 401 91 401 127 401 c 2,0,-1
EndSplineSet
Substitution2: "'smcp' Lowercase to Small Capitals lookup 29 subtable" z.sc
Substitution2: "'sups' Superscript lookup 20 subtable" z.sups
Substitution2: "'sinf' Scientific Inferiors lookup 19 subtable" z.sinf
Substitution2: "'ordn' Ordinals lookup 18 subtable" z.ordn
Substitution2: "'subs' Subscript lookup 17 subtable" z.subs
EndChar

StartChar: braceleft
Encoding: 350 123 94
Width: 373
GlyphClass: 2
Flags: W
LayerCount: 2
Fore
SplineSet
25 282 m 128,-1,1
 25 287 25 287 31 287 c 0,2,3
 34 287 34 287 36 288 c 0,4,5
 131 323 131 323 131 404 c 0,6,7
 131 434 131 434 124.5 490 c 128,-1,8
 118 546 118 546 118 582 c 0,9,10
 118 647 118 647 179 681 c 128,-1,11
 240 715 240 715 320 715 c 0,12,13
 338 715 338 715 338 700 c 0,14,15
 338 688 338 688 312 688 c 0,16,17
 258 688 258 688 220.5 663 c 128,-1,18
 183 638 183 638 183 587 c 0,19,20
 183 552 183 552 189.5 497 c 128,-1,21
 196 442 196 442 196 414 c 0,22,23
 196 369 196 369 161.5 334 c 128,-1,24
 127 299 127 299 88 283 c 0,25,26
 84 281 84 281 90 279 c 0,27,28
 121 271 121 271 158.5 231 c 128,-1,29
 196 191 196 191 196 147 c 0,30,31
 196 119 196 119 189.5 64 c 128,-1,32
 183 9 183 9 183 -26 c 0,33,34
 183 -77 183 -77 220.5 -102 c 128,-1,35
 258 -127 258 -127 312 -127 c 0,36,37
 338 -127 338 -127 338 -139 c 0,38,39
 338 -154 338 -154 320 -154 c 0,40,41
 240 -154 240 -154 179 -120 c 128,-1,42
 118 -86 118 -86 118 -21 c 0,43,44
 118 15 118 15 124.5 71 c 128,-1,45
 131 127 131 127 131 157 c 0,46,47
 131 238 131 238 36 273 c 0,48,0
 25 277 25 277 25 282 c 128,-1,1
EndSplineSet
Substitution2: "'sups' Superscript lookup 20 subtable" braceleft.sups
Substitution2: "'sinf' Scientific Inferiors lookup 19 subtable" braceleft.sinf
Substitution2: "'ordn' Ordinals lookup 18 subtable" braceleft.ordn
Substitution2: "'subs' Subscript lookup 17 subtable" braceleft.subs
EndChar

StartChar: bar
Encoding: 351 124 95
Width: 260
GlyphClass: 2
Flags: W
LayerCount: 2
Fore
SplineSet
100 676 m 2,0,1
 100 690 100 690 118 698.5 c 128,-1,2
 136 707 136 707 144 707 c 128,-1,3
 152 707 152 707 156 703 c 128,-1,4
 160 699 160 699 160 694 c 2,5,-1
 160 -265 l 2,6,7
 160 -278 160 -278 143 -283.5 c 128,-1,8
 126 -289 126 -289 117 -289 c 128,-1,9
 108 -289 108 -289 104 -284.5 c 128,-1,10
 100 -280 100 -280 100 -275 c 2,11,-1
 100 676 l 2,0,1
EndSplineSet
Substitution2: "'sups' Superscript lookup 20 subtable" bar.sups
Substitution2: "'sinf' Scientific Inferiors lookup 19 subtable" bar.sinf
Substitution2: "'ordn' Ordinals lookup 18 subtable" bar.ordn
Substitution2: "'subs' Subscript lookup 17 subtable" bar.subs
EndChar

StartChar: braceright
Encoding: 352 125 96
Width: 373
GlyphClass: 2
Flags: W
LayerCount: 2
Fore
SplineSet
342 287 m 0,0,1
 348 287 348 287 348 282 c 128,-1,2
 348 277 348 277 337 273 c 0,3,4
 242 238 242 238 242 157 c 0,5,6
 242 127 242 127 248.5 71 c 128,-1,7
 255 15 255 15 255 -21 c 0,8,9
 255 -86 255 -86 194 -120 c 128,-1,10
 133 -154 133 -154 53 -154 c 0,11,12
 35 -154 35 -154 35 -139 c 0,13,14
 35 -127 35 -127 61 -127 c 0,15,16
 115 -127 115 -127 152.5 -102 c 128,-1,17
 190 -77 190 -77 190 -26 c 0,18,19
 190 9 190 9 183.5 64 c 128,-1,20
 177 119 177 119 177 147 c 0,21,22
 177 191 177 191 214.5 231 c 128,-1,23
 252 271 252 271 283 279 c 0,24,25
 288 281 288 281 285 283 c 0,26,27
 246 299 246 299 211.5 334 c 128,-1,28
 177 369 177 369 177 414 c 0,29,30
 177 442 177 442 183.5 497 c 128,-1,31
 190 552 190 552 190 587 c 0,32,33
 190 638 190 638 152.5 663 c 128,-1,34
 115 688 115 688 61 688 c 0,35,36
 35 688 35 688 35 700 c 0,37,38
 35 715 35 715 53 715 c 0,39,40
 133 715 133 715 194 681 c 128,-1,41
 255 647 255 647 255 582 c 0,42,43
 255 546 255 546 248.5 490 c 128,-1,44
 242 434 242 434 242 404 c 0,45,46
 242 323 242 323 337 288 c 0,47,48
 338 287 338 287 342 287 c 0,0,1
EndSplineSet
Substitution2: "'sups' Superscript lookup 20 subtable" braceright.sups
Substitution2: "'sinf' Scientific Inferiors lookup 19 subtable" braceright.sinf
Substitution2: "'ordn' Ordinals lookup 18 subtable" braceright.ordn
Substitution2: "'subs' Subscript lookup 17 subtable" braceright.subs
EndChar

StartChar: asciitilde
Encoding: 353 126 97
Width: 500
GlyphClass: 2
Flags: W
LayerCount: 2
Fore
SplineSet
106 347 m 0,0,1
 144 381 144 381 170 381 c 128,-1,2
 196 381 196 381 249 357 c 128,-1,3
 302 333 302 333 330 333 c 128,-1,4
 358 333 358 333 391.5 348.5 c 128,-1,5
 425 364 425 364 437 380 c 0,6,7
 439 382 439 382 441.5 382 c 128,-1,8
 444 382 444 382 448 374 c 0,9,10
 451 369 451 369 451 365 c 0,11,12
 451 363 451 363 450 362 c 0,13,14
 435 334 435 334 396 297 c 128,-1,15
 357 260 357 260 329.5 260 c 128,-1,16
 302 260 302 260 244 284 c 128,-1,17
 186 308 186 308 163.5 308 c 128,-1,18
 141 308 141 308 109 291.5 c 128,-1,19
 77 275 77 275 65 261 c 0,20,21
 63 259 63 259 58 262 c 0,22,23
 54 264 54 264 52 270 c 0,24,25
 50 274 50 274 50 277 c 0,26,27
 50 297 50 297 106 347 c 0,0,1
EndSplineSet
Substitution2: "'sups' Superscript lookup 20 subtable" asciitilde.sups
Substitution2: "'sinf' Scientific Inferiors lookup 19 subtable" asciitilde.sinf
Substitution2: "'ordn' Ordinals lookup 18 subtable" asciitilde.ordn
Substitution2: "'subs' Subscript lookup 17 subtable" asciitilde.subs
EndChar

StartChar: exclamdown
Encoding: 355 161 99
Width: 282
GlyphClass: 2
Flags: W
LayerCount: 2
Fore
SplineSet
152 374 m 128,-1,1
 127 374 127 374 109.5 391.5 c 128,-1,2
 92 409 92 409 92 434 c 128,-1,3
 92 459 92 459 109.5 476.5 c 128,-1,4
 127 494 127 494 152 494 c 128,-1,5
 177 494 177 494 194.5 476.5 c 128,-1,6
 212 459 212 459 212 434 c 128,-1,7
 212 409 212 409 194.5 391.5 c 128,-1,0
 177 374 177 374 152 374 c 128,-1,1
188.5 -159 m 128,-1,9
 176 -180 176 -180 151.5 -180 c 128,-1,10
 127 -180 127 -180 114 -159 c 128,-1,11
 101 -138 101 -138 101 -102 c 128,-1,12
 101 -66 101 -66 124 205 c 0,13,14
 126 228 126 228 133.5 245.5 c 128,-1,15
 141 263 141 263 152 263 c 0,16,17
 159 263 159 263 165.5 246 c 128,-1,18
 172 229 172 229 174 211 c 0,19,20
 201 -50 201 -50 201 -94 c 128,-1,8
 201 -138 201 -138 188.5 -159 c 128,-1,9
EndSplineSet
EndChar

StartChar: cent
Encoding: 356 162 100
Width: 412
GlyphClass: 2
Flags: W
LayerCount: 2
Fore
SplineSet
194 -12 m 1,0,1
 129 -1 129 -1 82 57 c 128,-1,2
 35 115 35 115 35 194.5 c 128,-1,3
 35 274 35 274 92.5 339 c 128,-1,4
 150 404 150 404 238 412 c 1,5,-1
 243 462 l 2,6,7
 245 479 245 479 265 479 c 0,8,9
 271 479 271 479 275 473.5 c 128,-1,10
 279 468 279 468 278 462 c 2,11,-1
 273 413 l 1,12,13
 344 409 344 409 380 365 c 0,14,15
 384 359 384 359 384 353 c 0,16,17
 384 339 384 339 360 323 c 1,18,19
 352 319 352 319 341.5 319 c 128,-1,20
 331 319 331 319 326 329 c 0,21,22
 303 370 303 370 269 379 c 1,23,-1
 235 46 l 1,24,25
 240 45 240 45 250 45 c 0,26,27
 337 45 337 45 365 88 c 0,28,29
 368 93 368 93 374 93 c 0,30,31
 380 94 380 94 384 88 c 0,32,33
 387 85 387 85 387 81 c 0,34,35
 387 79 387 79 386 77 c 0,36,37
 333 -11 333 -11 228 -14 c 1,38,-1
 223 -65 l 2,39,40
 221 -80 221 -80 204 -80 c 0,41,42
 197 -80 197 -80 192 -76 c 128,-1,43
 187 -72 187 -72 188 -65 c 2,44,-1
 194 -12 l 1,0,1
200 53 m 1,45,-1
 235 384 l 1,46,-1
 233 384 l 2,47,48
 176 384 176 384 139 333.5 c 128,-1,49
 102 283 102 283 102 220.5 c 128,-1,50
 102 158 102 158 128.5 114 c 128,-1,51
 155 70 155 70 200 53 c 1,45,-1
EndSplineSet
EndChar

StartChar: sterling
Encoding: 357 163 101
Width: 490
GlyphClass: 2
Flags: W
LayerCount: 2
Fore
SplineSet
421 146 m 2,0,1
 421 158 421 158 430 158 c 0,2,3
 451 156 451 156 464 141 c 128,-1,4
 477 126 477 126 477 105 c 0,5,6
 477 48 477 48 431 6 c 128,-1,7
 385 -36 385 -36 331.5 -36 c 128,-1,8
 278 -36 278 -36 245.5 -22 c 128,-1,9
 213 -8 213 -8 168.5 23.5 c 128,-1,10
 124 55 124 55 100 55 c 0,11,12
 95 55 95 55 80.5 39.5 c 128,-1,13
 66 24 66 24 55.5 5 c 128,-1,14
 45 -14 45 -14 26 -14 c 128,-1,15
 7 -14 7 -14 -1.5 -5 c 128,-1,16
 -10 4 -10 4 -10 19 c 128,-1,17
 -10 34 -10 34 20 59 c 128,-1,18
 50 84 50 84 86 91 c 0,19,20
 91 92 91 92 97 103 c 0,21,22
 124 151 124 151 129 299 c 1,23,-1
 45 293 l 2,24,25
 40 293 40 293 35.5 296.5 c 128,-1,26
 31 300 31 300 31 306 c 128,-1,27
 31 312 31 312 38.5 321 c 128,-1,28
 46 330 46 330 55 331 c 2,29,-1
 130 336 l 1,30,-1
 130 341 l 2,31,32
 130 499 130 499 226 584 c 0,33,34
 277 629 277 629 347 629 c 0,35,36
 448 629 448 629 448 547 c 0,37,38
 448 528 448 528 432.5 509.5 c 128,-1,39
 417 491 417 491 409 491 c 0,40,41
 400 490 400 490 398 492 c 0,42,43
 394 496 394 496 394 506 c 2,44,-1
 395 527 l 1,45,46
 394 552 394 552 372.5 576 c 128,-1,47
 351 600 351 600 326 600 c 0,48,49
 277 600 277 600 248 531.5 c 128,-1,50
 219 463 219 463 218 342 c 1,51,-1
 351 351 l 2,52,53
 357 351 357 351 361.5 346.5 c 128,-1,54
 366 342 366 342 364 337 c 0,55,56
 351 313 351 313 333 313 c 1,57,-1
 216 305 l 1,58,59
 209 244 209 244 182.5 182 c 128,-1,60
 156 120 156 120 135 102 c 0,61,62
 132 100 132 100 133 96.5 c 128,-1,63
 134 93 134 93 139 93 c 0,64,65
 202 93 202 93 266.5 62.5 c 128,-1,66
 331 32 331 32 377 32 c 0,67,68
 400 32 400 32 417 48.5 c 128,-1,69
 434 65 434 65 434 81 c 128,-1,70
 434 97 434 97 427.5 112.5 c 128,-1,71
 421 128 421 128 421 136 c 2,72,-1
 421 146 l 2,0,1
EndSplineSet
EndChar

StartChar: currency
Encoding: 358 164 102
Width: 483
GlyphClass: 2
Flags: W
LayerCount: 2
Fore
SplineSet
41 434 m 2,0,1
 38 437 38 437 38 442 c 0,2,3
 38 448 38 448 45 457 c 0,4,5
 57 472 57 472 65.5 472 c 128,-1,6
 74 472 74 472 77 469 c 2,7,-1
 122 424 l 1,8,9
 176 465 176 465 242.5 465 c 128,-1,10
 309 465 309 465 359 424 c 1,11,-1
 405 470 l 2,12,13
 408 473 408 473 416.5 473 c 128,-1,14
 425 473 425 473 437 458 c 0,15,16
 444 450 444 450 444 443 c 0,17,18
 444 437 444 437 439 433 c 2,19,-1
 394 388 l 1,20,21
 433 337 433 337 433 270 c 128,-1,22
 433 203 433 203 394 152 c 1,23,-1
 441 105 l 2,24,25
 444 102 444 102 444 97 c 0,26,27
 444 91 444 91 437 82 c 0,28,29
 425 67 425 67 416.5 67 c 128,-1,30
 408 67 408 67 405 70 c 2,31,-1
 359 116 l 1,32,33
 309 75 309 75 241 75 c 128,-1,34
 173 75 173 75 123 116 c 1,35,-1
 76 70 l 2,36,37
 73 67 73 67 64.5 67 c 128,-1,38
 56 67 56 67 44 82 c 0,39,40
 37 91 37 91 38 97 c 0,41,42
 38 101 38 101 41 105 c 2,43,-1
 88 152 l 1,44,45
 49 203 49 203 49 270 c 128,-1,46
 49 337 49 337 88 387 c 1,47,-1
 41 434 l 2,0,1
241 415 m 128,-1,49
 182 415 182 415 140.5 372.5 c 128,-1,50
 99 330 99 330 99 270 c 128,-1,51
 99 210 99 210 140.5 167.5 c 128,-1,52
 182 125 182 125 241 125 c 128,-1,53
 300 125 300 125 341.5 167.5 c 128,-1,54
 383 210 383 210 383 270 c 128,-1,55
 383 330 383 330 341.5 372.5 c 128,-1,48
 300 415 300 415 241 415 c 128,-1,49
EndSplineSet
EndChar

StartChar: yen
Encoding: 359 165 103
Width: 619
GlyphClass: 2
Flags: W
LayerCount: 2
Fore
SplineSet
315 0 m 1,0,-1
 187 -5 l 1,1,2
 158 -5 158 -5 158 6.5 c 128,-1,3
 158 18 158 18 191 24 c 0,4,5
 269 38 269 38 269 108 c 2,6,-1
 270 197 l 1,7,-1
 144 197 l 2,8,9
 139 197 139 197 134.5 200.5 c 128,-1,10
 130 204 130 204 130 210 c 128,-1,11
 130 216 130 216 137.5 224 c 128,-1,12
 145 232 145 232 154 232 c 2,13,-1
 270 232 l 1,14,-1
 270 256 l 2,15,16
 270 266 270 266 268 280 c 1,17,-1
 144 280 l 2,18,19
 139 280 139 280 134.5 284 c 128,-1,20
 130 288 130 288 130 293.5 c 128,-1,21
 130 299 130 299 137.5 307 c 128,-1,22
 145 315 145 315 154 315 c 2,23,-1
 260 315 l 1,24,25
 253 328 253 328 251 330 c 2,26,-1
 127 522 l 2,27,28
 69 611 69 611 37 620.5 c 128,-1,29
 5 630 5 630 5 641.5 c 128,-1,30
 5 653 5 653 34 653 c 2,31,-1
 151 650 l 1,32,-1
 231 652 l 2,33,34
 260 652 260 652 260 641 c 0,35,36
 260 632 260 632 238.5 625 c 128,-1,37
 217 618 217 618 210 612 c 128,-1,38
 203 606 203 606 199 592 c 0,39,40
 198 589 198 589 198 586 c 0,41,42
 198 575 198 575 208 560 c 1,43,-1
 301 395 l 2,44,45
 324 356 324 356 331.5 356 c 128,-1,46
 339 356 339 356 362 395 c 1,47,48
 418 477 418 477 445 534 c 0,49,50
 453 550 453 550 453 567 c 0,51,52
 453 577 453 577 450 587 c 0,53,54
 443 614 443 614 422 620 c 0,55,56
 389 629 389 629 389 640 c 128,-1,57
 389 651 389 651 418 651 c 2,58,-1
 493 650 l 1,59,-1
 589 653 l 2,60,61
 618 653 618 653 618 642 c 0,62,63
 618 629 618 629 581.5 621.5 c 128,-1,64
 545 614 545 614 485 526 c 1,65,-1
 373 346 l 1,66,67
 358 324 358 324 355 315 c 1,68,-1
 477 315 l 2,69,70
 483 315 483 315 487.5 310.5 c 128,-1,71
 492 306 492 306 490 301 c 0,72,73
 479 280 479 280 459 280 c 2,74,-1
 350 280 l 1,75,-1
 350 232 l 1,76,-1
 476 232 l 2,77,78
 482 232 482 232 486.5 227.5 c 128,-1,79
 491 223 491 223 489 218 c 0,80,81
 478 197 478 197 458 197 c 2,82,-1
 350 197 l 1,83,-1
 350 108 l 2,84,85
 350 38 350 38 428 24 c 0,86,87
 461 18 461 18 461 6.5 c 128,-1,88
 461 -5 461 -5 432 -5 c 1,89,-1
 315 0 l 1,0,-1
EndSplineSet
EndChar

StartChar: brokenbar
Encoding: 360 166 104
Width: 260
GlyphClass: 2
Flags: W
LayerCount: 2
Fore
SplineSet
140.5 283 m 128,-1,1
 121 276 121 276 114.5 276 c 128,-1,2
 108 276 108 276 104 283.5 c 128,-1,3
 100 291 100 291 100 299 c 2,4,-1
 100 674 l 2,5,6
 100 688 100 688 118 696.5 c 128,-1,7
 136 705 136 705 143.5 705 c 128,-1,8
 151 705 151 705 155.5 701 c 128,-1,9
 160 697 160 697 160 692 c 2,10,-1
 160 297 l 2,11,0
 160 290 160 290 140.5 283 c 128,-1,1
119.5 171 m 128,-1,13
 139 179 139 179 145 179 c 128,-1,14
 151 179 151 179 155.5 172 c 128,-1,15
 160 165 160 165 160 157 c 2,16,-1
 160 -266 l 2,17,18
 160 -279 160 -279 143 -284.5 c 128,-1,19
 126 -290 126 -290 117 -290 c 128,-1,20
 108 -290 108 -290 104 -285.5 c 128,-1,21
 100 -281 100 -281 100 -276 c 2,22,-1
 100 156 l 2,23,12
 100 163 100 163 119.5 171 c 128,-1,13
EndSplineSet
Substitution2: "'sups' Superscript lookup 20 subtable" brokenbar.sups
Substitution2: "'sinf' Scientific Inferiors lookup 19 subtable" brokenbar.sinf
Substitution2: "'ordn' Ordinals lookup 18 subtable" brokenbar.ordn
Substitution2: "'subs' Subscript lookup 17 subtable" brokenbar.subs
EndChar

StartChar: section
Encoding: 361 167 105
Width: 400
GlyphClass: 2
Flags: W
LayerCount: 2
Fore
SplineSet
95 454 m 0,0,1
 92 462 92 462 88.5 461.5 c 128,-1,2
 85 461 85 461 84 458 c 0,3,4
 73 416 73 416 73 376 c 0,5,6
 73 298 73 298 162 206 c 128,-1,7
 251 114 251 114 274 76 c 0,8,9
 282 62 282 62 285 54.5 c 128,-1,10
 288 47 288 47 291.5 47.5 c 128,-1,11
 295 48 295 48 296 51 c 0,12,13
 307 94 307 94 307 134 c 0,14,15
 307 212 307 212 218 303 c 0,16,17
 111 414 111 414 95 454 c 0,0,1
141 601 m 128,-1,19
 179 640 179 640 228.5 640 c 128,-1,20
 278 640 278 640 299 621 c 0,21,22
 311 611 311 611 311 603.5 c 128,-1,23
 311 596 311 596 298.5 576 c 128,-1,24
 286 556 286 556 276 556 c 128,-1,25
 266 556 266 556 260 562 c 0,26,27
 222 596 222 596 196 596 c 128,-1,28
 170 596 170 596 153.5 577.5 c 128,-1,29
 137 559 137 559 137 533 c 0,30,31
 137 478 137 478 241 385 c 0,32,33
 301 331 301 331 323.5 280 c 128,-1,34
 346 229 346 229 346 168.5 c 128,-1,35
 346 108 346 108 335 73 c 128,-1,36
 324 38 324 38 296 -11 c 0,37,38
 248 -94 248 -94 177 -137 c 0,39,40
 159 -148 159 -148 128 -148 c 128,-1,41
 97 -148 97 -148 79 -139 c 128,-1,42
 61 -130 61 -130 61 -116 c 0,43,44
 61 -85 61 -85 89 -64 c 0,45,46
 97 -59 97 -59 111 -70 c 1,47,48
 138 -94 138 -94 180 -94 c 0,49,50
 232 -94 232 -94 232 -12 c 0,51,52
 232 10 232 10 221 28 c 128,-1,53
 210 46 210 46 204 55 c 128,-1,54
 198 64 198 64 184 80 c 0,55,56
 133 135 133 135 118 149 c 0,57,58
 24 245 24 245 24 329 c 0,59,60
 24 391 24 391 40.5 432.5 c 128,-1,61
 57 474 57 474 90 513 c 1,62,18
 103 562 103 562 141 601 c 128,-1,19
EndSplineSet
Substitution2: "'sups' Superscript lookup 20 subtable" section.sups
Substitution2: "'sinf' Scientific Inferiors lookup 19 subtable" section.sinf
Substitution2: "'ordn' Ordinals lookup 18 subtable" section.ordn
Substitution2: "'subs' Subscript lookup 17 subtable" section.subs
EndChar

StartChar: dieresis
Encoding: 362 168 106
Width: 0
GlyphClass: 4
Flags: W
AnchorPoint: "Anchor-2" -182 531 mark 0
LayerCount: 2
Fore
SplineSet
-89 594 m 128,-1,1
 -70 594 -70 594 -54.5 578.5 c 128,-1,2
 -39 563 -39 563 -39 544 c 128,-1,3
 -39 525 -39 525 -54.5 509.5 c 128,-1,4
 -70 494 -70 494 -89 494 c 128,-1,5
 -108 494 -108 494 -123.5 509.5 c 128,-1,6
 -139 525 -139 525 -139 544 c 128,-1,7
 -139 563 -139 563 -123.5 578.5 c 128,-1,0
 -108 594 -108 594 -89 594 c 128,-1,1
-266 594 m 128,-1,9
 -247 594 -247 594 -231.5 578.5 c 128,-1,10
 -216 563 -216 563 -216 544 c 128,-1,11
 -216 525 -216 525 -231.5 509.5 c 128,-1,12
 -247 494 -247 494 -266 494 c 128,-1,13
 -285 494 -285 494 -300.5 509.5 c 128,-1,14
 -316 525 -316 525 -316 544 c 128,-1,15
 -316 563 -316 563 -300.5 578.5 c 128,-1,8
 -285 594 -285 594 -266 594 c 128,-1,9
EndSplineSet
Substitution2: "'case' Case-Sensitive Forms lookup 8 subtable" dieresis.cap
EndChar

StartChar: copyright
Encoding: 363 169 107
Width: 665
GlyphClass: 2
Flags: W
LayerCount: 2
Fore
SplineSet
346 590 m 128,-1,1
 237 590 237 590 160 513 c 128,-1,2
 83 436 83 436 83 326.5 c 128,-1,3
 83 217 83 217 159.5 137.5 c 128,-1,4
 236 58 236 58 345.5 58 c 128,-1,5
 455 58 455 58 532 137 c 128,-1,6
 609 216 609 216 609 326 c 128,-1,7
 609 436 609 436 532 513 c 128,-1,0
 455 590 455 590 346 590 c 128,-1,1
346 630 m 128,-1,9
 471 630 471 630 560 541 c 128,-1,10
 649 452 649 452 649 327 c 128,-1,11
 649 202 649 202 559.5 113 c 128,-1,12
 470 24 470 24 345 24 c 128,-1,13
 220 24 220 24 131.5 113 c 128,-1,14
 43 202 43 202 43 327 c 128,-1,15
 43 452 43 452 132 541 c 128,-1,8
 221 630 221 630 346 630 c 128,-1,9
462 225 m 0,16,17
 470 240 470 240 479 240 c 0,18,19
 484 240 484 240 484 229 c 128,-1,20
 484 218 484 218 477 200 c 128,-1,21
 470 182 470 182 464 176 c 0,22,23
 442 154 442 154 365.5 154 c 128,-1,24
 289 154 289 154 238.5 207 c 128,-1,25
 188 260 188 260 188 330 c 128,-1,26
 188 400 188 400 245.5 447 c 128,-1,27
 303 494 303 494 380 494 c 0,28,29
 406 494 406 494 421.5 490 c 128,-1,30
 437 486 437 486 452 482.5 c 128,-1,31
 467 479 467 479 471 478 c 0,32,33
 476 476 476 476 478 456 c 0,34,35
 480 441 480 441 479 430 c 0,36,37
 479 425 479 425 479 421 c 0,38,39
 478 406 478 406 474.5 401.5 c 128,-1,40
 471 397 471 397 468 398 c 1,41,42
 462 398 462 398 455 416.5 c 128,-1,43
 448 435 448 435 426 449.5 c 128,-1,44
 404 464 404 464 371 464 c 0,45,46
 321 464 321 464 289.5 425.5 c 128,-1,47
 258 387 258 387 258 329.5 c 128,-1,48
 258 272 258 272 289.5 228 c 128,-1,49
 321 184 321 184 381.5 184 c 128,-1,50
 442 184 442 184 462 225 c 0,16,17
EndSplineSet
EndChar

StartChar: ordfeminine
Encoding: 364 170 108
Width: 270
GlyphClass: 2
Flags: W
LayerCount: 2
Fore
SplineSet
49 196 m 2,0,-1
 255 196 l 2,1,2
 262 196 262 196 266 192 c 0,3,4
 269 189 269 189 269 185 c 0,5,6
 269 184 269 184 268 182 c 0,7,8
 257 161 257 161 237 161 c 2,9,-1
 39 161 l 2,10,11
 34 161 34 161 29.5 164.5 c 128,-1,12
 25 168 25 168 25 174 c 128,-1,13
 25 180 25 180 32.5 188 c 128,-1,14
 40 196 40 196 49 196 c 2,0,-1
80 342 m 0,15,16
 80 326 80 326 90.5 317 c 128,-1,17
 101 308 101 308 114.5 308 c 128,-1,18
 128 308 128 308 152 327 c 0,19,20
 159 333 159 333 159 350 c 2,21,-1
 160 379 l 2,22,23
 160 394 160 394 145 390 c 0,24,25
 80 372 80 372 80 342 c 0,15,16
242 276 m 128,-1,27
 230 268 230 268 216.5 268 c 128,-1,28
 203 268 203 268 190.5 276 c 128,-1,29
 178 284 178 284 171.5 291.5 c 128,-1,30
 165 299 165 299 163 299 c 0,31,32
 161 300 161 300 152 292 c 0,33,34
 124 268 124 268 84 268 c 0,35,36
 64 268 64 268 44.5 288.5 c 128,-1,37
 25 309 25 309 25 328 c 128,-1,38
 25 347 25 347 32.5 359.5 c 128,-1,39
 40 372 40 372 63 380 c 2,40,-1
 142 408 l 2,41,42
 155 412 155 412 157.5 416 c 128,-1,43
 160 420 160 420 160 432 c 2,44,-1
 160 455 l 2,45,46
 160 471 160 471 150 481 c 128,-1,47
 140 491 140 491 114 491 c 128,-1,48
 88 491 88 491 80 478 c 0,49,50
 78 474 78 474 78 453 c 0,51,52
 78 446 78 446 33 434 c 0,53,54
 30 433 30 433 28.5 436 c 128,-1,55
 27 439 27 439 33 454.5 c 128,-1,56
 39 470 39 470 55 483.5 c 128,-1,57
 71 497 71 497 101 510.5 c 128,-1,58
 131 524 131 524 154.5 524 c 128,-1,59
 178 524 178 524 197.5 508 c 128,-1,60
 217 492 217 492 216 471 c 2,61,-1
 213 347 l 2,62,63
 213 308 213 308 234 308 c 0,64,65
 250 308 250 308 255 315.5 c 128,-1,66
 260 323 260 323 267 309 c 0,67,68
 269 305 269 305 268 303 c 1,69,70
 268 300 268 300 260 292 c 1,71,26
 254 284 254 284 242 276 c 128,-1,27
EndSplineSet
EndChar

StartChar: guillemotleft
Encoding: 365 171 109
Width: 676
GlyphClass: 2
Flags: W
LayerCount: 2
Fore
SplineSet
467 255.5 m 128,-1,1
 449 241 449 241 431 226.5 c 128,-1,2
 413 212 413 212 413 210 c 128,-1,3
 413 208 413 208 419 203 c 0,4,5
 510 133 510 133 571 40 c 1,6,7
 575 32 575 32 573 25.5 c 128,-1,8
 571 19 571 19 565 19 c 2,9,-1
 563 19 l 1,10,11
 550 22 550 22 535 37 c 0,12,13
 435 134 435 134 330 182 c 0,14,15
 320 186 320 186 314.5 200 c 128,-1,16
 309 214 309 214 315 218 c 0,17,18
 461 305 461 305 541 382 c 0,19,20
 556 397 556 397 569 400 c 1,21,-1
 570 400 l 2,22,23
 576 400 576 400 576 391 c 0,24,25
 576 372 576 372 515 304 c 0,26,0
 485 270 485 270 467 255.5 c 128,-1,1
255 255.5 m 128,-1,28
 237 241 237 241 219 226.5 c 128,-1,29
 201 212 201 212 201 210 c 128,-1,30
 201 208 201 208 207 203 c 0,31,32
 298 133 298 133 359 40 c 1,33,34
 363 32 363 32 361 25.5 c 128,-1,35
 359 19 359 19 353 19 c 2,36,-1
 351 19 l 1,37,38
 338 22 338 22 323 37 c 0,39,40
 223 134 223 134 118 182 c 0,41,42
 108 186 108 186 102 200 c 0,43,44
 99 207 99 207 100 211 c 1,45,46
 100 216 100 216 103 218 c 0,47,48
 249 305 249 305 329 382 c 0,49,50
 344 397 344 397 357 400 c 1,51,-1
 358 400 l 2,52,53
 364 400 364 400 364 391 c 0,54,55
 364 372 364 372 303 304 c 0,56,27
 273 270 273 270 255 255.5 c 128,-1,28
EndSplineSet
EndChar

StartChar: logicalnot
Encoding: 366 172 110
Width: 600
GlyphClass: 2
Flags: W
LayerCount: 2
Fore
SplineSet
64 322 m 2,0,1
 59 322 59 322 54.5 326 c 128,-1,2
 50 330 50 330 50 334.5 c 128,-1,3
 50 339 50 339 51 345.5 c 128,-1,4
 52 352 52 352 54 361 c 0,5,6
 59 382 59 382 74 382 c 2,7,-1
 537 382 l 2,8,9
 542 382 542 382 546 377.5 c 128,-1,10
 550 373 550 373 550 368 c 2,11,-1
 550 67 l 2,12,13
 550 54 550 54 533 48.5 c 128,-1,14
 516 43 516 43 507 43 c 128,-1,15
 498 43 498 43 494 47.5 c 128,-1,16
 490 52 490 52 490 57 c 2,17,-1
 490 304 l 2,18,19
 490 322 490 322 476 322 c 2,20,-1
 64 322 l 2,0,1
EndSplineSet
EndChar

StartChar: uni00AD
Encoding: 367 173 111
Width: 274
GlyphClass: 2
Flags: W
LayerCount: 2
Fore
SplineSet
39 170 m 1,0,1
 39 170 39 170 35 170 c 0,2,3
 29 170 29 170 29 176 c 0,4,5
 34 229 34 229 45 230 c 0,6,7
 173 248 173 248 237 255 c 0,8,9
 245 255 245 255 245 249 c 0,10,11
 241 197 241 197 224 195 c 0,12,13
 107 177 107 177 39 170 c 1,0,1
EndSplineSet
EndChar

StartChar: registered
Encoding: 368 174 112
Width: 337
GlyphClass: 2
Flags: W
LayerCount: 2
Fore
SplineSet
160 630 m 128,-1,1
 124 630 124 630 98.5 604.5 c 128,-1,2
 73 579 73 579 73 543 c 128,-1,3
 73 507 73 507 98.5 481.5 c 128,-1,4
 124 456 124 456 160 456 c 128,-1,5
 196 456 196 456 221.5 481.5 c 128,-1,6
 247 507 247 507 247 543 c 128,-1,7
 247 579 247 579 221.5 604.5 c 128,-1,0
 196 630 196 630 160 630 c 128,-1,1
160 650 m 128,-1,9
 204 650 204 650 235.5 618.5 c 128,-1,10
 267 587 267 587 267 543 c 128,-1,11
 267 499 267 499 235.5 467.5 c 128,-1,12
 204 436 204 436 160 436 c 128,-1,13
 116 436 116 436 84.5 467.5 c 128,-1,14
 53 499 53 499 53 543 c 128,-1,15
 53 587 53 587 84.5 618.5 c 128,-1,8
 116 650 116 650 160 650 c 128,-1,9
169.5 555.5 m 128,-1,17
 176 560 176 560 176 567.5 c 128,-1,18
 176 575 176 575 171 582 c 128,-1,19
 166 589 166 589 159 589 c 0,20,21
 148 589 148 589 148 580 c 2,22,-1
 148 557 l 2,23,24
 148 551 148 551 155.5 551 c 128,-1,16
 163 551 163 551 169.5 555.5 c 128,-1,17
107 488 m 2,25,26
 106 488 106 488 106 492.5 c 128,-1,27
 106 497 106 497 107 497 c 0,28,29
 123 503 123 503 123 509 c 2,30,-1
 123 571 l 2,31,32
 123 580 123 580 111 584 c 1,33,34
 107 584 107 584 108 590.5 c 128,-1,35
 109 597 109 597 111 597 c 0,36,37
 136 603 136 603 157 603 c 128,-1,38
 178 603 178 603 189.5 594.5 c 128,-1,39
 201 586 201 586 201 569 c 128,-1,40
 201 552 201 552 182 547 c 0,41,42
 180 547 180 547 184 537 c 0,43,44
 195 508 195 508 208 500 c 1,45,46
 219 489 219 489 219 487 c 128,-1,47
 219 485 219 485 207 485 c 0,48,49
 178 485 178 485 164 528 c 0,50,51
 162 534 162 534 155 534 c 128,-1,52
 148 534 148 534 148 531 c 2,53,-1
 148 509 l 2,54,55
 148 501 148 501 163 498 c 0,56,57
 164 497 164 497 164 492.5 c 128,-1,58
 164 488 164 488 163 488 c 2,59,-1
 107 488 l 2,25,26
EndSplineSet
EndChar

StartChar: degree
Encoding: 370 176 114
Width: 290
GlyphClass: 2
Flags: W
LayerCount: 2
Fore
SplineSet
145 645 m 128,-1,1
 193 645 193 645 229 610.5 c 128,-1,2
 265 576 265 576 265 528 c 128,-1,3
 265 480 265 480 228.5 441 c 128,-1,4
 192 402 192 402 145 402 c 128,-1,5
 98 402 98 402 61.5 441 c 128,-1,6
 25 480 25 480 25 528 c 128,-1,7
 25 576 25 576 61 610.5 c 128,-1,0
 97 645 97 645 145 645 c 128,-1,1
93.5 575.5 m 128,-1,9
 72 554 72 554 72 523.5 c 128,-1,10
 72 493 72 493 93.5 471 c 128,-1,11
 115 449 115 449 145 449 c 128,-1,12
 175 449 175 449 196.5 471 c 128,-1,13
 218 493 218 493 218 523.5 c 128,-1,14
 218 554 218 554 196.5 575.5 c 128,-1,15
 175 597 175 597 145 597 c 128,-1,8
 115 597 115 597 93.5 575.5 c 128,-1,9
EndSplineSet
EndChar

StartChar: plusminus
Encoding: 371 177 115
Width: 590
GlyphClass: 2
Flags: W
LayerCount: 2
Fore
SplineSet
64 38 m 2,0,1
 59 38 59 38 54.5 42 c 128,-1,2
 50 46 50 46 50 53.5 c 128,-1,3
 50 61 50 61 56 74.5 c 128,-1,4
 62 88 62 88 74 88 c 2,5,-1
 527 88 l 2,6,7
 534 88 534 88 538 84 c 0,8,9
 541 81 541 81 540 77 c 0,10,11
 540 74 540 74 539 70 c 0,12,13
 536 62 536 62 534 56 c 0,14,15
 526 37 526 37 509 38 c 1,16,-1
 64 38 l 2,0,1
320 407 m 2,17,18
 320 402 320 402 320.5 401.5 c 128,-1,19
 321 401 321 401 324 401 c 2,20,-1
 527 401 l 1,21,22
 534 400 534 400 538 396 c 0,23,24
 541 393 541 393 540 390 c 0,25,26
 540 388 540 388 539 384 c 0,27,28
 536 376 536 376 534 370 c 0,29,30
 526 351 526 351 509 351 c 2,31,-1
 324 351 l 2,32,33
 320 351 320 351 320 347 c 2,34,-1
 320 145 l 2,35,36
 320 133 320 133 306.5 127 c 128,-1,37
 293 121 293 121 285.5 121 c 128,-1,38
 278 121 278 121 274 125.5 c 128,-1,39
 270 130 270 130 270 135 c 2,40,-1
 270 346 l 2,41,42
 270 351 270 351 266 351 c 2,43,-1
 64 351 l 2,44,45
 59 351 59 351 54.5 354.5 c 128,-1,46
 50 358 50 358 50 366 c 128,-1,47
 50 374 50 374 56 387.5 c 128,-1,48
 62 401 62 401 74 401 c 2,49,-1
 263 401 l 2,50,51
 270 401 270 401 270 409 c 2,52,-1
 270 580 l 2,53,54
 270 592 270 592 284.5 601.5 c 128,-1,55
 299 611 299 611 305 611 c 128,-1,56
 311 611 311 611 315.5 607 c 128,-1,57
 320 603 320 603 320 598 c 2,58,-1
 320 407 l 2,17,18
EndSplineSet
EndChar

StartChar: uni00B2
Encoding: 372 178 116
Width: 300
GlyphClass: 2
Flags: W
LayerCount: 2
Fore
SplineSet
42 678 m 1,0,1
 40 673 40 673 36 672.5 c 128,-1,2
 32 672 32 672 29 675 c 128,-1,3
 26 678 26 678 26 683 c 0,4,5
 26 704 26 704 61.5 737 c 128,-1,6
 97 770 97 770 139 770 c 128,-1,7
 181 770 181 770 207.5 742.5 c 128,-1,8
 234 715 234 715 234 677 c 0,9,10
 234 651 234 651 225 636.5 c 128,-1,11
 216 622 216 622 214 619 c 2,12,-1
 207 608 l 2,13,14
 187 576 187 576 124 519 c 0,15,16
 103 500 103 500 100.5 497.5 c 128,-1,17
 98 495 98 495 103 493.5 c 128,-1,18
 108 492 108 492 113 492 c 2,19,-1
 182 492 l 2,20,21
 204 492 204 492 224.5 505.5 c 128,-1,22
 245 519 245 519 256 542 c 0,23,24
 260 552 260 552 271 550 c 0,25,26
 275 550 275 550 275 546 c 0,27,28
 275 544 275 544 274 541 c 0,29,30
 254 485 254 485 249.5 461 c 128,-1,31
 245 437 245 437 238 437 c 2,32,-1
 235 437 l 1,33,34
 184 440 184 440 131.5 440 c 128,-1,35
 79 440 79 440 28 438 c 0,36,37
 23 437 23 437 23 444 c 0,38,39
 23 449 23 449 28 454 c 2,40,-1
 67 494 l 1,41,-1
 102 528 l 1,42,43
 178 600 178 600 178 651 c 1,44,45
 179 679 179 679 162 697.5 c 128,-1,46
 145 716 145 716 119.5 716 c 128,-1,47
 94 716 94 716 78.5 708.5 c 128,-1,48
 63 701 63 701 42 678 c 1,0,1
EndSplineSet
EndChar

StartChar: uni00B3
Encoding: 373 179 117
Width: 300
GlyphClass: 2
Flags: W
LayerCount: 2
Fore
SplineSet
112 434 m 0,0,1
 46 434 46 434 46 467 c 0,2,3
 46 474 46 474 52 484.5 c 128,-1,4
 58 495 58 495 65 495 c 128,-1,5
 72 495 72 495 77 490 c 1,6,7
 110 468 110 468 142 468 c 0,8,9
 153 468 153 468 164 470.5 c 128,-1,10
 175 473 175 473 188 488.5 c 128,-1,11
 201 504 201 504 201 530.5 c 128,-1,12
 201 557 201 557 181.5 576 c 128,-1,13
 162 595 162 595 134 595 c 0,14,15
 123 595 123 595 108.5 591 c 128,-1,16
 94 587 94 587 89.5 588.5 c 128,-1,17
 85 590 85 590 83 593.5 c 128,-1,18
 81 597 81 597 86.5 602.5 c 128,-1,19
 92 608 92 608 110 614.5 c 128,-1,20
 128 621 128 621 132 624 c 2,21,-1
 146 633 l 2,22,23
 173 650 173 650 178 658 c 0,24,25
 187 674 187 674 187 687.5 c 128,-1,26
 187 701 187 701 171 712 c 128,-1,27
 155 723 155 723 140 723 c 0,28,29
 104 723 104 723 68 693 c 0,30,31
 61 686 61 686 58 687 c 0,32,33
 49 692 49 692 52 698 c 0,34,35
 89 770 89 770 155 770 c 1,36,37
 243 768 243 768 243 699 c 0,38,39
 243 662 243 662 184 632 c 0,40,41
 181 630 181 630 181 628.5 c 128,-1,42
 181 627 181 627 184 627 c 0,43,44
 212 625 212 625 232.5 606.5 c 128,-1,45
 253 588 253 588 253 561 c 0,46,47
 253 505 253 505 206 469.5 c 128,-1,48
 159 434 159 434 112 434 c 0,0,1
EndSplineSet
EndChar

StartChar: acute
Encoding: 374 180 118
Width: 382
GlyphClass: 2
Flags: W
LayerCount: 2
Fore
SplineSet
286 664 m 0,0,1
 299 664 299 664 310 655.5 c 128,-1,2
 321 647 321 647 321 638 c 0,3,4
 320 628 320 628 304 612 c 0,5,6
 232 540 232 540 183 471 c 0,7,8
 167 449 167 449 155 449 c 128,-1,9
 143 449 143 449 143 460.5 c 128,-1,10
 143 472 143 472 178.5 536.5 c 128,-1,11
 214 601 214 601 233 632.5 c 128,-1,12
 252 664 252 664 286 664 c 0,0,1
EndSplineSet
Substitution2: "'case' Case-Sensitive Forms lookup 8 subtable" acute.cap
EndChar

StartChar: uni00B5
Encoding: 375 181 119
Width: 510
GlyphClass: 2
Flags: W
LayerCount: 2
Fore
SplineSet
38 92 m 1,0,-1
 31 332 l 1,1,2
 31 368 31 368 43.5 393 c 128,-1,3
 56 418 56 418 83 418 c 0,4,5
 122 418 122 418 122 343 c 0,6,7
 122 322 122 322 106.5 237 c 128,-1,8
 91 152 91 152 91 130.5 c 128,-1,9
 91 109 91 109 115 79.5 c 128,-1,10
 139 50 139 50 169 50 c 0,11,12
 241 50 241 50 279 122 c 0,13,14
 303 168 303 168 310 210.5 c 128,-1,15
 317 253 317 253 317 313 c 2,16,-1
 317 332 l 2,17,18
 317 365 317 365 329.5 390 c 128,-1,19
 342 415 342 415 366 415 c 0,20,21
 405 415 405 415 405 352 c 0,22,23
 405 336 405 336 381 263 c 128,-1,24
 357 190 357 190 357 159 c 128,-1,25
 357 128 357 128 373.5 96 c 128,-1,26
 390 64 390 64 420 64 c 0,27,28
 465 64 465 64 485 104 c 0,29,30
 490 113 490 113 497 108.5 c 128,-1,31
 504 104 504 104 504 100 c 128,-1,32
 504 96 504 96 504 91 c 0,33,34
 504 63 504 63 488 36 c 1,35,36
 468 5 468 5 450.5 -5 c 128,-1,37
 433 -15 433 -15 407.5 -15 c 128,-1,38
 382 -15 382 -15 368 -2 c 128,-1,39
 354 11 354 11 339 48 c 1,40,41
 330 76 330 76 326 114 c 1,42,43
 306 66 306 66 260 17 c 0,44,45
 232 -13 232 -13 204.5 -13 c 128,-1,46
 177 -13 177 -13 155.5 -2 c 128,-1,47
 134 9 134 9 114 25 c 0,48,49
 94 42 94 42 88 48 c 0,50,51
 75 62 75 62 70 62 c 0,52,53
 60 62 60 62 60 30 c 0,54,55
 60 -5 60 -5 72 -78 c 0,56,57
 82 -136 82 -136 124 -220 c 0,58,59
 138 -248 138 -248 137 -254 c 1,60,61
 137 -285 137 -285 109 -285 c 0,62,63
 66 -285 66 -285 46 -234 c 0,64,65
 40 -217 40 -217 35.5 -140.5 c 128,-1,66
 31 -64 31 -64 31 0 c 1,67,-1
 38 92 l 1,0,-1
EndSplineSet
EndChar

StartChar: paragraph
Encoding: 376 182 120
Width: 586
GlyphClass: 2
Flags: W
LayerCount: 2
Fore
SplineSet
523 600 m 2,0,-1
 451 607 l 2,1,2
 444 607 444 607 438.5 601.5 c 128,-1,3
 433 596 433 596 433 589 c 2,4,-1
 433 -166 l 2,5,6
 433 -205 433 -205 401 -246 c 128,-1,7
 369 -287 369 -287 326.5 -287 c 128,-1,8
 284 -287 284 -287 258 -263.5 c 128,-1,9
 232 -240 232 -240 232 -209 c 128,-1,10
 232 -178 232 -178 252.5 -159 c 128,-1,11
 273 -140 273 -140 298 -140 c 128,-1,12
 323 -140 323 -140 339.5 -152.5 c 128,-1,13
 356 -165 356 -165 356 -182.5 c 128,-1,14
 356 -200 356 -200 345 -213.5 c 128,-1,15
 334 -227 334 -227 322 -227 c 128,-1,16
 310 -227 310 -227 293 -217.5 c 128,-1,17
 276 -208 276 -208 272 -208 c 128,-1,18
 268 -208 268 -208 268 -222.5 c 128,-1,19
 268 -237 268 -237 282 -249.5 c 128,-1,20
 296 -262 296 -262 323 -262 c 128,-1,21
 350 -262 350 -262 372 -238.5 c 128,-1,22
 394 -215 394 -215 394 -180 c 2,23,-1
 394 94 l 2,24,25
 394 119 394 119 381 119 c 0,26,27
 297 119 297 119 222.5 146 c 128,-1,28
 148 173 148 173 97.5 231 c 128,-1,29
 47 289 47 289 47 360 c 128,-1,30
 47 431 47 431 79 485 c 0,31,32
 112 540 112 540 164 574 c 0,33,34
 273 646 273 646 415 645 c 0,35,36
 478 645 478 645 526 643 c 0,37,38
 541 642 541 642 541 622 c 0,39,40
 541 615 541 615 535 607.5 c 128,-1,41
 529 600 529 600 523 600 c 2,0,-1
EndSplineSet
Substitution2: "'sups' Superscript lookup 20 subtable" paragraph.sups
Substitution2: "'sinf' Scientific Inferiors lookup 19 subtable" paragraph.sinf
Substitution2: "'ordn' Ordinals lookup 18 subtable" paragraph.ordn
Substitution2: "'subs' Subscript lookup 17 subtable" paragraph.subs
EndChar

StartChar: periodcentered
Encoding: 377 183 121
Width: 200
GlyphClass: 2
Flags: W
LayerCount: 2
Fore
SplineSet
100 260 m 128,-1,1
 122 260 122 260 138.5 244 c 128,-1,2
 155 228 155 228 155 205 c 128,-1,3
 155 182 155 182 138.5 166 c 128,-1,4
 122 150 122 150 100 150 c 128,-1,5
 78 150 78 150 61.5 166 c 128,-1,6
 45 182 45 182 45 205 c 128,-1,7
 45 228 45 228 61.5 244 c 128,-1,0
 78 260 78 260 100 260 c 128,-1,1
EndSplineSet
EndChar

StartChar: uni00B9
Encoding: 379 185 123
Width: 300
GlyphClass: 2
Flags: W
LayerCount: 2
Fore
SplineSet
183 716 m 2,0,-1
 182 589 l 2,1,2
 182 534 182 534 183 507.5 c 128,-1,3
 184 481 184 481 191.5 475 c 128,-1,4
 199 469 199 469 233 464 c 0,5,6
 245 462 245 462 245 450.5 c 128,-1,7
 245 439 245 439 233 439 c 0,8,9
 201 439 201 439 182.5 441.5 c 128,-1,10
 164 444 164 444 151 444 c 128,-1,11
 138 444 138 444 118.5 441.5 c 128,-1,12
 99 439 99 439 69 439 c 0,13,14
 64 439 64 439 60 445 c 0,15,16
 58 449 58 449 57 452 c 0,17,18
 56 456 56 456 58 458 c 1,19,20
 60 464 60 464 73 464.5 c 128,-1,21
 86 465 86 465 95.5 467.5 c 128,-1,22
 105 470 105 470 114 480.5 c 128,-1,23
 123 491 123 491 123 510 c 2,24,-1
 123 663 l 2,25,26
 123 691 123 691 69 710 c 0,27,28
 58 714 58 714 58 723 c 0,29,30
 58 736 58 736 68 737 c 0,31,32
 103 741 103 741 124.5 753.5 c 128,-1,33
 146 766 146 766 158 774 c 0,34,35
 174 784 174 784 178 784 c 0,36,37
 189 784 189 784 186 764 c 128,-1,38
 183 744 183 744 183 716 c 2,0,-1
EndSplineSet
EndChar

StartChar: ordmasculine
Encoding: 380 186 124
Width: 309
GlyphClass: 2
Flags: W
LayerCount: 2
Fore
SplineSet
49 196 m 2,0,-1
 271 196 l 2,1,2
 278 196 278 196 282 192 c 0,3,4
 285 189 285 189 285 185 c 0,5,6
 285 184 285 184 284 182 c 0,7,8
 273 161 273 161 253 161 c 2,9,-1
 39 161 l 2,10,11
 34 161 34 161 29.5 164.5 c 128,-1,12
 25 168 25 168 25 174 c 128,-1,13
 25 180 25 180 32.5 188 c 128,-1,14
 40 196 40 196 49 196 c 2,0,-1
202.5 460.5 m 128,-1,16
 182 491 182 491 149.5 491 c 128,-1,17
 117 491 117 491 101.5 465.5 c 128,-1,18
 86 440 86 440 86 400 c 128,-1,19
 86 360 86 360 107 329.5 c 128,-1,20
 128 299 128 299 159.5 299 c 128,-1,21
 191 299 191 299 207 324.5 c 128,-1,22
 223 350 223 350 223 390 c 128,-1,15
 223 430 223 430 202.5 460.5 c 128,-1,16
65 484 m 128,-1,24
 105 524 105 524 157 524 c 128,-1,25
 209 524 209 524 246.5 488 c 128,-1,26
 284 452 284 452 284 400 c 128,-1,27
 284 348 284 348 248 308 c 128,-1,28
 212 268 212 268 154.5 268 c 128,-1,29
 97 268 97 268 61 301.5 c 128,-1,30
 25 335 25 335 25 389.5 c 128,-1,23
 25 444 25 444 65 484 c 128,-1,24
EndSplineSet
EndChar

StartChar: guillemotright
Encoding: 381 187 125
Width: 676
GlyphClass: 2
Flags: W
LayerCount: 2
Fore
SplineSet
263 210 m 128,-1,1
 263 212 263 212 245 226.5 c 128,-1,2
 227 241 227 241 209 255.5 c 128,-1,3
 191 270 191 270 161 303.5 c 128,-1,4
 131 337 131 337 105 376 c 0,5,6
 100 384 100 384 100 392 c 128,-1,7
 100 400 100 400 105 400 c 2,8,-1
 107 400 l 1,9,10
 117 398 117 398 135 382 c 0,11,12
 215 305 215 305 361 218 c 0,13,14
 367 214 367 214 361.5 200 c 128,-1,15
 356 186 356 186 346 182 c 0,16,17
 241 134 241 134 141 37 c 1,18,19
 123 21 123 21 113 19 c 1,20,-1
 111 19 l 2,21,22
 105 19 105 19 103 25.5 c 128,-1,23
 101 32 101 32 105 40 c 1,24,25
 166 133 166 133 257 203 c 0,26,0
 263 208 263 208 263 210 c 128,-1,1
475 210 m 128,-1,28
 475 212 475 212 457 226.5 c 128,-1,29
 439 241 439 241 421 255.5 c 128,-1,30
 403 270 403 270 373 303.5 c 128,-1,31
 343 337 343 337 317 376 c 0,32,33
 312 384 312 384 312 392 c 128,-1,34
 312 400 312 400 317 400 c 2,35,-1
 319 400 l 1,36,37
 329 398 329 398 347 382 c 0,38,39
 427 305 427 305 573 218 c 0,40,41
 576 216 576 216 576 211 c 0,42,43
 576 207 576 207 574 200 c 0,44,45
 568 186 568 186 558 182 c 0,46,47
 453 134 453 134 353 37 c 1,48,49
 335 21 335 21 325 19 c 1,50,-1
 323 19 l 2,51,52
 317 19 317 19 315 25.5 c 128,-1,53
 313 32 313 32 317 40 c 1,54,55
 378 133 378 133 469 203 c 0,56,27
 475 208 475 208 475 210 c 128,-1,28
EndSplineSet
EndChar

StartChar: onequarter
Encoding: 382 188 126
Width: 641
GlyphClass: 2
Flags: W
LayerCount: 2
Fore
SplineSet
121 -11 m 2,0,-1
 533 638 l 2,1,2
 544 655 544 655 572 655 c 0,3,4
 578 655 578 655 583 649 c 128,-1,5
 588 643 588 643 585 638 c 2,6,-1
 173 -11 l 2,7,8
 164 -26 164 -26 137 -26 c 0,9,10
 130 -26 130 -26 123.5 -21 c 128,-1,11
 117 -16 117 -16 121 -11 c 2,0,-1
502 148 m 2,12,13
 510 148 510 148 510 153 c 2,14,-1
 510 264 l 2,15,16
 510 266 510 266 508 266 c 128,-1,17
 506 266 506 266 504 265 c 0,18,19
 465 222 465 222 411 153 c 0,20,21
 408 148 408 148 411 148 c 2,22,-1
 502 148 l 2,12,13
618 107 m 2,23,-1
 584 108 l 2,24,25
 562 108 562 108 562 103 c 2,26,-1
 562 19 l 2,27,28
 562 9 562 9 543.5 -0.5 c 128,-1,29
 525 -10 525 -10 519 -10 c 0,30,31
 510 -10 510 -10 510 -2 c 2,32,-1
 510 100 l 2,33,34
 510 105 510 105 501 105 c 2,35,-1
 355 101 l 2,36,37
 352 101 352 101 349.5 104 c 128,-1,38
 347 107 347 107 349 109 c 0,39,40
 380 150 380 150 436 219 c 0,41,42
 541 347 541 347 553 350 c 0,43,44
 556 351 556 351 558 348 c 128,-1,45
 560 345 560 345 560 342 c 0,46,47
 560 225 560 225 562 151 c 0,48,49
 562 147 562 147 565 147 c 2,50,-1
 583 147 l 1,51,52
 608 148 608 148 620 148 c 0,53,54
 631 148 631 148 631 143 c 0,55,56
 631 107 631 107 618 107 c 2,23,-1
165 433 m 1,57,-1
 166 354 l 2,58,59
 167 326 167 326 174.5 319.5 c 128,-1,60
 182 313 182 313 216 308 c 0,61,62
 224 307 224 307 227 301 c 0,63,64
 229 298 229 298 228.5 295 c 128,-1,65
 228 292 228 292 227 289 c 0,66,67
 224 283 224 283 216 283 c 0,68,69
 184 283 184 283 165.5 285.5 c 128,-1,70
 147 288 147 288 134 288 c 128,-1,71
 121 288 121 288 101.5 285.5 c 128,-1,72
 82 283 82 283 52 283 c 0,73,74
 46 283 46 283 43 289 c 0,75,76
 41 293 41 293 41 296 c 0,77,78
 41 300 41 300 42 302 c 0,79,80
 44 308 44 308 56.5 308.5 c 128,-1,81
 69 309 69 309 78.5 311.5 c 128,-1,82
 88 314 88 314 97 324.5 c 128,-1,83
 106 335 106 335 106 354 c 2,84,-1
 106 507 l 2,85,86
 106 535 106 535 52 554 c 0,87,88
 41 558 41 558 41 567 c 0,89,90
 41 580 41 580 51 581 c 0,91,92
 86 585 86 585 108 598 c 0,93,94
 128 610 128 610 140 618 c 0,95,96
 156 628 156 628 161 628 c 0,97,98
 172 628 172 628 170 614 c 0,99,100
 166 586 166 586 166 544 c 2,101,-1
 165 433 l 1,57,-1
EndSplineSet
EndChar

StartChar: onehalf
Encoding: 383 189 127
Width: 699
GlyphClass: 2
Flags: W
LayerCount: 2
Fore
SplineSet
443 232 m 1,0,1
 441 227 441 227 437 226.5 c 128,-1,2
 433 226 433 226 430 229 c 128,-1,3
 427 232 427 232 427 237 c 0,4,5
 427 258 427 258 462.5 291 c 128,-1,6
 498 324 498 324 540 324 c 128,-1,7
 582 324 582 324 608.5 296.5 c 128,-1,8
 635 269 635 269 635 231 c 0,9,10
 635 205 635 205 626 190.5 c 128,-1,11
 617 176 617 176 615 173 c 2,12,-1
 608 162 l 2,13,14
 588 130 588 130 525 73 c 0,15,16
 504 54 504 54 501.5 51.5 c 128,-1,17
 499 49 499 49 504.5 47.5 c 128,-1,18
 510 46 510 46 514 46 c 2,19,-1
 583 46 l 2,20,21
 605 46 605 46 625.5 59.5 c 128,-1,22
 646 73 646 73 657 96 c 0,23,24
 661 106 661 106 672 104 c 0,25,26
 676 104 676 104 676 100 c 0,27,28
 676 98 676 98 675 95 c 0,29,30
 655 39 655 39 651 18.5 c 128,-1,31
 647 -2 647 -2 645 -6 c 1,32,33
 642 -9 642 -9 640 -9 c 2,34,-1
 636 -9 l 1,35,36
 585 -6 585 -6 532.5 -6 c 128,-1,37
 480 -6 480 -6 429 -8 c 0,38,39
 426 -9 426 -9 425 -4 c 0,40,41
 424 2 424 2 429 8 c 2,42,-1
 468 48 l 1,43,-1
 504 82 l 2,44,45
 580 154 580 154 579 205 c 1,46,47
 580 233 580 233 563 251.5 c 128,-1,48
 546 270 546 270 520.5 270 c 128,-1,49
 495 270 495 270 479.5 262.5 c 128,-1,50
 464 255 464 255 443 232 c 1,0,1
121 -11 m 2,51,-1
 533 638 l 2,52,53
 544 655 544 655 572 655 c 0,54,55
 578 655 578 655 583 649 c 0,56,57
 586 645 586 645 586 642 c 0,58,59
 586 640 586 640 585 638 c 2,60,-1
 173 -11 l 2,61,62
 164 -26 164 -26 137 -26 c 0,63,64
 130 -26 130 -26 123.5 -21 c 128,-1,65
 117 -16 117 -16 121 -11 c 2,51,-1
165 433 m 1,66,-1
 166 354 l 2,67,68
 167 326 167 326 174.5 319.5 c 128,-1,69
 182 313 182 313 216 308 c 0,70,71
 224 307 224 307 227 301 c 0,72,73
 229 298 229 298 228.5 295 c 128,-1,74
 228 292 228 292 227 289 c 0,75,76
 224 283 224 283 216 283 c 0,77,78
 184 283 184 283 165.5 285.5 c 128,-1,79
 147 288 147 288 134 288 c 128,-1,80
 121 288 121 288 101.5 285.5 c 128,-1,81
 82 283 82 283 52 283 c 0,82,83
 46 283 46 283 43 289 c 0,84,85
 41 293 41 293 41 296 c 0,86,87
 41 300 41 300 42 302 c 0,88,89
 44 308 44 308 56.5 308.5 c 128,-1,90
 69 309 69 309 78.5 311.5 c 128,-1,91
 88 314 88 314 97 324.5 c 128,-1,92
 106 335 106 335 106 354 c 2,93,-1
 106 507 l 2,94,95
 106 535 106 535 52 554 c 0,96,97
 41 558 41 558 41 567 c 0,98,99
 41 580 41 580 51 581 c 0,100,101
 86 585 86 585 108 598 c 0,102,103
 128 610 128 610 140 618 c 0,104,105
 156 628 156 628 161 628 c 0,106,107
 172 628 172 628 170 614 c 0,108,109
 166 586 166 586 166 544 c 2,110,-1
 165 433 l 1,66,-1
EndSplineSet
EndChar

StartChar: threequarters
Encoding: 384 190 128
Width: 641
GlyphClass: 2
Flags: W
LayerCount: 2
Fore
SplineSet
121 274 m 0,0,1
 53 274 53 274 53 307 c 0,2,3
 53 314 53 314 59 324.5 c 128,-1,4
 65 335 65 335 72 335 c 128,-1,5
 79 335 79 335 84 330 c 1,6,7
 117 308 117 308 151 308 c 0,8,9
 168 308 168 308 189 325.5 c 128,-1,10
 210 343 210 343 210 377 c 128,-1,11
 210 411 210 411 190.5 434 c 128,-1,12
 171 457 171 457 143 457 c 0,13,14
 132 457 132 457 117.5 453 c 128,-1,15
 103 449 103 449 98.5 450.5 c 128,-1,16
 94 452 94 452 92 455.5 c 128,-1,17
 90 459 90 459 95.5 464.5 c 128,-1,18
 101 470 101 470 119 476 c 0,19,20
 138 483 138 483 142 486 c 2,21,-1
 156 495 l 2,22,23
 183 512 183 512 187 520 c 0,24,25
 196 536 196 536 196 549.5 c 128,-1,26
 196 563 196 563 180 574 c 128,-1,27
 164 585 164 585 149 585 c 0,28,29
 113 585 113 585 77 555 c 0,30,31
 70 548 70 548 67 549 c 0,32,33
 58 554 58 554 61 560 c 0,34,35
 98 632 98 632 164 632 c 1,36,37
 252 630 252 630 252 561 c 0,38,39
 252 524 252 524 193 494 c 0,40,41
 190 492 190 492 190 490.5 c 128,-1,42
 190 489 190 489 193 489 c 0,43,44
 225 488 225 488 243.5 462 c 128,-1,45
 262 436 262 436 262 401 c 0,46,47
 262 345 262 345 215 309.5 c 128,-1,48
 168 274 168 274 121 274 c 0,0,1
121 -11 m 2,49,-1
 533 638 l 2,50,51
 544 655 544 655 572 655 c 0,52,53
 578 655 578 655 583 649 c 128,-1,54
 588 643 588 643 585 638 c 2,55,-1
 173 -11 l 2,56,57
 164 -26 164 -26 137 -26 c 0,58,59
 130 -26 130 -26 124 -21 c 0,60,61
 120 -18 120 -18 119 -15 c 0,62,63
 119 -13 119 -13 121 -11 c 2,49,-1
502 148 m 2,64,65
 510 148 510 148 510 153 c 2,66,-1
 510 264 l 2,67,68
 510 266 510 266 508 266 c 128,-1,69
 506 266 506 266 504 265 c 0,70,71
 465 222 465 222 411 153 c 0,72,73
 408 148 408 148 411 148 c 2,74,-1
 502 148 l 2,64,65
618 107 m 2,75,-1
 584 108 l 2,76,77
 562 108 562 108 562 103 c 2,78,-1
 562 19 l 2,79,80
 562 9 562 9 543.5 -0.5 c 128,-1,81
 525 -10 525 -10 519 -10 c 0,82,83
 510 -10 510 -10 510 -2 c 2,84,-1
 510 100 l 2,85,86
 510 105 510 105 501 105 c 2,87,-1
 355 101 l 2,88,89
 352 101 352 101 350 104 c 0,90,91
 349 106 349 106 348 107 c 0,92,93
 348 108 348 108 349 109 c 0,94,95
 380 150 380 150 436 219 c 0,96,97
 541 347 541 347 553 350 c 1,98,-1
 554 350 l 2,99,100
 560 350 560 350 560 342 c 0,101,102
 560 225 560 225 562 151 c 0,103,104
 562 147 562 147 565 147 c 2,105,-1
 583 147 l 1,106,107
 608 148 608 148 620 148 c 0,108,109
 631 148 631 148 631 143 c 0,110,111
 631 107 631 107 618 107 c 2,75,-1
EndSplineSet
EndChar

StartChar: questiondown
Encoding: 385 191 129
Width: 355
GlyphClass: 2
Flags: W
LayerCount: 2
Fore
SplineSet
233 374 m 128,-1,1
 208 374 208 374 190.5 391.5 c 128,-1,2
 173 409 173 409 173 434 c 128,-1,3
 173 459 173 459 190.5 476.5 c 128,-1,4
 208 494 208 494 233 494 c 128,-1,5
 258 494 258 494 275.5 476.5 c 128,-1,6
 293 459 293 459 293 434 c 128,-1,7
 293 409 293 409 275.5 391.5 c 128,-1,0
 258 374 258 374 233 374 c 128,-1,1
224 -93 m 1,8,-1
 271 -89 l 1,9,10
 287 -89 287 -89 300 -107 c 128,-1,11
 313 -125 313 -125 313 -142 c 128,-1,12
 313 -159 313 -159 299.5 -170 c 128,-1,13
 286 -181 286 -181 273 -181 c 0,14,15
 215 -181 215 -181 169.5 -135.5 c 128,-1,16
 124 -90 124 -90 96 -32 c 128,-1,17
 68 26 68 26 68 62.5 c 128,-1,18
 68 99 68 99 81.5 125 c 128,-1,19
 95 151 95 151 112 160 c 0,20,21
 218 218 218 218 226 238 c 0,22,23
 230 250 230 250 231 274.5 c 128,-1,24
 232 299 232 299 247 299 c 0,25,26
 252 299 252 299 259 290.5 c 128,-1,27
 266 282 266 282 274 251 c 128,-1,28
 282 220 282 220 284 191 c 0,29,30
 284 188 284 188 285 186 c 1,31,32
 285 160 285 160 263 142 c 0,33,34
 240 122 240 122 200 101 c 0,35,36
 124 62 124 62 123 22 c 1,37,38
 123 -29 123 -29 149 -60.5 c 128,-1,39
 175 -92 175 -92 224 -93 c 1,8,-1
EndSplineSet
EndChar

StartChar: AE
Encoding: 392 198 136
Width: 866
GlyphClass: 2
Flags: W
AnchorPoint: "Anchor-2" 540 700 basechar 0
LayerCount: 2
Fore
SplineSet
239 -1 m 2,0,-1
 150 1 l 1,1,-1
 24 -5 l 1,2,3
 -5 -5 -5 -5 -5 6.5 c 128,-1,4
 -5 18 -5 18 24 26.5 c 128,-1,5
 53 35 53 35 82 62.5 c 128,-1,6
 111 90 111 90 132 126 c 2,7,-1
 405 594 l 2,8,9
 409 600 409 600 403.5 605 c 128,-1,10
 398 610 398 610 388 611 c 2,11,-1
 300 626 l 1,12,13
 292 629 292 629 290 635 c 128,-1,14
 288 641 288 641 291.5 646 c 128,-1,15
 295 651 295 651 300 651 c 2,16,-1
 475 648 l 1,17,-1
 776 653 l 1,18,-1
 784 653 l 2,19,20
 801 653 801 653 802 644 c 0,21,22
 813 586 813 586 814 541 c 0,23,24
 814 532 814 532 803 532 c 128,-1,25
 792 532 792 532 789 542 c 0,26,27
 777 578 777 578 766 591 c 0,28,29
 742 618 742 618 699 618 c 2,30,-1
 568 618 l 2,31,32
 560 618 560 618 552.5 609.5 c 128,-1,33
 545 601 545 601 543 592 c 0,34,35
 532 543 532 543 532 354 c 0,36,37
 532 332 532 332 542 332 c 0,38,39
 598 332 598 332 638 334 c 128,-1,40
 678 336 678 336 689.5 346.5 c 128,-1,41
 701 357 701 357 705 366 c 128,-1,42
 709 375 709 375 715.5 381.5 c 128,-1,43
 722 388 722 388 725.5 388 c 128,-1,44
 729 388 729 388 734 383 c 128,-1,45
 739 378 739 378 738 372 c 0,46,47
 736 347 736 347 736 314 c 128,-1,48
 736 281 736 281 738 240 c 0,49,50
 738 223 738 223 729 223 c 0,51,52
 713 223 713 223 706 246 c 0,53,54
 694 283 694 283 655.5 285 c 128,-1,55
 617 287 617 287 556 287 c 0,56,57
 531 287 531 287 532 262 c 1,58,59
 532 198 532 198 535 113 c 0,60,61
 536 79 536 79 551 57 c 128,-1,62
 566 35 566 35 598 35 c 2,63,-1
 702 35 l 2,64,65
 710 35 710 35 740 41 c 128,-1,66
 770 47 770 47 778 53 c 0,67,68
 797 68 797 68 820 116 c 0,69,70
 824 126 824 126 832 126 c 0,71,72
 847 125 847 125 847 116 c 0,73,74
 847 81 847 81 830 12 c 0,75,76
 826 -5 826 -5 816 -5 c 2,77,-1
 512 1 l 1,78,-1
 492 1 l 1,79,-1
 377 -5 l 1,80,81
 348 -5 348 -5 348 6.5 c 128,-1,82
 348 18 348 18 384 24 c 1,83,84
 421 32 421 32 439 48 c 0,85,86
 456 64 456 64 456 95 c 2,87,-1
 454 242 l 2,88,89
 454 276 454 276 450 280.5 c 128,-1,90
 446 285 446 285 432 285 c 2,91,-1
 291 285 l 2,92,93
 273 285 273 285 261 262 c 1,94,95
 225 201 225 201 179 112 c 0,96,97
 171 96 171 96 171 83 c 0,98,99
 171 46 171 46 235 30 c 0,100,101
 268 21 268 21 268 10 c 128,-1,102
 268 -1 268 -1 239 -1 c 2,0,-1
438 581 m 2,103,-1
 302 343 l 2,104,105
 298 336 298 336 298 333 c 0,106,107
 298 332 298 332 298 330 c 1,108,109
 300 328 300 328 314 328 c 2,110,-1
 438 328 l 2,111,112
 450 328 450 328 452 330 c 128,-1,113
 454 332 454 332 454 343 c 2,114,-1
 454 580 l 2,115,116
 454 598 454 598 450.5 598 c 128,-1,117
 447 598 447 598 438 581 c 2,103,-1
EndSplineSet
Substitution2: "'c2sc' Capitals to Small Capitals lookup 30 subtable" AE.sc
EndChar

StartChar: Ccedilla
Encoding: 393 199 137
Width: 665
GlyphClass: 2
Flags: W
LayerCount: 2
Fore
SplineSet
378 -131 m 1,0,-1
 354 -132 l 2,1,2
 334 -132 334 -132 328 -122 c 128,-1,3
 322 -112 322 -112 332 -100 c 2,4,-1
 395 -15 l 1,5,-1
 369 -15 l 2,6,7
 237 -15 237 -15 143.5 80.5 c 128,-1,8
 50 176 50 176 50 316.5 c 128,-1,9
 50 457 50 457 156 560 c 128,-1,10
 262 663 262 663 410 663 c 0,11,12
 480 663 480 663 516 651 c 0,13,14
 526 648 526 648 555.5 641.5 c 128,-1,15
 585 635 585 635 594 632.5 c 128,-1,16
 603 630 603 630 608 590 c 0,17,18
 612 550 612 550 613 518 c 0,19,20
 613 509 613 509 613 501 c 0,21,22
 614 483 614 483 612 478 c 0,23,24
 610 470 610 470 602 471 c 128,-1,25
 594 472 594 472 591 478 c 128,-1,26
 588 484 588 484 585 502 c 0,27,28
 580 546 580 546 541 581 c 0,29,30
 528 594 528 594 487 609 c 128,-1,31
 446 624 446 624 386 624 c 0,32,33
 281 624 281 624 213.5 537 c 128,-1,34
 146 450 146 450 146 330.5 c 128,-1,35
 146 211 146 211 218 118 c 128,-1,36
 290 25 290 25 403 25 c 0,37,38
 461 25 461 25 527 62 c 1,39,40
 573 89 573 89 586 137 c 1,41,42
 590 147 590 147 600 151 c 128,-1,43
 610 155 610 155 611 156 c 128,-1,44
 612 157 612 157 614 157 c 0,45,46
 617 158 617 158 619 148 c 0,47,48
 620 144 620 144 620 138 c 128,-1,49
 620 132 620 132 618 124 c 0,50,51
 616 110 616 110 602.5 77 c 128,-1,52
 589 44 589 44 582.5 34 c 128,-1,53
 576 24 576 24 572 22 c 0,54,55
 569 20 569 20 565 18 c 0,56,57
 553 14 553 14 531 3 c 128,-1,58
 509 -8 509 -8 429 -14 c 1,59,-1
 402 -54 l 2,60,61
 395 -63 395 -63 416.5 -72 c 128,-1,62
 438 -81 438 -81 458 -104 c 128,-1,63
 478 -127 478 -127 478 -159 c 0,64,65
 478 -206 478 -206 433 -240.5 c 128,-1,66
 388 -275 388 -275 354 -275 c 0,67,68
 320 -276 320 -276 310 -262 c 0,69,70
 305 -255 305 -255 305 -244 c 0,71,72
 305 -234 305 -234 309 -221 c 0,73,74
 314 -205 314 -205 323 -210 c 1,75,76
 351 -222 351 -222 375 -222 c 0,77,78
 425 -222 425 -222 425 -183 c 0,79,80
 425 -134 425 -134 378 -131 c 1,0,-1
EndSplineSet
Substitution2: "'c2sc' Capitals to Small Capitals lookup 30 subtable" Ccedilla.sc
EndChar

StartChar: multiply
Encoding: 409 215 153
Width: 600
GlyphClass: 2
Flags: W
LayerCount: 2
Fore
SplineSet
290 299 m 2,0,1
 294 295 294 295 297 298 c 2,2,-1
 441 441 l 2,3,4
 446 446 446 446 451.5 446 c 128,-1,5
 457 446 457 446 459 442 c 128,-1,6
 461 438 461 438 465 432 c 0,7,8
 468 426 468 426 470 422 c 2,9,-1
 474 412 l 2,10,11
 476 406 476 406 477 402 c 1,12,13
 477 392 477 392 470 386 c 2,14,-1
 339 255 l 2,15,16
 336 252 336 252 339 250 c 2,17,-1
 482 107 l 2,18,19
 487 102 487 102 487 94 c 128,-1,20
 487 86 487 86 481 74 c 0,21,22
 469 52 469 52 457 53 c 0,23,24
 451 53 451 53 447 57 c 2,25,-1
 298 207 l 2,26,27
 294 210 294 210 291 207 c 2,28,-1
 148 64 l 2,29,30
 144 60 144 60 138.5 60 c 128,-1,31
 133 60 133 60 129 64 c 0,32,33
 126 68 126 68 120 76 c 0,34,35
 108 93 108 93 107 103 c 0,36,37
 107 110 107 110 113 114 c 1,38,-1
 247 248 l 2,39,40
 252 252 252 252 246 258 c 2,41,-1
 125 379 l 2,42,43
 120 383 120 383 120 392 c 0,44,45
 120 403 120 403 128 421 c 0,46,47
 136 440 136 440 145 440 c 0,48,49
 150 440 150 440 155 434 c 2,50,-1
 290 299 l 2,0,1
EndSplineSet
Substitution2: "'smcp' Lowercase to Small Capitals lookup 29 subtable" multiply.sc
EndChar

StartChar: Oslash
Encoding: 410 216 154
Width: 773
GlyphClass: 2
Flags: W
LayerCount: 2
Fore
SplineSet
380 625 m 0,0,1
 274 625 274 625 210.5 543 c 128,-1,2
 147 461 147 461 147 350.5 c 128,-1,3
 147 240 147 240 191 161 c 1,4,-1
 568 529 l 1,5,6
 503 625 503 625 380 625 c 0,0,1
50 320 m 0,7,8
 50 413 50 413 88.5 489.5 c 128,-1,9
 127 566 127 566 207 615 c 128,-1,10
 287 664 287 664 395 664 c 0,11,12
 525 664 525 664 619 579 c 1,13,-1
 699 658 l 2,14,15
 704 663 704 663 712.5 662 c 128,-1,16
 721 661 721 661 723 654 c 0,17,18
 726 645 726 645 726 639 c 0,19,20
 726 628 726 628 719 621 c 2,21,-1
 647 549 l 1,22,23
 723 460 723 460 723 335 c 0,24,25
 724 194 724 194 638 93 c 0,26,27
 596 44 596 44 531 15 c 128,-1,28
 466 -14 466 -14 387 -14 c 0,29,30
 263 -14 263 -14 166 69 c 1,31,-1
 86 -11 l 2,32,33
 83 -14 83 -14 76.5 -14 c 128,-1,34
 70 -14 70 -14 61 -9 c 0,35,36
 49 -2 49 -2 49 7 c 0,37,38
 49 15 49 15 59 26 c 2,39,-1
 134 100 l 1,40,41
 50 194 50 194 50 320 c 0,7,8
589 492 m 1,42,-1
 216 123 l 1,43,44
 291 25 291 25 400.5 25 c 128,-1,45
 510 25 510 25 568 99.5 c 128,-1,46
 626 174 626 174 626 295.5 c 128,-1,47
 626 417 626 417 589 492 c 1,42,-1
EndSplineSet
Substitution2: "'c2sc' Capitals to Small Capitals lookup 30 subtable" Oslash.sc
EndChar

